<svg xmlns="http://www.w3.org/2000/svg" width="20" height="20" fill="none" viewBox="0 0 20 20"><path fill="#fff" d="M10 1.875C8.39303 1.875 6.82214 2.35152 5.486 3.24431C4.14985 4.1371 3.10844 5.40605 2.49348 6.8907C1.87852 8.37535 1.71762 10.009 2.03112 11.5851C2.34463 13.1612 3.11846 14.6089 4.25476 15.7452C5.39106 16.8815 6.8388 17.6554 8.4149 17.9689C9.99099 18.2824 11.6247 18.1215 13.1093 17.5065C14.594 16.8916 15.8629 15.8502 16.7557 14.514C17.6485 13.1779 18.125 11.607 18.125 10C18.1225 7.84588 17.2657 5.7807 15.7425 4.25751C14.2193 2.73431 12.1541 1.87749 10 1.875ZM9.99993 5.625C10.1853 5.625 10.3666 5.67998 10.5208 5.783C10.6749 5.88601 10.7951 6.03243 10.8661 6.20373C10.937 6.37504 10.9556 6.56354 10.9194 6.7454C10.8832 6.92725 10.794 7.0943 10.6628 7.22541C10.5317 7.35652 10.3647 7.44581 10.1828 7.48199C10.001 7.51816 9.81247 7.49959 9.64116 7.42864C9.46985 7.35768 9.32344 7.23752 9.22042 7.08335C9.11741 6.92918 9.06243 6.74792 9.06243 6.5625C9.06243 6.43939 9.08668 6.31748 9.13379 6.20373C9.1809 6.08999 9.24996 5.98664 9.33701 5.89959C9.42407 5.81253 9.52742 5.74348 9.64116 5.69636C9.7549 5.64925 9.87681 5.625 9.99993 5.625H9.99993ZM10.625 14.375H10C9.91791 14.375 9.83662 14.3589 9.76077 14.3275C9.68492 14.2961 9.616 14.2501 9.55796 14.192C9.49991 14.134 9.45388 14.0651 9.42248 13.9892C9.39109 13.9134 9.37496 13.8321 9.375 13.75V10C9.20924 10 9.05027 9.93415 8.93306 9.81694C8.81585 9.69973 8.75 9.54076 8.75 9.375C8.75 9.20924 8.81585 9.05027 8.93306 8.93306C9.05027 8.81585 9.20924 8.75 9.375 8.75H10C10.0821 8.74995 10.1634 8.76609 10.2392 8.79748C10.3151 8.82887 10.384 8.87491 10.4421 8.93295C10.5001 8.991 10.5461 9.05992 10.5775 9.13577C10.6089 9.21162 10.6251 9.29291 10.625 9.375V13.125C10.7908 13.125 10.9497 13.1908 11.0669 13.3081C11.1842 13.4253 11.25 13.5842 11.25 13.75C11.25 13.9158 11.1842 14.0747 11.0669 14.1919C10.9497 14.3092 10.7908 14.375 10.625 14.375Z"/></svg>