<svg xmlns="http://www.w3.org/2000/svg" width="33" height="33" viewBox="0 0 33 33"><path fill="#fff" fill-rule="evenodd" d="M21.948 19.779l1.205 2.443 2.699.393.277.852-1.953 1.902.462 2.687-.726.527-2.412-1.269-2.412 1.27-.726-.528.461-2.687-1.952-1.902.277-.852 2.698-.393 1.206-2.443h.896zm-.448 1.35l-.874 1.772-.377.274-1.954.283 1.414 1.38.144.442-.335 1.947 1.75-.92h.465l1.748.92-.334-1.947.144-.443 1.413-1.379-1.953-.283-.377-.274-.874-1.772zm-9.713-4.885l.575.58v.141c-1.493 1.51-3.325 3.782-3.434 5.256l-.007.208-.001 1.641h6.254l.1.102-.013.83-.1.098H8l-.1-.1v-2.571c0-1.725 1.735-4.021 3.5-5.924l.244-.26h.143zm8.604 0l.308.256c.1.109.41.415.923.968.068.073.106.133.106.213 0 .081-.624.628-.699.596-.068-.03-.15-.041-.212-.108-.354-.384-.625-.671-.811-.86l-.332-.344v-.14l.575-.58h.142zM16 6.9c2.6 0 4.695 2.119 4.695 4.747-.042 2.625-2.137 4.743-4.695 4.743-2.6 0-4.695-2.118-4.695-4.745C11.305 9.02 13.401 6.9 16 6.9zm0 1.03c-2.037 0-3.674 1.655-3.674 3.715 0 2.06 1.637 3.716 3.674 3.716s3.674-1.656 3.674-3.716C19.674 9.6 18.01 7.93 16 7.93z"/></svg>