<svg width="1600" height="1600" viewBox="0 0 1600 1600" fill="none" xmlns="http://www.w3.org/2000/svg">
<path d="M1343.41 394.96C1360.2 378.182 1360.2 350.738 1343.41 333.96C1326.63 317.182 1299.18 317.182 1282.4 333.96L1161.12 455.222L1162.13 456.381C1068.84 367.566 937.986 312 793.524 312C653.016 312 525.277 364.5 432.547 449.112L432.651 448.984L317.598 333.954C300.817 317.177 273.367 317.177 256.586 333.954C239.805 350.732 239.805 378.176 256.586 394.954L374.219 512.563L375.268 511.421C316.483 587.609 281.769 680.312 281.769 780.103V1468H1305.26L1305.28 780.088C1305.28 683.917 1273.12 594.308 1218.21 519.732L1218.39 519.929L1343.41 394.96ZM584.825 732.667C546.12 732.667 514.733 701.286 514.733 662.589C514.733 623.893 546.12 592.511 584.825 592.511C623.529 592.511 654.917 623.893 654.917 662.589C654.917 701.286 623.553 732.667 584.825 732.667ZM1002.27 732.667C963.564 732.667 932.177 701.286 932.177 662.589C932.177 623.893 963.564 592.511 1002.27 592.511C1040.97 592.511 1072.36 623.893 1072.36 662.589C1072.37 701.286 1041 732.667 1002.27 732.667Z" fill="#77C159"/>
</svg>
