<?xml version="1.0" encoding="UTF-8"?>
<svg width="1200pt" height="1200pt" version="1.1" viewBox="0 0 1200 1200" xmlns="http://www.w3.org/2000/svg">
 <path d="m966.07 266.44c11.305-11.305 11.305-29.797 0-41.102-11.305-11.305-29.797-11.305-41.102 0l-81.707 81.707 0.68359 0.78125c-62.844-59.844-151-97.285-248.32-97.285-94.656 0-180.71 35.375-243.18 92.387l0.070312-0.085937-77.508-77.508c-11.305-11.305-29.797-11.305-41.102 0-11.305 11.305-11.305 29.797 0 41.102l79.246 79.246 0.70703-0.76953c-39.602 51.336-62.988 113.8-62.988 181.04v463.51h689.5l0.007812-463.52c0-64.801-21.66-125.18-58.656-175.43l0.12109 0.13281zm-511.04 227.55c-26.074 0-47.219-21.145-47.219-47.219 0-26.074 21.145-47.219 47.219-47.219 26.074 0 47.219 21.145 47.219 47.219 0 26.074-21.129 47.219-47.219 47.219zm281.22 0c-26.074 0-47.219-21.145-47.219-47.219 0-26.074 21.145-47.219 47.219-47.219 26.074 0 47.219 21.145 47.219 47.219 0.003906 26.074-21.129 47.219-47.219 47.219z" fill="#77c159"/>
</svg>
