<svg width="16" height="16" viewBox="0 0 16 16" fill="none" xmlns="http://www.w3.org/2000/svg">
<path fill-rule="evenodd" clip-rule="evenodd" d="M8 0C3.58172 0 0 3.58172 0 8C0 12.4183 3.58172 16 8 16C12.4183 16 16 12.4183 16 8C16 3.58172 12.4183 0 8 0ZM8 1.23077C11.7385 1.23077 14.7692 4.26146 14.7692 8C14.7692 11.7385 11.7385 14.7692 8 14.7692C4.26146 14.7692 1.23077 11.7385 1.23077 8C1.23077 4.26146 4.26146 1.23077 8 1.23077ZM8.49228 9.4474L8.9649 4.75078L7.13351 4.74093L7.59628 9.4474H8.49228ZM8.84679 11.6923V10.1169H7.25171V11.6923H8.84679Z" fill="#2D2D2D"/>
</svg>
