<svg xmlns="http://www.w3.org/2000/svg" width="22" height="23" viewBox="0 0 22 23"><defs><linearGradient id="a" x1="4.253%" x2="95.747%" y1="100%" y2="0%"><stop offset="0%" stop-color="#FFF"/><stop offset="100%" stop-color="#c9c6c6"/></linearGradient></defs><path fill="url(#a)" fill-rule="evenodd" d="M22 20.765v1.341c0 .494-.428.894-.957.894h-5.739c0-.494-.428-.894-.956-.894h-2.474a.991.991 0 0 0-.676.262l-.676.632H.957C.428 23 0 22.6 0 22.106v-1.341h22zM22 0l-.001 3.725H22v15.646H0v-1.788c0-1.975 1.713-3.576 3.826-3.576H11V5.215h-.38V0H22z"/></svg>