<svg xmlns="http://www.w3.org/2000/svg" width="50" height="50" viewBox="0 0 50 50"><g fill="none" fill-rule="evenodd"><path fill="#FFF" d="M49 0h1v1h-1zM0 49h1v1H0z" opacity=".01"/><g fill="#616161" fill-rule="nonzero"><path d="M20 24.5h-1a.5.5 0 0 0 0 1h1a.5.5 0 0 0 0-1zM24 24.5h-1a.5.5 0 0 0 0 1h1a.5.5 0 0 0 0-1zM28 24.5h-1a.5.5 0 0 0 0 1h1a.5.5 0 0 0 0-1zM32 24.5h-1a.5.5 0 0 0 0 1h1a.5.5 0 0 0 0-1zM20 27.5h-1a.5.5 0 0 0 0 1h1a.5.5 0 0 0 0-1zM24 27.5h-1a.5.5 0 0 0 0 1h1a.5.5 0 0 0 0-1zM28 27.5h-1a.5.5 0 0 0 0 1h1a.5.5 0 0 0 0-1zM32 27.5h-1a.5.5 0 0 0 0 1h1a.5.5 0 0 0 0-1zM20 30.5h-1a.5.5 0 0 0 0 1h1a.5.5 0 0 0 0-1zM24 30.5h-1a.5.5 0 0 0 0 1h1a.5.5 0 0 0 0-1zM28 30.5h-1a.5.5 0 0 0 0 1h1a.5.5 0 0 0 0-1zM32 30.5h-1a.5.5 0 0 0 0 1h1a.5.5 0 0 0 0-1z"/><path d="M33 16.5h-1.5V15a.5.5 0 0 0-1 0v1.5h-10V15a.5.5 0 0 0-1 0v1.5H18a2.503 2.503 0 0 0-2.5 2.5v13c0 1.379 1.122 2.5 2.5 2.5h15c1.378 0 2.5-1.121 2.5-2.5V19c0-1.379-1.122-2.5-2.5-2.5zm-15 1h1.5V19a.5.5 0 0 0 1 0v-1.5h10V19a.5.5 0 0 0 1 0v-1.5H33c.827 0 1.5.673 1.5 1.5v1.5h-18V19c0-.827.673-1.5 1.5-1.5zm15 16H18c-.827 0-1.5-.673-1.5-1.5V21.5h18V32c0 .827-.673 1.5-1.5 1.5z"/></g></g></svg>