<svg xmlns="http://www.w3.org/2000/svg" width="33" height="33" viewBox="0 0 33 33"><g fill="#fff" fill-rule="nonzero" stroke="#fff" stroke-width=".5"><path d="M7 12.672v11.94a.244.244 0 0 0 .108.21.202.202 0 0 0 .22 0 .244.244 0 0 0 .109-.21V12.91h18.126a.215.215 0 0 0 .192-.118.258.258 0 0 0 0-.24.215.215 0 0 0-.192-.12H7.218c-.145.023-.22.123-.218.24zm18.345.491v11.21H11.243a.215.215 0 0 0-.192.119.258.258 0 0 0 0 .24c.04.075.113.12.192.119h14.32c.12 0 .219-.107.219-.24V13.164a.25.25 0 0 0-.071-.185.207.207 0 0 0-.175-.061c-.113.015-.196.122-.191.246z"/><path d="M12.46 9.328v3.269a.244.244 0 0 0 .108.21.202.202 0 0 0 .22 0 .244.244 0 0 0 .109-.21v-3.03h6.988v3.03a.244.244 0 0 0 .108.21.202.202 0 0 0 .22 0 .244.244 0 0 0 .109-.21V9.328c0-.132-.098-.238-.219-.238h-7.425a.2.2 0 0 0-.04 0c-.105.021-.18.122-.178.238z"/></g></svg>