<svg xmlns="http://www.w3.org/2000/svg" width="34" height="34" viewBox="0 0 34 34"><path fill="#616161" fill-rule="nonzero" d="M26.263 10.565c1.192 0 2.163.97 2.163 2.162v8.603a2.167 2.167 0 0 1-2.163 2.163h-.617v2.593c0 .369-.22.684-.565.814a.855.855 0 0 1-.957-.244l-2.736-3.154h-8.536a.588.588 0 1 1 0-1.177h8.804c.172 0 .334.072.444.201l2.374 2.742v-2.359c0-.325.263-.588.588-.588h1.201c.546 0 .99-.445.99-.99v-8.604a.992.992 0 0 0-.99-.99.587.587 0 0 1 0-1.172zm-4.536-3.541c1.192 0 2.163.971 2.163 2.163v8.602a2.158 2.158 0 0 1-2.158 2.158h-9.694L9.306 23.11a.874.874 0 0 1-.655.301l-.11-.006a.866.866 0 0 1-.761-.86v-2.593h-.617A2.167 2.167 0 0 1 5 17.79V9.187c0-1.192.971-2.163 2.163-2.163zm0 1.172H7.163a.992.992 0 0 0-.99.99v8.599c0 .545.444.99.99.99h1.196c.325 0 .588.263.588.589v2.358l2.374-2.741a.589.589 0 0 1 .445-.201h9.961c.546 0 .99-.445.99-.99V9.186a.992.992 0 0 0-.99-.99zm-7.282 4.8a.699.699 0 1 1 0 1.396.699.699 0 0 1 0-1.397zm2.34 0a.699.699 0 1 1 0 1.396.699.699 0 0 1 0-1.397zm-4.68 0a.699.699 0 1 1 0 1.396.699.699 0 0 1 0-1.397z"/></svg>