<svg xmlns="http://www.w3.org/2000/svg" width="34" height="33" viewBox="0 0 34 33"><path fill="#616161" fill-rule="nonzero" d="M23.705 10.117l-1.736 2.026-.132.018A6.827 6.827 0 0 0 18 10.987c-3.81 0-6.9 3.114-6.9 6.956 0 3.843 3.09 6.957 6.9 6.957 3.81 0 6.9-3.114 6.9-6.957a6.962 6.962 0 0 0-2.092-4.99l-.006-.136 1.655-1.929a.545.545 0 0 0-.283-.926.534.534 0 0 0-.469.155zM18 12.07c1.546 0 3.028.619 4.12 1.72a5.897 5.897 0 0 1 1.707 4.153c0 3.244-2.609 5.874-5.827 5.874s-5.827-2.63-5.827-5.874c0-3.243 2.609-5.873 5.827-5.873zm0 2.124a.539.539 0 0 0-.536.542v3.207c0 .3.24.542.536.542a.539.539 0 0 0 .536-.542v-3.207c0-.3-.24-.542-.536-.542zM20.227 8.1h-4.454a.539.539 0 0 0-.537.542c0 .299.24.541.537.541h4.454a.539.539 0 0 0 .537-.541c0-.3-.24-.542-.537-.542z"/></svg>