<svg xmlns="http://www.w3.org/2000/svg" width="20" height="20" fill="none" viewBox="0 0 20 20"><path fill="#fff" d="M9.46895 12.3401C10.3075 11.7831 10.9445 10.9709 11.2856 10.0237C11.6267 9.07654 11.6538 8.04471 11.3628 7.08094C11.0719 6.11717 10.4784 5.27267 9.67023 4.67241C8.86203 4.07216 7.88206 3.74805 6.87533 3.74805C5.86861 3.74805 4.88863 4.07216 4.08044 4.67241C3.27224 5.27267 2.67876 6.11717 2.38783 7.08094C2.09691 8.04471 2.12399 9.07654 2.46508 10.0237C2.80617 10.9709 3.44314 11.7831 4.28172 12.3401C2.85219 12.8675 1.61667 13.8168 0.73894 15.0623C0.673043 15.1559 0.634119 15.2658 0.626417 15.38C0.618714 15.4942 0.642528 15.6084 0.69526 15.71C0.747993 15.8116 0.827618 15.8967 0.925449 15.9562C1.02328 16.0156 1.13556 16.0471 1.25003 16.0471L12.5004 16.0467C12.6149 16.0466 12.7271 16.0152 12.825 15.9557C12.9228 15.8963 13.0024 15.8111 13.0551 15.7095C13.1078 15.6079 13.1316 15.4937 13.1239 15.3795C13.1162 15.2653 13.0773 15.1554 13.0114 15.0618C12.1337 13.8166 10.8983 12.8674 9.46895 12.3401Z"/><path fill="#fff" d="M19.3799 15.0613C18.5022 13.8161 17.2668 12.8669 15.8375 12.3397C16.7668 11.721 17.4448 10.791 17.7495 9.71704C18.0543 8.64304 17.9657 7.49554 17.4997 6.48104C17.0337 5.46654 16.221 4.65165 15.2077 4.18301C14.1944 3.71437 13.0472 3.62275 11.9724 3.92464C11.8748 3.95208 11.7854 4.00285 11.7118 4.07255C11.6382 4.14225 11.5827 4.22881 11.55 4.32476C11.5173 4.4207 11.5084 4.52316 11.5242 4.62329C11.5399 4.72342 11.5797 4.81822 11.6403 4.89953C12.3468 5.84859 12.753 6.98746 12.8064 8.16942C12.8599 9.35138 12.5583 10.5223 11.9403 11.5313C11.8587 11.6643 11.8299 11.8231 11.8594 11.9764C11.889 12.1296 11.9749 12.2663 12.1001 12.3595C12.3371 12.5358 12.5651 12.7239 12.7832 12.9231C12.7945 12.9354 12.8058 12.9475 12.8183 12.9591C13.6525 13.7303 14.3286 14.6565 14.8088 15.686C14.8591 15.7938 14.9391 15.885 15.0395 15.9488C15.1398 16.0127 15.2562 16.0466 15.3752 16.0466L18.869 16.0462C18.9834 16.0462 19.0957 16.0147 19.1935 15.9553C19.2913 15.8958 19.371 15.8106 19.4237 15.709C19.4764 15.6074 19.5002 15.4933 19.4925 15.379C19.4848 15.2648 19.4458 15.1549 19.3799 15.0613L19.3799 15.0613Z"/></svg>