<svg xmlns="http://www.w3.org/2000/svg" width="20" height="20" fill="none" viewBox="0 0 20 20"><path fill="#fff" d="M7.8124 9.09784C7.90741 9.04299 7.98631 8.9641 8.04117 8.8691C8.09602 8.77409 8.1249 8.66632 8.1249 8.55661V2.92673C8.1249 2.82675 8.1009 2.72823 8.05494 2.63944C8.00898 2.55065 7.94238 2.47419 7.86075 2.41646C7.77912 2.35874 7.68483 2.32144 7.5858 2.30769C7.48677 2.29395 7.38589 2.30416 7.29162 2.33747C5.4671 2.98465 3.9331 4.26115 2.96515 5.93768C1.99719 7.61422 1.6587 9.58095 2.01048 11.4846C2.02864 11.583 2.07016 11.6756 2.13155 11.7546C2.19293 11.8336 2.27239 11.8967 2.36323 11.9386C2.45408 11.9805 2.55366 12 2.6536 11.9954C2.75355 11.9909 2.85093 11.9624 2.93757 11.9123L7.8124 9.09784ZM6.8749 3.87415V8.19574L3.1341 10.3555C3.12807 10.2371 3.12504 10.1186 3.12502 9.99994C3.12639 8.7328 3.47715 7.49057 4.13872 6.40984C4.80028 5.3291 5.74704 4.45172 6.8749 3.87415Z"/><path fill="#fff" d="M17.0525 5.96867C17.0473 5.95825 17.0425 5.94772 17.0366 5.9375C17.0286 5.92369 17.0197 5.91076 17.0109 5.89783C16.2947 4.67408 15.2708 3.65897 14.0409 2.95328C12.8111 2.24758 11.418 1.87585 10.0001 1.875C9.83432 1.875 9.67535 1.94085 9.55814 2.05806C9.44093 2.17527 9.37508 2.33424 9.37508 2.5V9.63917L3.19237 13.2087C3.04883 13.2916 2.94408 13.4281 2.90118 13.5882C2.85828 13.7484 2.88074 13.9189 2.96361 14.0625C2.96624 14.067 2.96954 14.0709 2.97227 14.0754C2.97917 14.0894 2.98603 14.1034 2.99409 14.1171C3.89779 15.6544 5.28211 16.8518 6.93359 17.5245C8.58506 18.1973 10.412 18.3081 12.1327 17.8399C13.8534 17.3717 15.3723 16.3505 16.4552 14.9337C17.5381 13.5169 18.1249 11.7833 18.1251 10C18.1268 8.58548 17.7569 7.19531 17.0525 5.96867Z"/></svg>