<svg xmlns="http://www.w3.org/2000/svg" width="20" height="20" fill="none" viewBox="0 0 20 20"><path fill="#fff" d="M17.5697 2.77022C15.8975 2.22249 13.5205 1.94508 11.0484 2.00905C8.72775 2.06911 6.53964 2.41465 4.88705 2.98197C2.49288 3.80393 1.99559 4.82407 2.00003 5.53508C2.00197 5.84475 2.10559 6.312 2.58826 6.77945C3.15461 7.3279 4.14554 7.7755 5.42219 8.0925C4.66461 8.42973 4.28126 8.86974 4.28126 9.40612C4.28126 10.1084 4.93755 10.6456 6.23186 11.003C7.24663 11.2831 8.58484 11.4374 10.0001 11.4374C11.7519 11.4374 12.8193 11.8296 13.1257 12.0624C12.8699 12.2567 12.0834 12.562 10.8116 12.6576C10.6711 12.6605 10.532 12.6681 10.3951 12.6803C10.2674 12.6848 10.136 12.6874 10.0001 12.6874C8.17349 12.6874 7.07881 12.2717 6.81793 12.0096C6.57433 11.765 6.17864 11.7642 5.93401 12.0077C5.68941 12.2513 5.68857 12.647 5.9321 12.8916C6.36298 13.3244 7.13069 13.6007 7.98005 13.76C7.81842 14.0086 7.78126 14.2436 7.78126 14.4062C7.78126 14.7288 7.92655 15.3328 8.89975 15.7533C9.29888 15.9258 9.78555 16.0425 10.3102 16.0944C10.279 16.2045 10.2626 16.3192 10.2626 16.4375C10.2626 17.3137 11.163 18 12.3126 18C12.6578 18 12.9376 17.7202 12.9376 17.375C12.9376 17.0298 12.6578 16.75 12.3126 16.75C11.7792 16.75 11.5126 16.4972 11.5126 16.4375C11.5126 16.3778 11.7792 16.125 12.3126 16.125C12.6578 16.125 12.9376 15.8451 12.9376 15.5C12.9376 15.1548 12.6578 14.8749 12.3126 14.8749H10.9376C9.86917 14.8749 9.22344 14.5725 9.05725 14.4038C9.19526 14.2572 9.6833 14.0049 10.4654 13.9287C10.6006 13.9236 10.7352 13.9164 10.8688 13.9068C10.8916 13.9065 10.9144 13.9062 10.9376 13.9062C10.9855 13.9062 11.0319 13.9003 11.0767 13.8901C12.8789 13.7283 14.4376 13.1456 14.4376 12.0624C14.4376 11.6315 14.1907 11.2798 13.7801 11.0023C14.3542 10.8429 14.8472 10.6343 15.1887 10.3675C15.4608 10.155 15.5091 9.76219 15.2966 9.49016C15.0841 9.21812 14.6913 9.16984 14.4193 9.38231C13.9071 9.78238 12.2246 10.1874 10.0001 10.1874C8.84425 10.1874 7.7277 10.0754 6.85609 9.87204C6.14507 9.70616 5.77422 9.52187 5.61063 9.40612C5.77422 9.29037 6.14511 9.10609 6.85609 8.94021C7.72773 8.73683 8.84425 8.62486 10.0001 8.62486C10.0135 8.62486 10.0266 8.62367 10.0397 8.62286C10.1543 8.6243 10.2695 8.62505 10.3853 8.62505C10.6256 8.62505 10.8688 8.62189 11.114 8.61555C11.1484 8.61464 11.1819 8.61026 11.2147 8.60405C12.4626 8.56186 13.6405 8.37026 14.5382 8.06207C16.0037 7.55893 16.3077 6.87998 16.3048 6.39885C16.3033 6.1755 16.2314 5.84134 15.8972 5.51777C15.002 4.65113 12.8023 4.39087 11.042 4.43656C9.97865 4.46406 8.74256 4.64625 7.73551 4.92388C7.40275 5.01564 7.20734 5.35977 7.29906 5.69252C7.39079 6.02528 7.73489 6.22066 8.06774 6.12894C8.41049 6.03447 9.64023 5.72327 11.0744 5.68615C13.088 5.63415 14.6064 6.01906 15.0215 6.40988C14.9268 6.50835 14.67 6.69523 14.1323 6.87983C13.3331 7.15418 12.2583 7.32374 11.1059 7.35724C11.0745 7.35815 11.0439 7.36212 11.0138 7.36749C7.15359 7.45781 4.29351 6.69076 3.45784 5.88153C3.36343 5.79012 3.25077 5.65449 3.25002 5.52736C3.24858 5.29899 3.67375 4.72019 5.2929 4.16431C6.8284 3.63717 8.88384 3.31554 11.0807 3.25867C13.4152 3.19829 15.6388 3.45317 17.1805 3.95815C17.5086 4.06562 17.8616 3.88677 17.969 3.55873C18.0765 3.23067 17.8977 2.87763 17.5697 2.77022Z"/></svg>