<svg xmlns="http://www.w3.org/2000/svg" width="17" height="18" viewBox="0 0 17 18"><path fill="#2D2D2D" fill-rule="evenodd" d="M9.775.198c.872 0 1.566.68 1.566 1.536v.856h5.055c.246 0 .47.198.47.44a.445.445 0 0 1-.448.438h-1.342L14.092 16.2c-.067.922-.85 1.624-1.79 1.624H4.497c-.94 0-1.722-.724-1.79-1.624L1.723 3.468H.604a.445.445 0 0 1-.447-.439c0-.241.2-.439.447-.439h4.832v-.856C5.436.878 6.129.198 7 .198zm4.407 3.248H2.617l.984 12.666a.894.894 0 0 0 .895.812h7.784c.47 0 .85-.35.895-.812l1.007-12.666zM8.388 5.73c.246 0 .448.198.448.44v8.1a.445.445 0 0 1-.448.438.445.445 0 0 1-.447-.439v-8.1c0-.241.201-.439.447-.439zm2.93 0c.246.022.448.22.425.461l-.447 8.1a.44.44 0 0 1-.447.417h-.023c-.246-.022-.447-.22-.425-.46l.448-8.1a.461.461 0 0 1 .47-.418zm-5.86 0c.246 0 .447.176.47.417l.447 8.1a.46.46 0 0 1-.425.461h-.022a.44.44 0 0 1-.448-.417l-.447-8.1a.46.46 0 0 1 .425-.46zm4.34-4.653H7a.653.653 0 0 0-.67.658v.856h4.137v-.856a.653.653 0 0 0-.67-.658z"/></svg>