<svg xmlns="http://www.w3.org/2000/svg" width="32" height="32" viewBox="0 0 32 32">
    <g fill="none" fill-rule="evenodd">
        <path fill="#2D2D2D" d="M0 0H32V32H0z"/>
        <path fill="#FFF" fill-rule="nonzero" d="M9.762 10.438c.973 0 1.762-.77 1.762-1.719 0-.95-.789-1.719-1.762-1.719S8 7.77 8 8.72c0 .949.789 1.718 1.762 1.718zm6.238 0c.973 0 1.762-.77 1.762-1.719C17.762 7.77 16.973 7 16 7s-1.762.77-1.762 1.72c0 .949.789 1.718 1.762 1.718zm6.238 0c.973 0 1.762-.77 1.762-1.719C24 7.77 23.211 7 22.238 7s-1.762.77-1.762 1.72c0 .949.789 1.718 1.762 1.718zM9.762 15.292c.973 0 1.762-.77 1.762-1.719 0-.95-.789-1.72-1.762-1.72S8 12.624 8 13.574s.789 1.72 1.762 1.72zm6.238 0c.973 0 1.762-.77 1.762-1.719 0-.95-.789-1.72-1.762-1.72s-1.762.77-1.762 1.72.789 1.72 1.762 1.72zm6.238 0c.973 0 1.762-.77 1.762-1.719 0-.95-.789-1.72-1.762-1.72s-1.762.77-1.762 1.72.789 1.72 1.762 1.72zM9.762 20.146c.973 0 1.762-.77 1.762-1.719 0-.95-.789-1.72-1.762-1.72S8 17.478 8 18.428s.789 1.72 1.762 1.72zM16 25c.973 0 1.762-.77 1.762-1.72 0-.949-.789-1.718-1.762-1.718s-1.762.77-1.762 1.719c0 .95.789 1.719 1.762 1.719zm0-4.854c.973 0 1.762-.77 1.762-1.719 0-.95-.789-1.72-1.762-1.72s-1.762.77-1.762 1.72.789 1.72 1.762 1.72zm6.238 0c.973 0 1.762-.77 1.762-1.719 0-.95-.789-1.72-1.762-1.72s-1.762.77-1.762 1.72.789 1.72 1.762 1.72z"/>
    </g>
</svg>
