<svg xmlns="http://www.w3.org/2000/svg" width="16" height="18" fill="none" viewBox="0 0 16 18"><path fill="#fff" fill-rule="evenodd" d="M1.76203 3.4382C2.73517 3.4382 3.52405 2.66853 3.52405 1.7191C3.52405 0.769668 2.73517 0 1.76203 0C0.788886 0 0 0.769668 0 1.7191C0 2.66853 0.788886 3.4382 1.76203 3.4382ZM8 3.4382C8.97314 3.4382 9.76203 2.66853 9.76203 1.7191C9.76203 0.769668 8.97314 0 8 0C7.02686 0 6.23797 0.769668 6.23797 1.7191C6.23797 2.66853 7.02686 3.4382 8 3.4382ZM16 1.7191C16 2.66853 15.2111 3.4382 14.238 3.4382C13.2648 3.4382 12.4759 2.66853 12.4759 1.7191C12.4759 0.769668 13.2648 0 14.238 0C15.2111 0 16 0.769668 16 1.7191ZM1.76203 8.29213C2.73517 8.29213 3.52405 7.52247 3.52405 6.57303C3.52405 5.6236 2.73517 4.85393 1.76203 4.85393C0.788886 4.85393 0 5.6236 0 6.57303C0 7.52247 0.788886 8.29213 1.76203 8.29213ZM9.76203 6.57303C9.76203 7.52247 8.97314 8.29213 8 8.29213C7.02686 8.29213 6.23797 7.52247 6.23797 6.57303C6.23797 5.6236 7.02686 4.85393 8 4.85393C8.97314 4.85393 9.76203 5.6236 9.76203 6.57303ZM14.238 8.29213C15.2111 8.29213 16 7.52247 16 6.57303C16 5.6236 15.2111 4.85393 14.238 4.85393C13.2648 4.85393 12.4759 5.6236 12.4759 6.57303C12.4759 7.52247 13.2648 8.29213 14.238 8.29213ZM3.52405 11.427C3.52405 12.3764 2.73517 13.1461 1.76203 13.1461C0.788886 13.1461 0 12.3764 0 11.427C0 10.4775 0.788886 9.70786 1.76203 9.70786C2.73517 9.70786 3.52405 10.4775 3.52405 11.427ZM8 18C8.97314 18 9.76203 17.2303 9.76203 16.2809C9.76203 15.3315 8.97314 14.5618 8 14.5618C7.02686 14.5618 6.23797 15.3315 6.23797 16.2809C6.23797 17.2303 7.02686 18 8 18ZM9.76203 11.427C9.76203 12.3764 8.97314 13.1461 8 13.1461C7.02686 13.1461 6.23797 12.3764 6.23797 11.427C6.23797 10.4775 7.02686 9.70786 8 9.70786C8.97314 9.70786 9.76203 10.4775 9.76203 11.427ZM14.238 13.1461C15.2111 13.1461 16 12.3764 16 11.427C16 10.4775 15.2111 9.70786 14.238 9.70786C13.2648 9.70786 12.4759 10.4775 12.4759 11.427C12.4759 12.3764 13.2648 13.1461 14.238 13.1461Z" clip-rule="evenodd"/></svg>