<!-- Donate by Josy Dom Alexis from the Noun Project -->
<svg xmlns="http://www.w3.org/2000/svg" xmlns:xlink="http://www.w3.org/1999/xlink" version="1.1" x="0px" y="0px" viewBox="0 0 42 52.5" style="enable-background:new 0 0 42 42;" xml:space="preserve"><path d="M25,22c5,0,9-4,9-9s-4-9-9-9c-5,0-9,4-9,9S20,22,25,22z M25,6c3.9,0,7,3.1,7,7s-3.1,7-7,7c-3.9,0-7-3.1-7-7  S21.1,6,25,6z"/><path d="M25.5,15H23c-0.6,0-1,0.4-1,1s0.4,1,1,1h1c0,0.6,0.4,1,1,1s1-0.4,1-1v-0.1c1.1-0.2,2-1.2,2-2.4  c0-1.4-1.1-2.5-2.5-2.5h-1c-0.3,0-0.5-0.2-0.5-0.5s0.2-0.5,0.5-0.5H27c0.6,0,1-0.4,1-1s-0.4-1-1-1h-1c0-0.6-0.4-1-1-1s-1,0.4-1,1  v0.1c-1.1,0.2-2,1.2-2,2.4c0,1.4,1.1,2.5,2.5,2.5h1c0.3,0,0.5,0.2,0.5,0.5S25.8,15,25.5,15z"/><path d="M36,27.4c-0.6-0.5-1.4-0.6-2.3-0.4c-1.7,0.4-5.4,1.1-7.7,1.6c0.2-0.5,0.3-1.1,0.1-1.7  c-0.2-0.8-0.6-1.4-1.3-1.8l-3.6-2.3c0,0-0.1-0.1-0.1-0.1c-2.7-1.2-5.8-1-8.3,0.4L11,24.3V23c0-0.3-0.1-0.6-0.4-0.8  C10.4,22,10.1,22,9.8,22l-4,1c-0.5,0.1-0.9,0.7-0.7,1.2c0.1,0.5,0.7,0.9,1.2,0.7L9,24.3v9.9L5.8,35c-0.5,0.1-0.9,0.7-0.7,1.2  C5.1,36.7,5.6,37,6,37c0.1,0,0.2,0,0.2,0l4-1c0.4-0.1,0.8-0.5,0.8-1v-1.2l2.3-0.6c0.4-0.1,0.9-0.1,1.3,0.1l7.2,3.2  c0.4,0.2,0.9,0.3,1.3,0.3c0.4,0,0.8-0.1,1.2-0.2L35.3,32c0.6-0.2,1.7-1,1.7-2.5C37,28.7,36.6,27.9,36,27.4z M34.6,30.1l-11.1,4.6  c-0.3,0.1-0.6,0.1-0.9,0l-7.2-3.2c-0.8-0.4-1.7-0.4-2.5-0.2L11,31.7v-5.1l2.9-1.7c2-1.1,4.3-1.3,6.4-0.4l3.5,2.2  c0.2,0.1,0.3,0.3,0.4,0.6s0,0.5-0.1,0.7c-0.3,0.4-0.7,0.5-1.1,0.3l0,0l-2.5-1.3c-0.5-0.2-1.1,0-1.3,0.4c-0.2,0.5,0,1.1,0.4,1.3l4,2  c0.1,0,0.2,0.1,0.3,0.1c0.5,0.1,9.3-1.7,10.4-2c0.2-0.1,0.4,0,0.6,0c0.1,0.1,0.2,0.3,0.2,0.5C35,29.9,34.8,30,34.6,30.1z"/><text x="0" y="57" fill="#000000" font-size="5px" font-weight="bold" font-family="'Helvetica Neue', Helvetica, Arial-Unicode, Arial, Sans-serif">Created by Josy Dom Alexis</text><text x="0" y="62" fill="#000000" font-size="5px" font-weight="bold" font-family="'Helvetica Neue', Helvetica, Arial-Unicode, Arial, Sans-serif">from the Noun Project</text></svg>
