<svg xmlns="http://www.w3.org/2000/svg" width="20" height="19" viewBox="0 0 20 19"><path fill="#2D2D2D" fill-rule="evenodd" d="M.573 9c.318 0 .573.266.573.598v5.527c0 1.475 1.15 2.68 2.568 2.68h12.572c1.413 0 2.568-1.2 2.568-2.68V9.686c0-.332.255-.597.573-.597.318 0 .573.27.573.597v5.439C20 17.26 18.336 19 16.286 19H3.714C1.668 19 0 17.264 0 15.125V9.598C0 9.266.255 9 .573 9zm9.429-9c.302 0 .544.252.544.567v11.498l2.525-2.637a.527.527 0 0 1 .769 0 .582.582 0 0 1 0 .802l-3.455 3.602a.52.52 0 0 1-.766 0L6.16 10.23a.582.582 0 0 1 0-.802.527.527 0 0 1 .77 0l2.528 2.637V.567c0-.315.242-.567.544-.567z"/></svg>