<svg xmlns="http://www.w3.org/2000/svg" width="15" height="25"><g><title>background</title><rect id="canvas_background" width="17" height="27" x="-1" y="-1" fill="none"/></g><g><title>Layer 1</title><g id="svg_4"><path id="svg_1" fill="#818181" d="m-2.81081,11.081082c1.105,0 2,0.895 2,2s-0.895,2 -2,2s-2,-0.895 -2,-2s0.895,-2 2,-2zm7,0c1.105,0 2,0.895 2,2s-0.895,2 -2,2s-2,-0.895 -2,-2s0.895,-2 2,-2zm7,0c1.105,0 2,0.895 2,2s-0.895,2 -2,2s-2,-0.895 -2,-2s0.895,-2 2,-2z" transform="rotate(-90 4.189189910888673,13.081082344055176)"/><path id="svg_2" fill="#818181" d="m3.810812,11.081081c1.105,0 2,0.895 2,2s-0.895,2 -2,2s-2,-0.895 -2,-2s0.895,-2 2,-2zm7,0c1.105,0 2,0.895 2,2s-0.895,2 -2,2s-2,-0.895 -2,-2s0.895,-2 2,-2zm7,0c1.105,0 2,0.895 2,2s-0.895,2 -2,2s-2,-0.895 -2,-2s0.895,-2 2,-2z" transform="rotate(-90 10.810811042785646,13.081082344055176)"/></g></g></svg>