<svg width="15" height="25" xmlns="http://www.w3.org/2000/svg">
  <g>
    <title>background</title>
    <rect fill="none" id="canvas_background" height="27" width="17" y="-1" x="-1"/>
  </g>
  <g>
    <title>Layer 1</title>
    <g id="svg_4">
      <path transform="rotate(-90 4.189189910888673,13.081082344055176) " id="svg_1" d="m-2.81081,11.081082c1.105,0 2,0.895 2,2s-0.895,2 -2,2s-2,-0.895 -2,-2s0.895,-2 2,-2zm7,0c1.105,0 2,0.895 2,2s-0.895,2 -2,2s-2,-0.895 -2,-2s0.895,-2 2,-2zm7,0c1.105,0 2,0.895 2,2s-0.895,2 -2,2s-2,-0.895 -2,-2s0.895,-2 2,-2z" fill="#818181"/>
      <path transform="rotate(-90 10.810811042785646,13.081082344055176) " id="svg_2" d="m3.810812,11.081081c1.105,0 2,0.895 2,2s-0.895,2 -2,2s-2,-0.895 -2,-2s0.895,-2 2,-2zm7,0c1.105,0 2,0.895 2,2s-0.895,2 -2,2s-2,-0.895 -2,-2s0.895,-2 2,-2zm7,0c1.105,0 2,0.895 2,2s-0.895,2 -2,2s-2,-0.895 -2,-2s0.895,-2 2,-2z" fill="#818181"/>
    </g>
  </g>
</svg>
