<svg xmlns="http://www.w3.org/2000/svg" width="13" height="13" viewBox="0 0 13 13"><path fill="#B8B8B8" d="M12.128 3.237c-.58-.996-1.37-1.784-2.365-2.365C8.767.29 7.68 0 6.5 0 5.32 0 4.233.29 3.237.872c-.995.58-1.784 1.37-2.365 2.365C.29 4.233 0 5.321 0 6.5c0 1.18.29 2.267.872 3.263.581.995 1.37 1.784 2.365 2.365.996.581 2.084.872 3.263.872 1.18 0 2.267-.29 3.263-.872.996-.58 1.784-1.37 2.365-2.365C12.71 8.767 13 7.679 13 6.5c0-1.18-.29-2.267-.872-3.263zM7.313 9.92c-.057-.068-.076-.124-.06-.17-.005.029-.025.054-.058.077-.029-.034-.08-.076-.153-.127-.073-.051-.124-.093-.152-.127L6.843 9.5l-.076-.123c-.03-.05-.053-.095-.067-.131-.014-.037-.016-.058-.005-.064-.107.046-.262.015-.465-.093-.04-.022-.099-.082-.178-.177-.079-.096-.16-.139-.245-.127-.028.005-.067.015-.115.03-.047.013-.088.02-.122.02s-.08-.01-.136-.034c-.045-.016-.105-.05-.182-.097-.076-.048-.128-.078-.156-.089l-.11-.059-.136-.068c-.033-.016-.069-.043-.105-.08-.037-.037-.061-.075-.072-.114-.012-.034-.026-.102-.043-.203-.017-.102-.04-.175-.067-.22-.034-.057-.082-.113-.144-.17-.062-.056-.119-.084-.17-.084.046 0 .046-.038 0-.115-.045-.076-.084-.13-.118-.165-.011-.01-.045-.048-.102-.11l-.143-.16c-.04-.046-.074-.098-.102-.157-.028-.06-.034-.109-.017-.148.006-.006 0-.014-.017-.026-.017-.01-.038-.022-.063-.034l-.072-.03c-.023-.008-.04-.012-.051-.012.011.023.024.064.038.123.014.06.03.103.047.131.011.023.059.105.143.246.147.237.215.412.204.524-.034.012-.057.006-.068-.016-.011-.023-.02-.054-.025-.094-.006-.039-.012-.067-.017-.084-.017-.034-.061-.07-.132-.11-.07-.04-.114-.08-.13-.119.005 0 .012-.002.02-.008.009-.006.016-.009.021-.009.006-.05-.023-.115-.088-.194-.065-.08-.092-.136-.08-.17-.046-.034-.085-.1-.12-.198-.033-.1-.061-.163-.084-.191-.022-.034-.05-.063-.085-.089-.033-.025-.076-.053-.126-.084l-.102-.064c-.011-.005-.034-.03-.068-.076-.186-.226-.242-.347-.169-.364-.073.017-.134-.038-.182-.165-.048-.127-.063-.224-.047-.292l-.016-.008c.005-.023.008-.09.008-.2 0-.11.007-.21.021-.3.014-.09.041-.135.08-.135-.039.005-.068-.03-.088-.106-.02-.076-.021-.129-.004-.157.005-.017.03-.005.076.034.045.04.07.065.076.076.073-.04.101-.09.085-.152-.012-.023-.071-.082-.178-.178-.243-.158-.367-.234-.373-.228.034-.062.026-.116-.025-.161-.056.034-.089.042-.097.025-.009-.017-.016-.048-.022-.093-.005-.045-.02-.07-.042-.076-.028-.006-.062-.028-.101-.068.502-.8 1.165-1.427 1.989-1.879.033-.005.095-.008.186-.008.045.006.087.02.127.042.04.023.08.054.122.093.043.04.075.068.098.085.01-.034-.003-.085-.043-.153.012-.033.074-.067.186-.101.13-.017.215-.014.254.008-.033-.05-.09-.12-.169-.211l-.042.042c-.045-.04-.164-.02-.356.06-.01.005-.04.02-.084.046-.045.025-.082.044-.11.055-.034.011-.068.014-.102.008.271-.146.536-.262.796-.347.017.011.045.035.084.072.04.037.07.064.093.08-.016-.01-.028-.005-.033.017-.023.068-.023.125 0 .17.028.04.066.062.114.067.048.006.106.003.173-.008.068-.011.113-.017.136-.017l.084.008c.181.017.252 0 .212-.05.017.022.037.069.06.14.022.07.047.12.075.148.029-.023.034-.063.017-.119-.017-.056-.017-.096 0-.119.006-.01.023-.022.051-.033l.097-.038.073-.03c.033-.023.01-.062-.068-.119-.012-.005-.035-.014-.072-.025-.037-.011-.07-.023-.097-.034-.029-.011-.058-.027-.09-.046-.03-.02-.044-.043-.042-.068.003-.026.019-.058.047-.097.034-.029.089-.04.165-.034.076.005.134.02.173.042.153.085.175.161.068.229.057.005.124.028.203.067.08.04.11.082.093.127.046-.084.09-.127.136-.127.028.006.055.044.08.115.026.07.041.108.047.114.045.062.09.076.135.042.045-.034.092-.083.14-.148.048-.065.074-.094.08-.089-.056-.022-.062-.045-.017-.068.085-.05.161-.064.229-.042.017.011.04.037.067.076.051.102.043.15-.025.144.05.045.072.102.064.17-.009.067-.053.098-.132.093-.028 0-.069-.015-.123-.043-.053-.028-.094-.043-.122-.046-.029-.003-.068.012-.119.046-.023.029-.052.077-.089.144-.037.068-.069.116-.097.144-.085.085-.226.116-.423.093.016 0 .015.017-.005.05-.02.035-.046.073-.08.115l-.06.072c-.05.056-.084.121-.1.195l-.01.114c-.005.065-.016.114-.033.148.067-.017.121.017.16.102.034.079.034.121 0 .127.187-.028.35-.017.492.034.203.073.318.146.347.22.033-.051.115-.054.245-.009.05.028.096.113.135.254.023.085.061.158.115.22.053.062.111.079.173.05l.026-.016.055-.03c.014-.008.03-.02.046-.034.017-.014.027-.026.03-.038.002-.01-.002-.022-.013-.033-.04-.034-.07-.08-.089-.14-.02-.06-.015-.112.013-.157.017-.022.062-.056.135-.101.074-.046.119-.09.136-.136.023-.073-.006-.134-.085-.182-.079-.048-.118-.091-.118-.131 0-.028.018-.062.055-.102.036-.039.052-.076.046-.11 0-.017-.01-.052-.03-.105-.02-.054-.03-.094-.033-.119-.003-.025.01-.055.038-.089.04-.022.132-.021.279.004.147.026.243.053.288.08.017.012.053.029.11.052.056.022.106.046.148.071.042.026.066.05.072.072h-.042c.04.034.063.074.071.119.009.045-.012.079-.063.102.034-.006.08.002.136.025.09.034.093.065.008.093.017-.006.04-.011.072-.017.03-.006.055-.014.072-.025.01-.006.025-.016.042-.03.017-.014.03-.023.038-.025L9.073 3c.017-.003.034.002.05.013.007 0 .02-.014.039-.042.02-.029.04-.057.063-.085.023-.028.043-.042.06-.042.016 0 .032.007.046.02.014.015.025.03.034.047l.025.055.021.047c.011.028.038.058.08.089.043.03.07.06.08.089.007.016.018.059.035.127.017.067.04.114.067.14.029.025.07.046.127.063.012.005.037.002.076-.009.04-.011.072-.014.098-.008.025.005.038.028.038.067.034-.033.05-.056.05-.067.006.073.024.132.056.177.03.046.08.065.148.06l-.017.186c-.017.028-.06.05-.127.063-.068.014-.11.027-.127.038-.017.006-.058.04-.123.102-.065.062-.092.099-.08.11-.096-.107-.24-.138-.432-.093-.214.034-.361.068-.44.102-.09.045-.152.087-.186.126-.006.006-.016.026-.03.06-.014.034-.028.065-.042.093-.014.028-.027.042-.038.042.034-.005.072-.032.114-.08.043-.048.07-.075.08-.08.147-.096.268-.13.365-.101.124.033.144.079.06.135-.012.011-.042.015-.09.013-.048-.003-.08-.002-.097.004.05.011.093.027.127.046.034.02.042.047.025.08.09.052.108.108.051.17-.073.074-.16.104-.262.093.017 0 .017.012 0 .034l-.144.093c-.011.006-.048.02-.11.042-.062.023-.105.048-.127.077-.017.022-.025.056-.025.101 0 .045-.003.08-.009.102-.006.023-.028.028-.068.017-.017.034-.069.06-.156.08-.088.02-.145.05-.174.089.034.045.031.09-.008.135-.068.057-.127.051-.178-.017-.028.012-.05.04-.063.085-.014.045-.036.076-.064.093.04.062.034.108-.017.136.006 0 .019.005.038.017.02.01.041.025.064.042.022.017.036.025.042.025-.022.051-.054.076-.093.076.034.09-.008.19-.127.297-.023.022-.058.045-.106.067-.048.023-.092.041-.131.055-.04.014-.062.024-.068.03-.056.05-.099.103-.127.156-.028.054-.032.106-.012.157.02.051.071.085.156.102l.008.067v.153l.009.067c.006.04.01.075.013.106.003.031.003.07 0 .119-.003.048-.016.075-.038.08-.023.006-.054 0-.093-.017-.046-.022-.1-.147-.161-.372-.012-.057-.046-.124-.102-.203-.028.028-.052.046-.072.055-.02.008-.034.01-.042.004s-.024-.018-.047-.038c-.022-.02-.042-.035-.059-.047-.028-.016-.077-.03-.148-.042-.07-.011-.114-.025-.131-.042-.136.102-.217.076-.246-.076-.01.028-.01.066.005.114.014.048.02.075.02.08-.039.074-.1.08-.185.017-.034-.033-.112-.038-.233-.012-.121.025-.202.03-.241.012.005 0 .017.009.034.026.016.01.028.02.033.025-.005.023-.014.04-.025.05-.011.012-.023.016-.034.014-.011-.003-.024-.003-.038 0-.014.002-.027.006-.038.012-.023.017-.05.047-.085.089-.034.042-.059.069-.076.08.034.09.05.16.047.208-.003.048-.012.118-.026.211-.014.093-.021.168-.021.225 0 .09.027.194.08.313.054.118.117.2.19.245.04.023.108.037.204.042.096.006.164 0 .203-.017.034-.016.06-.036.076-.059.017-.022.031-.055.043-.097.01-.042.02-.072.025-.089.04-.107.113-.163.22-.17.068-.005.117.002.148.022.031.02.044.046.038.08-.006.034-.017.07-.034.106-.017.037-.038.078-.063.123s-.041.08-.046.102c-.012.045-.022.108-.03.19-.009.082-.016.131-.021.148.011.006.053.009.127.009 0-.011.004-.03.012-.055.009-.026.013-.041.013-.047.028.046.073.07.135.076.063.006.108-.016.136-.067.011.017.045.06.102.127.056.067.087.124.093.17.005.022.017.058.033.11.018.05.023.085.018.105-.006.02-.034.03-.085.03-.023 0-.037.008-.042.025-.006.017-.006.038 0 .063.005.026.013.05.02.072.01.023.02.047.035.072.014.025.02.041.02.047.102.186.24.237.416.152 0 .164-.04.254-.12.27-.044.012-.094-.017-.15-.084zm.127 1.912c-.012-.056-.017-.101-.017-.135-.006-.045.014-.106.06-.182.045-.076.067-.134.067-.174-.09-.022-.124-.096-.102-.22.012-.084.093-.197.246-.338.107-.096.14-.232.101-.406-.017-.074-.03-.181-.042-.322-.011-.141-.023-.24-.034-.296 0 .016.027.032.08.046.054.014.087.032.098.055.011-.017.025-.048.042-.093s.034-.08.05-.102c.012-.017.036-.038.073-.063.037-.026.06-.041.072-.047.01-.005.036-.024.076-.055.04-.03.072-.055.097-.072.026-.016.06-.03.102-.037.042-.009.072.004.089.037.028.034.022.086-.017.157-.04.07-.04.12 0 .148.005-.017.011-.053.017-.11.005-.056.022-.099.05-.127.034-.034.067-.054.098-.059.03-.006.059-.002.084.013.026.014.055.033.089.059.034.025.065.04.093.046.085.028.186.09.305.187-.006-.006-.006-.013 0-.022.006-.008.017-.017.034-.025s.032-.017.046-.025c.014-.009.03-.016.047-.021l.025-.009c.04 0 .068-.003.085-.009.016-.005.04 0 .072.018.03.016.052.029.063.038l.06.046.058.05.093.06c.045.028.08.05.106.068.026.016.048.042.068.075.02.035.027.071.021.11.034.006.101.029.203.068.017.011.052.022.106.03s.089.021.106.038c-.818.864-1.808 1.397-2.97 1.6z"/></svg>