<svg xmlns="http://www.w3.org/2000/svg" width="14" height="14" viewBox="0 0 14 14"><path fill="#2D2D2D" fill-rule="evenodd" d="M11.026-.177c.46 0 .9.186 1.216.511l.818.819a1.7 1.7 0 0 1 .005 2.437L3.37 13.27a.5.5 0 0 1-.285.141l-2.916.4a.5.5 0 0 1-.564-.558l.368-2.916a.5.5 0 0 1 .142-.29L9.804.34a1.7 1.7 0 0 1 1.222-.517zM13.9 12.8a.5.5 0 1 1 0 1H6.2a.5.5 0 1 1 0-1zM11.026.823a.705.705 0 0 0-.508.218l-.785.785.62.62a.5.5 0 0 1 .058.638l-.057.07a.5.5 0 0 1-.708 0l-.62-.62-8.083 8.098-.265 2.1 2.104-.289 9.582-9.566a.7.7 0 0 0-.006-1.011l-.83-.83a.7.7 0 0 0-.502-.213z"/></svg>