<svg xmlns="http://www.w3.org/2000/svg" width="20" height="20" fill="none" viewBox="0 0 20 20"><path fill="#fff" d="M10 1.875C8.39303 1.875 6.82214 2.35152 5.486 3.24431C4.14985 4.1371 3.10844 5.40605 2.49348 6.8907C1.87852 8.37535 1.71762 10.009 2.03112 11.5851C2.34463 13.1612 3.11846 14.6089 4.25476 15.7452C5.39106 16.8815 6.8388 17.6554 8.4149 17.9689C9.99099 18.2824 11.6247 18.1215 13.1093 17.5065C14.594 16.8916 15.8629 15.8502 16.7557 14.514C17.6485 13.1779 18.125 11.607 18.125 10C18.1226 7.84586 17.2658 5.78065 15.7426 4.25745C14.2193 2.73425 12.1541 1.87744 10 1.875ZM10 15C9.81463 15 9.63337 14.945 9.4792 14.842C9.32503 14.739 9.20487 14.5926 9.13391 14.4213C9.06295 14.25 9.04439 14.0615 9.08056 13.8796C9.11673 13.6978 9.20602 13.5307 9.33713 13.3996C9.46825 13.2685 9.63529 13.1792 9.81715 13.143C9.99901 13.1069 10.1875 13.1254 10.3588 13.1964C10.5301 13.2673 10.6765 13.3875 10.7795 13.5417C10.8826 13.6959 10.9375 13.8771 10.9375 14.0625C10.9375 14.3112 10.8388 14.5496 10.663 14.7254C10.4871 14.9013 10.2487 15 10 15ZM10.625 11.1804V11.2504C10.625 11.4161 10.5592 11.5751 10.4419 11.6923C10.3247 11.8095 10.1658 11.8754 10 11.8754C9.83425 11.8754 9.67528 11.8095 9.55807 11.6923C9.44086 11.5751 9.37501 11.4161 9.37501 11.2504V10.6254C9.37502 10.4596 9.44087 10.3007 9.55807 10.1834C9.67528 10.0662 9.83425 10.0004 10 10.0004C10.309 10.0004 10.6111 9.90874 10.8681 9.73705C11.125 9.56536 11.3253 9.32133 11.4436 9.03582C11.5618 8.75032 11.5928 8.43615 11.5325 8.13305C11.4722 7.82996 11.3234 7.55155 11.1049 7.33303C10.8863 7.11451 10.6079 6.96569 10.3048 6.9054C10.0017 6.84511 9.68757 6.87606 9.40206 6.99432C9.11656 7.11258 8.87253 7.31285 8.70084 7.5698C8.52915 7.82675 8.43751 8.12885 8.43751 8.43788C8.43751 8.60364 8.37166 8.76261 8.25445 8.87982C8.13724 8.99703 7.97827 9.06288 7.81251 9.06288C7.64675 9.06288 7.48778 8.99703 7.37057 8.87982C7.25336 8.76261 7.18751 8.60364 7.18751 8.43788C7.18758 7.90845 7.33708 7.38979 7.61882 6.94154C7.90057 6.4933 8.30311 6.13369 8.78015 5.90406C9.25719 5.67443 9.78936 5.58411 10.3155 5.64349C10.8415 5.70287 11.3402 5.90954 11.7541 6.23972C12.1679 6.56991 12.4802 7.0102 12.6549 7.50997C12.8296 8.00973 12.8598 8.54867 12.7418 9.0648C12.6239 9.58093 12.3627 10.0533 11.9882 10.4275C11.6137 10.8018 11.1412 11.0628 10.625 11.1804Z"/></svg>