<svg xmlns="http://www.w3.org/2000/svg" width="18" height="17" viewBox="0 0 18 17"><path fill="#616161" d="M8.929.005c.368 0 .666.29.666.647V2.04c1.055.287 1.784 1.221 1.784 2.285S10.65 6.323 9.595 6.61v9.395c0 .358-.298.648-.666.648-.369 0-.667-.29-.667-.648V6.61c-1.053-.29-1.78-1.222-1.781-2.285.001-1.063.728-1.996 1.78-2.285V.652c0-.357.3-.647.668-.647zM2.695 0c.368 0 .667.29.667.648v9.395c1.053.29 1.78 1.222 1.78 2.285 0 1.063-.727 1.996-1.78 2.285v1.388c0 .357-.299.647-.667.647-.368 0-.666-.29-.666-.647v-1.388C.974 14.326.244 13.393.244 12.328c0-1.064.73-1.998 1.785-2.285V.648c0-.358.298-.648.666-.648zm12.467 0c.368 0 .667.29.667.648v9.395c1.052.29 1.78 1.222 1.78 2.285 0 1.063-.728 1.996-1.78 2.285v1.388c0 .231-.127.445-.334.56-.206.116-.46.116-.666 0-.207-.115-.334-.329-.334-.56v-1.388c-1.055-.287-1.784-1.22-1.784-2.285 0-1.064.73-1.998 1.784-2.285V.648c0-.358.299-.648.667-.648zM2.695 11.25c-.615 0-1.114.485-1.114 1.083 0 .597.499 1.082 1.114 1.082.616 0 1.115-.485 1.115-1.082 0-.598-.5-1.083-1.115-1.083zm12.467 0c-.615 0-1.114.485-1.114 1.083 0 .597.499 1.082 1.114 1.082.615 0 1.114-.485 1.114-1.082 0-.598-.499-1.083-1.114-1.083zM8.929 3.238c-.616 0-1.115.485-1.115 1.083 0 .597.5 1.082 1.115 1.082s1.114-.485 1.114-1.082c0-.598-.499-1.083-1.114-1.083z"/></svg>