<svg xmlns="http://www.w3.org/2000/svg" width="181.333" height="176" preserveAspectRatio="xMidYMid meet" version="1.0" viewBox="0 0 136 132"><metadata>Created by potrace 1.15, written by Peter Selinger 2001-2017</metadata><g fill="#2D2D2D" stroke="none"><path d="M268 1216 c-22 -21 -32 -313 -26 -740 5 -342 7 -364 47 -386 15 -7 25 -5 43 9 22 19 23 24 26 204 l4 184 81 7 c45 3 223 6 395 6 l312 0 0 34 c0 46 -11 73 -77 189 -30 54 -55 108 -55 120 0 12 20 54 44 92 89 138 110 204 75 230 -20 14 -237 25 -531 25 -164 1 -220 4 -251 16 -67 26 -71 26 -87 10z m739 -139 c13 -8 -18 -78 -86 -192 l-30 -51 60 -103 c33 -56 58 -108 56 -115 -8 -22 -69 -26 -364 -26 l-283 0 0 193 c0 105 3 215 6 244 6 46 10 52 33 56 46 8 596 2 608 -6z" transform="translate(0.000000,132.000000) scale(0.100000,-0.100000)"/></g></svg>