<svg xmlns="http://www.w3.org/2000/svg" width="136" height="132" preserveAspectRatio="xMidYMid meet">
  <metadata>Created by potrace 1.15, written by Peter Selinger 2001-2017</metadata>

  <g>
    <title>background</title>
    <rect fill="none" id="canvas_background" height="402" width="582" y="-1" x="-1"/>
  </g>
  <g>
    <title>Layer 1</title>
    <g id="svg_1" fill="#2D2D2D" transform="translate(0,132) scale(0.10000000149011612,-0.10000000149011612) ">
      <path stroke="null" id="svg_2" d="m263.279084,1216.293112c-18.44186,-11.346026 -21.279069,-87.931703 -21.279069,-553.118777c0,-519.080699 1.418605,-541.772751 26.953487,-561.628297c35.465115,-25.528559 43.976743,-25.528559 70.93023,2.836507c18.44186,17.019039 22.697674,58.148384 22.697674,205.646725l0,182.954673l394.37208,2.836507l392.953475,4.25476l4.255814,39.711092c2.837209,28.365066 -17.023255,75.167424 -66.674416,160.26262c-39.720929,65.239651 -72.348835,129.061048 -72.348835,141.825328c0,12.764279 11.348837,39.711092 26.953487,59.566638c60.999998,87.931703 114.906973,190.045939 114.906973,222.665764c0,19.855546 -11.348837,41.129345 -26.953487,49.638865c-17.023255,8.50952 -168.813948,14.182533 -394.37208,14.182533c-300.744176,0 -373.093011,4.25476 -395.790685,21.273799c-31.209301,24.110306 -48.232557,25.528559 -76.604649,7.091266zm751.86044,-148.916594c0,-11.346026 -28.372092,-68.076157 -62.418603,-126.224542l-62.418603,-104.950742l38.302324,-69.49441c21.279069,-38.292838 49.651161,-85.095197 62.418603,-103.532489c49.651161,-70.912664 48.232557,-70.912664 -302.162781,-70.912664l-326.279059,0l0,238.26655c0,131.897555 4.255814,243.939563 9.930232,248.194323c4.255814,5.673013 151.790693,9.927773 326.279059,9.927773c269.534875,0 316.348827,-2.836507 316.348827,-21.273799z"/>
    </g>
  </g>
</svg>
