<svg xmlns="http://www.w3.org/2000/svg" width="15" height="19" viewBox="0 0 15 19"><path fill="#2D2D2D" fill-rule="evenodd" d="M10.45.778l.034.014 4.346 4.31-.05 1.107-.838-.05.014-.661H9.922V1.655l-8.083-.049-.05 15.813 12.153.05.05-7.982.838.05-.05 8.76-13.828-.05.05-17.468h9.447zm1.056 13.425v.777H4.453v-.777h7.053zm.115-2.392v.777H4.524v-.777h7.097zm-.092-2.212v.777H4.475V9.6h7.054zm.081-2.295v.777H4.425v-.777h7.185zM7.184 4.885v.777H4.428v-.777h2.756zm6.029-.164l-2.504-2.485V4.72h2.504z"/></svg>