<svg xmlns="http://www.w3.org/2000/svg" width="33" height="33" viewBox="0 0 33 33"><path fill="#2D2D2D" fill-rule="nonzero" d="M23.217 9.782a.452.452 0 0 1-.64.64 8.596 8.596 0 1 0 1.306 1.674.452.452 0 0 1 .777-.463 9.504 9.504 0 0 1-1.443 11.584 9.5 9.5 0 1 1 0-13.435zm-6.158 10.63v1.117H15.94v-1.117h1.118zM16.564 12c.737 0 1.327.235 1.77.707.444.472.665 1.074.665 1.806 0 .445-.082.805-.244 1.081-.162.277-.49.683-.984 1.22-.36.39-.592.72-.699.99-.091.23-.144.557-.157.978l-.003.218h-.999c0-.599.064-1.082.19-1.448.112-.321.339-.683.682-1.085l.155-.175.449-.497c.134-.142.242-.292.324-.446.15-.273.225-.555.225-.848 0-.41-.109-.766-.328-1.068-.218-.302-.58-.453-1.086-.453-.625 0-1.057.26-1.296.779-.115.247-.188.589-.218 1.025l-.011.225h-1c0-.905.229-1.632.686-2.183.456-.55 1.083-.826 1.88-.826z"/></svg>