<svg xmlns="http://www.w3.org/2000/svg" width="13" height="17" viewBox="0 0 13 17"><path fill="#2D2D2D" fill-rule="evenodd" d="M9.027.85c.107 0 .208.035.28.087l.07.061 2.63 2.688c.068.07.113.158.132.247l.011.107v11.22c0 .49-.39.89-.873.89H1.723a.882.882 0 0 1-.873-.89V1.74c0-.49.39-.89.873-.89h7.304zm-.493 1.002H1.837v13.296h9.326V4.54H9.407a.88.88 0 0 1-.866-.778l-.007-.112V1.852zM6.63 12c.204 0 .369.224.369.5s-.165.5-.369.5H3.37C3.165 13 3 12.776 3 12.5s.165-.5.369-.5zm3.014-2c.196 0 .355.224.355.5s-.16.5-.355.5h-6.29C3.16 11 3 10.776 3 10.5s.16-.5.355-.5zm0-2c.196 0 .355.224.355.5s-.16.5-.355.5h-6.29C3.16 9 3 8.776 3 8.5s.16-.5.355-.5zm0-2.05c.228 0 .405.25.405.55 0 .3-.177.55-.405.55h-6.29c-.228 0-.405-.25-.405-.55 0-.3.177-.55.405-.55h6.29zM9.52 2.567v.971h.95l-.95-.97z"/></svg>