<svg xmlns="http://www.w3.org/2000/svg" width="20" height="20" fill="none" viewBox="0 0 20 20"><path fill="#fff" d="M17.091 8.10206L10.8405 2.41957C10.6109 2.20935 10.3109 2.09275 9.99957 2.09277C9.68827 2.09279 9.38827 2.20943 9.15872 2.41969L2.90925 8.10202C2.78049 8.21927 2.6776 8.36209 2.60715 8.52134C2.5367 8.6806 2.50024 8.85279 2.50008 9.02693V16.2219C2.4965 16.536 2.60795 16.8406 2.81342 17.0783C2.93047 17.2113 3.07462 17.3178 3.23619 17.3906C3.39776 17.4634 3.57302 17.5009 3.75024 17.5004H7.49734C7.6631 17.5004 7.82207 17.4346 7.93928 17.3173C8.05649 17.2001 8.12234 17.0412 8.12234 16.8754V13.1248C8.12234 12.9591 8.18819 12.8001 8.3054 12.6829C8.42261 12.5657 8.58158 12.4998 8.74734 12.4998H11.2473C11.4131 12.4998 11.5721 12.5657 11.6893 12.6829C11.8065 12.8001 11.8723 12.9591 11.8723 13.1248V16.8754C11.8723 17.0412 11.9382 17.2001 12.0554 17.3173C12.1726 17.4346 12.3316 17.5004 12.4973 17.5004H16.2518C16.4572 17.5031 16.6598 17.4532 16.8404 17.3554C17.0398 17.2478 17.2063 17.0883 17.3224 16.8938C17.4386 16.6993 17.5 16.477 17.5001 16.2504V9.02697C17.4999 8.85284 17.4635 8.68065 17.393 8.5214C17.3226 8.36215 17.2197 8.21933 17.091 8.10206Z"/></svg>