<svg xmlns="http://www.w3.org/2000/svg" width="22" height="22" viewBox="0 0 22 22"><path fill="#2D2D2D" fill-rule="evenodd" d="M18.425 3.575a.5.5 0 0 1-.707.707 9.5 9.5 0 1 0 0 13.436A9.504 9.504 0 0 0 19.16 6.133a.5.5 0 0 1 .859-.513 10.504 10.504 0 0 1-1.595 12.805c-4.1 4.1-10.75 4.1-14.85 0s-4.1-10.75 0-14.85 10.75-4.1 14.85 0zM11.296 14.57v1.385H9.971v-1.385h1.325zm-.525-8.523c.874 0 1.574.25 2.1.75.527.5.79 1.138.79 1.914 0 .47-.097.853-.29 1.145-.193.293-.582.724-1.168 1.292-.427.414-.703.763-.83 1.05-.126.286-.19.708-.19 1.268H9.999c0-.635.076-1.147.227-1.535.15-.39.48-.834.991-1.335l.533-.527c.16-.15.288-.309.386-.473.177-.289.266-.588.266-.899 0-.434-.13-.811-.39-1.131-.258-.32-.688-.48-1.287-.48-.742 0-1.255.275-1.539.825-.159.306-.25.748-.272 1.325H7.727c0-.959.271-1.73.813-2.313.542-.584 1.285-.876 2.23-.876z"/></svg>