<svg xmlns="http://www.w3.org/2000/svg" width="22" height="22" fill="none" viewBox="0 0 22 22"><path fill="#B8B8B8" fill-rule="evenodd" d="M11 22C17.0751 22 22 17.0751 22 11C22 4.92487 17.0751 0 11 0C4.92487 0 0 4.92487 0 11C0 17.0751 4.92487 22 11 22ZM12.3554 7.68603C12.7249 7.68603 13.0399 7.56312 13.3004 7.31731C13.5609 7.0715 13.6911 6.77424 13.6911 6.42553C13.6911 6.07683 13.5624 5.77957 13.305 5.53376C13.0475 5.28794 12.731 5.16504 12.3554 5.16504C11.9859 5.16504 11.6725 5.28794 11.415 5.53376C11.1576 5.77957 11.0288 6.07683 11.0288 6.42553C11.0288 6.77424 11.1591 7.0715 11.4195 7.31731C11.68 7.56312 11.992 7.68603 12.3554 7.68603ZM9.83853 17.2984C10.8683 17.2984 11.8405 16.5466 12.7552 15.0432L12.4463 14.8717C12.0647 15.4262 11.7376 15.8092 11.465 16.0207C11.362 16.1065 11.259 16.1493 11.156 16.1493C11.0955 16.1493 11.0379 16.1222 10.9834 16.0679C10.9289 16.0136 10.9016 15.955 10.9016 15.8921C10.9016 15.7835 10.9531 15.5548 11.0561 15.2061L12.9188 9.10944H12.3736L9.29335 9.58106L9.17523 9.92405C9.30243 9.91833 9.41147 9.91547 9.50233 9.91547C9.70223 9.91547 9.85973 9.96407 9.97482 10.0612C10.0899 10.1584 10.1475 10.2699 10.1475 10.3957C10.1475 10.5957 10.0869 10.893 9.96574 11.2874L8.70274 15.3862C8.59976 15.712 8.54827 15.9807 8.54827 16.1922C8.54827 16.5124 8.66488 16.7767 8.89809 16.9854C9.13131 17.194 9.44479 17.2984 9.83853 17.2984Z" clip-rule="evenodd"/></svg>