<svg width="1600" height="1600" viewBox="0 0 1600 1600" fill="none" xmlns="http://www.w3.org/2000/svg">
<path d="M416.359 1341.71C460.162 1396.15 525.963 1448.88 601.715 1448.88C644.808 1448.88 681.412 1428.6 720.75 1413.8C756.982 1400.44 795.289 1393.57 833.902 1393.52C871.156 1393.3 908.081 1400.54 942.5 1414.81C960.752 1422.52 978.799 1430.73 997.356 1437.83C1016.18 1445.09 1036.19 1448.84 1056.37 1448.88C1093.7 1448.45 1130.03 1436.75 1160.6 1415.32C1249.42 1354.48 1315.23 1247.61 1361.87 1154.03C1366.53 1144.7 1370.99 1135.27 1375.45 1125.94C1382.86 1110.32 1371.2 1090.55 1350.51 1079.2C1259.26 1029.11 1205.82 951.638 1196.9 844.77C1187.98 737.902 1229.55 653.542 1312.99 592.293L1329.42 578.808C1338.54 571.304 1333.58 550.518 1316.44 534.295C1253.32 472.14 1168.75 436.572 1080.19 434.928C1062.99 434.936 1045.83 436.36 1028.88 439.186C951.819 452.368 889.965 489.073 817.372 489.073C795.344 489.094 773.451 485.676 752.479 478.933C691.641 459.465 631.215 434.927 566.517 434.927C559.419 434.927 552.22 434.927 545.021 435.84C465.27 444.34 390.803 479.786 333.913 536.322C221.767 646.846 205.847 818.51 233.836 963.6C260.706 1104.14 326.816 1230.78 416.348 1341.7L416.359 1341.71Z" fill="black"/>
<path d="M809.881 434.934C811.33 435.06 812.792 435.06 814.241 434.934C1028.48 394.983 1051.91 229.504 1053.23 169.078C1053.32 164.139 1051.35 159.382 1047.79 155.96C1044.23 152.533 1039.4 150.746 1034.47 151.029C1032.66 151.029 1030.86 151.232 1029.1 151.638C812.724 201.726 790.206 357.77 789.601 416.077C789.702 421.294 791.92 426.25 795.743 429.807C799.567 433.36 804.666 435.21 809.879 434.936L809.881 434.934ZM1010.24 198.582C1001.62 260.027 966.029 354.628 832.193 389.108C840.305 331.414 874.373 239.952 1010.24 198.582Z" fill="black"/>
</svg>
