<?xml version="1.0" encoding="UTF-8"?>
<svg width="1200pt" height="1200pt" version="1.1" viewBox="0 0 1200 1200" xmlns="http://www.w3.org/2000/svg">
 <g>
  <path d="m245.53 1100.9c40.5 50.344 101.34 99.094 171.38 99.094 39.844 0 73.688-18.75 110.06-32.438 33.5-12.352 68.918-18.699 104.62-18.75 34.445-0.19922 68.586 6.4961 100.41 19.688 16.875 7.125 33.562 14.719 50.719 21.281 17.406 6.7188 35.902 10.184 54.562 10.219 34.52-0.39453 68.109-11.211 96.375-31.031 82.125-56.25 142.97-155.06 186.09-241.59 4.3125-8.625 8.4375-17.344 12.562-25.969 6.8438-14.438-3.9375-32.719-23.062-43.219-84.375-46.312-133.78-117.94-142.03-216.75s30.188-176.81 107.34-233.44l15.188-12.469c8.4375-6.9375 3.8438-26.156-12-41.156-58.359-57.469-136.55-90.355-218.44-91.875-15.895 0.007812-31.762 1.3242-47.438 3.9375-71.25 12.188-128.44 46.125-195.56 46.125-20.367 0.019531-40.609-3.1406-60-9.375-56.25-18-112.12-40.688-171.94-40.688-6.5625 0-13.219 0-19.875 0.84375-73.738 7.8594-142.59 40.633-195.19 92.906-103.69 102.19-118.41 260.91-92.531 395.06 24.844 129.94 85.969 247.03 168.75 349.59z"/>
  <path d="m609.38 262.5c1.3398 0.11719 2.6914 0.11719 4.0312 0 198.09-36.938 219.75-189.94 220.97-245.81 0.085938-4.5664-1.7383-8.9648-5.0273-12.129-3.293-3.168-7.7578-4.8203-12.316-4.5586-1.6719 0-3.3398 0.1875-4.9688 0.5625-200.06 46.312-220.88 190.59-221.44 244.5 0.09375 4.8242 2.1445 9.4062 5.6797 12.695 3.5352 3.2852 8.25 4.9961 13.07 4.7422zm185.25-218.53c-7.9688 56.812-40.875 144.28-164.62 176.16 7.5-53.344 39-137.91 164.62-176.16z"/>
 </g>
</svg>
