<svg xmlns="http://www.w3.org/2000/svg" width="22" height="19" viewBox="0 0 22 19"><path fill="#616161" d="M20.657 13.14c.39.009.704.322.704.706 0 .287-.174.533-.429.646l-9.63 4.35c-.09.041-.193.066-.303.066-.109 0-.213-.024-.302-.065l-9.63-4.351c-.25-.115-.42-.359-.42-.642 0-.39.322-.706.722-.706.109 0 .213.023.302.064l9.328 4.214 9.324-4.212c.096-.046.202-.07.316-.07zm0-4.351c.39.01.704.322.704.707 0 .286-.174.533-.429.646l-9.63 4.35c-.09.041-.193.065-.303.065-.109 0-.213-.023-.302-.064l-9.63-4.351c-.25-.115-.42-.359-.42-.642 0-.39.322-.707.722-.707.109 0 .213.024.302.065l9.328 4.214 9.324-4.212c.096-.046.202-.071.316-.071h.017zM11.024.092c.1.003.196.026.278.064l9.631 4.351c.25.115.42.36.42.642 0 .282-.17.527-.42.642l-9.63 4.35-.093.035c-.066.02-.137.03-.21.03-.11 0-.214-.023-.302-.064L1.067 5.79c-.25-.115-.42-.36-.42-.642 0-.282.17-.527.42-.642l9.63-4.35.092-.035c.067-.02.137-.03.21-.03zm-.025 1.486L3.092 5.15l7.907 3.572 7.908-3.572L11 1.578z"/></svg>