<svg xmlns="http://www.w3.org/2000/svg" width="39" height="39" fill="none" viewBox="0 0 39 39"><path fill="#686565" d="M27.6121 29.9521H16.8091C16.1851 29.9521 15.6781 30.4591 15.6781 31.0831C15.6781 31.7071 16.1851 32.2141 16.8091 32.2141H27.6121C28.2361 32.2141 28.7431 31.7071 28.7431 31.0831C28.7041 30.4201 28.2361 29.9521 27.6121 29.9521Z"/><path fill="#686565" d="M12.948 29.9521H11.388C10.764 29.9521 10.257 30.4591 10.257 31.0831C10.257 31.7071 10.764 32.2141 11.388 32.2141H12.948C13.572 32.2141 14.079 31.7071 14.079 31.0831C14.04 30.4201 13.572 29.9521 12.948 29.9521Z"/><path fill="#686565" d="M27.6121 24.804H16.8091C16.1851 24.804 15.6781 25.311 15.6781 25.935C15.6781 26.559 16.1851 27.066 16.8091 27.066H27.6121C28.2361 27.066 28.7431 26.559 28.7431 25.935C28.7431 25.311 28.2361 24.804 27.6121 24.804Z"/><path fill="#686565" d="M12.948 24.804H11.388C10.764 24.804 10.257 25.311 10.257 25.935C10.257 26.559 10.764 27.066 11.388 27.066H12.948C13.572 27.066 14.079 26.559 14.079 25.935C14.079 25.311 13.572 24.804 12.948 24.804Z"/><path fill="#686565" d="M16.8091 19.6951C16.1851 19.6951 15.6781 20.2021 15.6781 20.8261C15.6781 21.4501 16.1851 21.9571 16.8091 21.9571H27.6121C28.2361 21.9571 28.7431 21.4501 28.7431 20.8261C28.7431 20.2021 28.2361 19.6951 27.6121 19.6951H16.8091Z"/><path fill="#686565" d="M12.948 19.6951H11.388C10.764 19.6951 10.257 20.2021 10.257 20.8261C10.257 21.4501 10.764 21.9571 11.388 21.9571H12.948C13.572 21.9571 14.079 21.4501 14.079 20.8261C14.04 20.1631 13.572 19.6951 12.948 19.6951Z"/><path fill="#686565" d="M33.072 7.9171H27.378C26.832 4.0171 23.478 0.975098 19.422 0.975098C15.366 0.975098 12.012 4.0171 11.466 7.9171H5.928C5.304 7.9171 4.797 8.4241 4.797 9.0481V36.9331C4.797 37.5571 5.304 38.0641 5.928 38.0641H33.072C33.696 38.0641 34.203 37.5571 34.203 36.9331V9.0481C34.164 8.4241 33.696 7.9171 33.072 7.9171ZM19.422 3.1981C22.62 3.1981 25.233 5.8111 25.233 9.0091C25.233 12.2071 22.62 14.8591 19.422 14.8591C16.224 14.8591 13.611 12.2461 13.611 9.0481C13.611 5.8501 16.224 3.1981 19.422 3.1981ZM31.941 35.8021H7.059V10.1401H11.466C12.012 14.0401 15.366 17.0821 19.422 17.0821C23.478 17.0821 26.832 14.0401 27.378 10.1401H31.941V35.8021Z"/><path fill="#686565" d="M17.199 9.67204C17.277 9.75004 17.316 9.86704 17.277 9.94504L16.926 11.739C16.848 12.168 17.316 12.519 17.667 12.285L19.266 11.388C19.344 11.349 19.461 11.349 19.578 11.388L21.177 12.285C21.567 12.519 22.035 12.168 21.918 11.739L21.567 9.94504C21.528 9.82804 21.567 9.71104 21.645 9.67204L23.01 8.42404C23.322 8.11204 23.166 7.56604 22.737 7.52704L20.904 7.33204C20.787 7.33204 20.709 7.25404 20.67 7.13704L19.89 5.49904C19.695 5.10904 19.149 5.10904 18.954 5.49904L18.213 7.17604C18.174 7.29304 18.057 7.33204 17.979 7.37104L16.146 7.56604C15.717 7.60504 15.522 8.15104 15.873 8.46304L17.199 9.67204Z"/></svg>