<svg xmlns="http://www.w3.org/2000/svg" width="16" height="16" viewBox="0 0 16 16"><path fill="#2D2D2D" fill-rule="evenodd" d="M8.605 0c.433 0 .784.323.784.727 0 .402-.351.728-.784.728l-7.041-.001v13.091h7.098a.727.727 0 0 1 0 1.455H.782l-.013-.001L.727 16A.727.727 0 0 1 0 15.273V.727C0 .33.344.007.771 0h7.834zm3.293 3.886l3.873 3.6a.692.692 0 0 1 0 1.028l-3.873 3.6a.825.825 0 0 1-1.106 0 .692.692 0 0 1 0-1.028l2.537-2.36-9.028.001c-.431 0-.78-.323-.78-.727 0-.402.352-.727.78-.727l9.027-.001-2.536-2.358a.692.692 0 0 1 0-1.028.825.825 0 0 1 1.106 0z"/></svg>