<svg xmlns="http://www.w3.org/2000/svg" width="128" height="132" stroke="null" preserveAspectRatio="xMidYMid meet" vector-effect="non-scaling-stroke"><metadata stroke="null" vector-effect="non-scaling-stroke">Created by potrace 1.15, written by Peter Selinger 2001-2017</metadata><g stroke="null"><title stroke="null">background</title><rect id="canvas_background" width="582" height="402" x="-1" y="-1" fill="none" stroke="null"/></g><g stroke="null"><title stroke="null">Layer 1</title><g id="svg_1" fill="#586673" stroke="null" transform="rotate(-180 62.299999237060554,66.54087829589844) translate(0,132) scale(0.10000000149011612,-0.10000000149011612)"><path id="svg_2" stroke="null" d="m771.016028,452.831639c74.234348,47.160163 133.983945,88.661107 133.983945,92.43392c0,6.602423 -244.430169,167.890181 -267.967889,177.322214c-9.958266,3.772813 -12.674157,-5.65922 -12.674157,-39.614537l0,-45.273757l-31.685392,5.65922c-35.30658,5.65922 -75.139645,34.898521 -92.340286,66.024229c-28.064205,51.87618 -0.905297,141.48049 57.939003,195.243076c17.200642,16.034456 28.969502,32.068911 26.253611,35.841724c-10.863563,10.375236 -103.203849,-28.296098 -146.658102,-63.194619c-62.465488,-49.04657 -96.866771,-110.354782 -96.866771,-173.549401c0,-60.365009 16.295345,-96.206733 66.991972,-142.423693c42.548955,-40.55774 99.582662,-69.797042 166.574634,-84.888294l45.264846,-10.375236l2.715891,-49.989773c1.810594,-26.409691 5.431782,-49.04657 9.052969,-49.04657c3.621188,0 66.086675,38.671334 139.415726,85.831497z"/></g></g></svg>