<svg xmlns="http://www.w3.org/2000/svg" width="33" height="33" viewBox="0 0 33 33"><g fill="none" fill-rule="nonzero"><path fill="#fff" stroke="#fff" stroke-width=".2" d="M16 16.29c-2.544 0-4.595-2.073-4.595-4.645C11.405 9.074 13.456 7 16 7c2.544 0 4.595 2.074 4.595 4.645-.041 2.572-2.092 4.645-4.595 4.645zm0-8.46c-2.092 0-3.774 1.7-3.774 3.815s1.682 3.816 3.774 3.816 3.774-1.7 3.774-3.816c0-2.115-1.723-3.816-3.774-3.816zm8 14.599c0-2.157-1.97-4.48-3.159-5.682l-.574.58c1.107 1.12 2.912 3.235 2.912 5.102v1.742H8.821v-1.742c0-1.908 2.01-4.23 2.871-5.102l-.574-.58C9.969 17.949 8 20.272 8 22.429V25h16v-2.571z"/><g fill="#fff" stroke="#fff" stroke-width=".3"><path d="M20.738 29.464h3.893v-3.827h-3.893v3.827zm.6-3.238h2.694v2.649h-2.695v-2.65zM29.82 25.637h-3.892v3.827h3.892v-3.827zm-.598 3.238h-2.695v-2.65h2.695v2.65zM19.441 25.637H15.55v3.827h3.892v-3.827zm-.599 3.238h-2.694v-2.65h2.694v2.65zM18.088 25v-2.017h4.3v2.016h.593v-2.016h4.3v2.016h.593v-2.592h-4.893v-1.873h-.593v1.873h-4.893v2.592z"/></g></g></svg>