<svg xmlns="http://www.w3.org/2000/svg" width="39" height="29" fill="none" viewBox="0 0 39 29"><path fill="#686565" d="M24.9666 1.26672V22.5334C24.9666 23.3776 24.055 23.9071 23.3217 23.4889C19.4373 21.2738 15.717 19.5936 12.1622 18.4469L11.6285 18.2801C11.6187 19.0947 11.6422 19.9069 11.6988 20.7167C11.7457 21.3868 11.8039 21.8977 11.8907 22.4214C11.9628 22.8564 12.0304 23.1893 12.2398 24.1684C12.6252 25.9705 11.2531 27.6396 9.30333 27.9702C9.1703 27.9928 9.03609 28.0088 8.90132 28.0182C6.94267 28.1552 5.18618 26.8882 5.05926 25.0731C5.04989 24.9391 5.04999 24.8047 5.05954 24.6705C5.13063 23.6719 5.1512 23.3327 5.16208 22.892C5.17518 22.3612 5.16174 21.8472 5.11488 21.1771C5.01901 19.8061 4.82798 18.4415 4.5417 17.0831C4.51286 16.9462 4.51082 16.8099 4.53203 16.6797C3.38684 16.5126 2.22631 16.385 1.05112 16.297C0.477079 16.254 0.0332642 15.7757 0.0332642 15.2001V8.60005C0.0332642 8.01526 0.490823 7.5327 1.07478 7.50161C4.60676 7.31357 8.30235 6.59829 12.1622 5.35317C16.0317 4.10494 19.746 2.42754 23.3063 0.320119C24.0396 -0.113919 24.9666 0.414619 24.9666 1.26672ZM6.77846 17.0493L6.81978 17.2544C7.05802 18.5053 7.22128 19.7618 7.30952 21.0236C7.36105 21.7605 7.37629 22.3434 7.36141 22.9462C7.34938 23.4336 7.32763 23.7923 7.25398 24.8267C7.25177 24.8578 7.25174 24.8888 7.2539 24.9196C7.28924 25.4251 7.92177 25.8814 8.74786 25.8236C8.81084 25.8192 8.87353 25.8117 8.93554 25.8012C9.7322 25.6661 10.191 25.108 10.0884 24.6285C9.87151 23.6142 9.80009 23.2622 9.72035 22.7813C9.62173 22.1864 9.55569 21.607 9.50416 20.8702C9.42964 19.8044 9.40864 18.7349 9.44117 17.662C8.56521 17.4367 7.67825 17.2371 6.78207 17.0625L6.77846 17.0493ZM29.7108 17.2938L29.7929 17.371L33.8591 21.5999C34.2801 22.0378 34.2665 22.7342 33.8285 23.1552C33.418 23.55 32.7803 23.5626 32.3553 23.2018L32.2732 23.1247L28.207 18.8958C27.7859 18.4579 27.7996 17.7615 28.2375 17.3405C28.6481 16.9457 29.2857 16.933 29.7108 17.2938ZM22.7666 3.16018C19.5749 4.91224 16.265 6.34132 12.8376 7.44693C10.6002 8.16867 8.40986 8.72124 6.26664 9.10418L6.26766 14.7302C8.51063 15.1229 10.7007 15.6639 12.8376 16.3532C16.034 17.3843 19.3434 18.8221 22.7666 20.6657V3.16018ZM4.06714 9.4397C3.45184 9.51723 2.84054 9.58033 2.23326 9.62899V14.1892C2.84841 14.2472 3.45981 14.3157 4.06745 14.3948L4.06714 9.4397ZM37.0666 10.4334C37.6741 10.4334 38.1666 10.9259 38.1666 11.5334C38.1666 12.1409 37.6741 12.6334 37.0666 12.6334H31.1999C30.5924 12.6334 30.0999 12.1409 30.0999 11.5334C30.0999 10.9259 30.5924 10.4334 31.1999 10.4334H37.0666ZM33.8285 0.473795C34.2665 0.894865 34.2801 1.59121 33.8591 2.02913L29.7929 6.25805C29.3718 6.69597 28.6754 6.70963 28.2375 6.28856C27.7996 5.86749 27.7859 5.17114 28.207 4.73322L32.2732 0.504304C32.6943 0.0663854 33.3906 0.0527258 33.8285 0.473795Z"/></svg>