<svg xmlns="http://www.w3.org/2000/svg" width="33" height="33" viewBox="0 0 33 33"><path fill="#FFFFFD" fill-rule="evenodd" d="M19.455 20.043l.1.1V25l-.1.1h-4.91l-.1-.1v-4.857l.1-.1h4.91zm6.545 0l.1.1V25l-.1.1h-4.91l-.1-.1v-4.857l.1-.1H26zm-13.09 0l.1.1V25l-.1.1H8l-.1-.1v-4.857l.1-.1h4.91zm5.69.947h-3.2v3.163h3.2V20.99zm6.545 0h-3.199v3.163h3.199V20.99zm-13.091 0H8.855v3.163h3.199V20.99zm5.32-7.423l.1.1v2.276h6.071l.1.1v3.29l-.1.1h-.748l-.1-.1v-2.459h-5.223v2.46l-.1.1h-.748l-.1-.1v-2.46h-5.223v2.46l-.1.1h-.748l-.1-.1v-3.291l.1-.1h6.071v-2.276l.1-.1h.748zm2.08-5.667l.1.1v4.857l-.1.1h-4.909l-.1-.1V8l.1-.1h4.91zm-.855.947h-3.198v3.163h3.198V8.847z"/></svg>