<svg xmlns="http://www.w3.org/2000/svg" width="32" height="32" viewBox="0 0 32 32"><g fill="none" fill-rule="evenodd"><circle cx="16" cy="16" r="16" fill="#ED4747" fill-rule="nonzero"/><path fill="#FFF" fill-rule="nonzero" d="M17.036 13.18c-.686-.39-1.074-.899-.813-1.408.502-1.113 1.423-4.169 3.173-2.927.77.52 1.647 1.266 1.647 1.266s.375.212.506.78c.83 4.298-5.714 11.644-10.336 11.813-.599-.011-.944-.33-.944-.33s-.957-.627-1.687-1.207c-1.71-1.301 1.368-2.76 2.453-3.46.46-.355 1.114-.107 1.668.414 1.305 1.195 5.853-3.995 4.333-4.94z"/><path fill="#FFF" d="M22.833 24.024L7.975 9.167c-.223-.223-.585-.223-.808 0-.223.223-.223.585 0 .808l14.857 14.857c.112.112.258.168.404.168.147 0 .293-.056.405-.167.223-.224.223-.585 0-.809z"/><path fill="#ED4747" d="M24.833 24.024L9.975 9.167c-.223-.223-.585-.223-.808 0-.223.223-.223.585 0 .808l14.857 14.857c.112.112.258.168.404.168.147 0 .293-.056.405-.167.223-.224.223-.585 0-.809z"/></g></svg>