<svg xmlns="http://www.w3.org/2000/svg" width="12" height="10" fill="none" viewBox="0 0 12 10"><path fill="#2D2D2D" d="M3.85918 3.41646C4.31564 2.97981 4.52312 2.50347 4.23265 2.14621C3.6517 1.3523 2.4068 -0.910345 1.28639 0.399605C0.788435 0.955342 0.248979 1.70956 0.248979 1.70956C0.248979 1.70956 0 1.94773 0 2.42407C0.12449 5.99667 6.43197 10.641 10.0007 9.92652C10.4571 9.80743 10.6646 9.48987 10.6646 9.48987C10.6646 9.48987 11.2871 8.81505 11.7435 8.21961C12.8224 6.86997 10.2082 6.27454 9.25373 5.91728C8.83877 5.7188 8.3823 6.03636 8.05033 6.5524C7.2619 7.74327 2.86326 4.44854 3.85918 3.41646Z"/></svg>