<svg xmlns="http://www.w3.org/2000/svg" width="29" height="29" viewBox="0 0 29 29"><g fill="none" fill-rule="evenodd"><circle cx="14.5" cy="14.5" r="14" fill-rule="nonzero" stroke="#ED4747" opacity=".2"/><circle cx="14.5" cy="14.5" r="10" fill-rule="nonzero" stroke="#ED4747" opacity=".7"/><path fill="#ED4747" fill-rule="nonzero" d="M16.238 16.859c.258-.47.604-.746.961-.586.78.302 2.911.825 2.082 2.033-.347.53-.848 1.139-.848 1.139s-.14.256-.532.361c-2.96.684-8.16-3.468-8.358-6.552-.003-.401.213-.641.213-.641s.417-.66.805-1.165c.871-1.182 1.935.832 2.438 1.536.254.297.094.741-.257 1.127-.804.909 2.868 3.792 3.496 2.748z"/><path fill="#ED4747" stroke="#ED4747" stroke-width=".7" d="M19 11.697L19 12.303 17.303 12.303 17.303 14 16.697 14 16.697 12.303 15 12.303 15 11.697 16.697 11.697 16.697 10 17.303 10 17.303 11.697z"/></g></svg>