<svg xmlns="http://www.w3.org/2000/svg" width="47" height="47" fill="none" viewBox="0 0 47 47"><path fill="#686565" d="M29.7667 29.7665C29.5209 29.7694 29.2784 29.7102 29.0617 29.5942L22.795 26.4608C22.5367 26.3306 22.3194 26.1315 22.1673 25.8853C22.0152 25.6392 21.9342 25.3558 21.9333 25.0665V17.2332C21.9333 16.8177 22.0984 16.4192 22.3922 16.1254C22.686 15.8316 23.0845 15.6665 23.5 15.6665C23.9155 15.6665 24.314 15.8316 24.6078 16.1254C24.9016 16.4192 25.0667 16.8177 25.0667 17.2332V24.0952L30.4717 26.8055C30.8407 26.9933 31.1203 27.3196 31.2495 27.7129C31.3786 28.1063 31.3468 28.5348 31.161 28.9048C31.0308 29.1632 30.8316 29.3805 30.5855 29.5326C30.3394 29.6847 30.056 29.7656 29.7667 29.7665Z"/><path fill="#686565" d="M25.0667 6.26661C22.3422 6.26507 19.6573 6.91905 17.2387 8.17335C14.8201 9.42765 12.7387 11.2454 11.1704 13.4733L9.60372 12.1416C9.37659 11.9572 9.10236 11.8401 8.81209 11.8035C8.52181 11.7669 8.22709 11.8123 7.96131 11.9346C7.69553 12.0569 7.4693 12.2512 7.30824 12.4954C7.14719 12.7397 7.05775 13.0241 7.05005 13.3166V18.7999C7.05005 19.2154 7.21511 19.6139 7.50892 19.9077C7.80272 20.2015 8.20121 20.3666 8.61672 20.3666H14.8834C15.2014 20.3662 15.5118 20.2689 15.7732 20.0878C16.0347 19.9067 16.2348 19.6504 16.347 19.3528C16.4592 19.0552 16.4782 18.7305 16.4015 18.4219C16.3248 18.1133 16.1559 17.8353 15.9174 17.6249L13.536 15.5413C14.8084 13.6519 16.5252 12.1038 18.5357 11.033C20.5462 9.96214 22.7888 9.40139 25.0667 9.39994C27.652 9.39842 30.188 10.1077 32.3974 11.4504C34.6068 12.793 36.4045 14.7172 37.594 17.0126C38.7835 19.3081 39.3189 21.8864 39.1419 24.4657C38.9648 27.0449 38.082 29.5258 36.59 31.6372C35.098 33.7486 33.0542 35.409 30.682 36.4371C28.3099 37.4652 25.7008 37.8213 23.1399 37.4665C20.579 37.1117 18.165 36.0596 16.1618 34.4253C14.1585 32.791 12.6432 30.6374 11.7814 28.1999C11.7226 27.9939 11.6223 27.8021 11.4864 27.6363C11.3506 27.4706 11.1823 27.3345 10.9918 27.2365C10.8012 27.1384 10.5927 27.0805 10.3789 27.0662C10.1651 27.052 9.95063 27.0817 9.7488 27.1537C9.54697 27.2256 9.36204 27.3382 9.20544 27.4844C9.04884 27.6306 8.92391 27.8075 8.83836 28.0039C8.75281 28.2003 8.70847 28.4122 8.70807 28.6265C8.70767 28.8408 8.75123 29.0528 8.83605 29.2496C9.89029 32.2284 11.7432 34.86 14.1923 36.8567C16.6413 38.8534 19.5922 40.1383 22.7222 40.5709C25.8523 41.0036 29.0411 40.5674 31.9399 39.3099C34.8388 38.0525 37.3361 36.0222 39.1589 33.4411C40.9817 30.86 42.0597 27.8275 42.2752 24.675C42.4906 21.5225 41.8352 18.3715 40.3805 15.5664C38.9259 12.7613 36.728 10.4102 34.0271 8.77C31.3263 7.12984 28.2265 6.26382 25.0667 6.26661Z"/></svg>