<svg xmlns="http://www.w3.org/2000/svg" xmlns:xlink="http://www.w3.org/1999/xlink" width="100" height="100" x="0" y="0" style="enable-background:new 0 0 16 16" fill="#FFF" version="1.1" viewBox="0 0 16 16" xml:space="preserve"><g><path d="M13.5,12c-1.452,0-2.835-0.316-4.11-0.939c-0.12-0.06-0.258-0.067-0.383-0.023c-0.126,0.044-0.229,0.136-0.287,0.255 l-0.786,1.627c-2.034-1.135-3.718-2.818-4.852-4.852L4.708,7.28c0.12-0.058,0.211-0.161,0.255-0.287 C5.006,6.868,4.998,6.73,4.939,6.61C4.316,5.335,4,3.952,4,2.5C4,2.224,3.776,2,3.5,2h-3C0.224,2,0,2.224,0,2.5 C0,9.944,6.056,16,13.5,16c0.276,0,0.5-0.224,0.5-0.5v-3C14,12.224,13.776,12,13.5,12z"/><path d="M15.82,3.616l-3-2.5c-0.149-0.124-0.357-0.15-0.532-0.068C12.112,1.129,12,1.306,12,1.5V3h-0.5C9.019,3,7,5.019,7,7.5 c0,0.232,0.16,0.434,0.385,0.487C7.423,7.996,7.462,8,7.5,8c0.186,0,0.361-0.104,0.447-0.276l0.395-0.789 C8.938,5.741,10.139,5,11.473,5H12v1.5c0,0.194,0.112,0.371,0.288,0.453c0.175,0.083,0.383,0.056,0.532-0.068l3-2.5 C15.935,4.289,16,4.148,16,4S15.935,3.711,15.82,3.616z"/></g></svg>