<svg xmlns="http://www.w3.org/2000/svg" width="12" height="16" viewBox="0 0 12 16"><path fill="#2D2D2D" fill-rule="evenodd" d="M6-.5c3.588 0 6.5 2.863 6.5 6.4 0 1.52-1.087 3.69-2.923 6.321a49.064 49.064 0 0 1-1.525 2.061l-.699.88-.315.385c-.15.181-.287.345-.41.49L6 16.76l-.377-.43-.59-.698-.36-.437a52.484 52.484 0 0 1-2.082-2.734 34.27 34.27 0 0 1-1.38-2.096C.114 8.546-.5 7.04-.5 5.9-.5 2.364 2.412-.5 6-.5zm0 1C2.96.5.5 2.92.5 5.9c0 .907.56 2.276 1.567 3.948.392.65.842 1.33 1.341 2.035.487.687 1 1.37 1.52 2.03l.714.886.358.431.274-.328.468-.575a50.116 50.116 0 0 0 2.015-2.678C10.475 9.187 11.5 7.14 11.5 5.899 11.5 2.92 9.04.5 6 .5zm0 2a3.5 3.5 0 1 1 0 7 3.5 3.5 0 0 1 0-7zm0 1a2.5 2.5 0 1 0 0 5 2.5 2.5 0 0 0 0-5z"/></svg>