<svg xmlns="http://www.w3.org/2000/svg" width="20" height="21" viewBox="0 0 20 21"><path fill="#2D2D2D" fill-rule="evenodd" d="M15.155-.15c.84 0 1.526.686 1.526 1.526v4.666h1.226c1.252 0 2.214.961 2.214 2.213v6.192c0 1.252-.962 2.214-2.214 2.214H16.68v2.602a1.53 1.53 0 0 1-1.526 1.525H4.835a1.53 1.53 0 0 1-1.525-1.525V16.66H2.084c-1.252 0-2.214-.962-2.214-2.214V8.255c0-1.252.962-2.213 2.214-2.213H3.31V1.376c0-.84.686-1.526 1.526-1.526h10.32zm.538 14.747H4.298v4.666c0 .274.202.49.453.53l.085.008h10.32c.273 0 .49-.203.53-.453l.007-.085v-4.666zm-.538 3.14l.15.15v.688l-.15.15H4.835l-.15-.15v-.688l.15-.15h10.32zm0-2.064l.15.15v.688l-.15.15H4.835l-.15-.15v-.688l.15-.15h10.32zm2.752-8.644H2.084a1.23 1.23 0 0 0-1.22 1.102l-.006.124v6.192a1.23 1.23 0 0 0 1.101 1.22l.125.006H3.31v-1.914l.15-.15h13.071l.15.15v1.914h1.226a1.23 1.23 0 0 0 1.22-1.101l.006-.125V8.255a1.23 1.23 0 0 0-1.101-1.22l-.125-.006zm-2.064 1.764a.838.838 0 1 1 0 1.676.838.838 0 0 1 0-1.676zM15.155.838H4.835a.539.539 0 0 0-.53.453l-.007.085v4.666h11.395V1.376a.539.539 0 0 0-.453-.531l-.085-.007z"/></svg>