<svg xmlns="http://www.w3.org/2000/svg" width="20" height="20" fill="none" viewBox="0 0 20 20"><path fill="#fff" d="M16.25 2.5H3.75C3.41861 2.50043 3.10092 2.63227 2.86659 2.86659C2.63227 3.10092 2.50043 3.41861 2.5 3.75V8.33313C2.5 15.3223 8.42346 17.6398 9.61182 18.0334C9.86355 18.1189 10.1364 18.1189 10.3882 18.0334C11.5759 17.6398 17.5 15.3229 17.5 8.33313V3.75C17.4996 3.41861 17.3677 3.10092 17.1334 2.86659C16.8991 2.63227 16.5814 2.50043 16.25 2.5ZM13.869 7.95227L9.28528 12.3273C9.16897 12.4381 9.01445 12.5 8.85376 12.5C8.69307 12.5 8.53855 12.4381 8.42224 12.3273L6.13098 10.1398C6.0715 10.0831 6.02377 10.0153 5.99052 9.94021C5.95726 9.8651 5.93913 9.78418 5.93717 9.70207C5.9352 9.61995 5.94944 9.53826 5.97906 9.46165C6.00869 9.38504 6.05312 9.31502 6.10982 9.25559C6.16652 9.19617 6.23438 9.1485 6.30951 9.11531C6.38465 9.08212 6.46558 9.06406 6.5477 9.06217C6.62982 9.06028 6.7115 9.07459 6.78808 9.10429C6.86466 9.13398 6.93464 9.17848 6.99402 9.23523L8.85376 11.0107L13.006 7.04773C13.0654 6.99098 13.1353 6.94648 13.2119 6.91679C13.2885 6.88709 13.3702 6.87278 13.4523 6.87467C13.5344 6.87656 13.6154 6.89462 13.6905 6.92781C13.7656 6.961 13.8335 7.00867 13.8902 7.06809C13.9469 7.12752 13.9913 7.19754 14.0209 7.27415C14.0506 7.35076 14.0648 7.43245 14.0628 7.51457C14.0609 7.59668 14.0427 7.6776 14.0095 7.75271C13.9762 7.82781 13.9285 7.89562 13.869 7.95227H13.869Z"/></svg>