<svg xmlns="http://www.w3.org/2000/svg" width="17" height="16" viewBox="0 0 17 16"><path fill="#2D2D2D" fill-rule="evenodd" d="M5.5-.25c3.179 0 5.75 2.708 5.75 6.043 0 .79-.142 1.617-.409 2.473l-.063-.025a3.48 3.48 0 0 0-.941-.225c.255-.784.39-1.528.39-2.223 0-2.76-2.12-4.991-4.727-4.991S.774 3.034.774 5.793c0 1.667.773 3.622 2.104 5.712a27.022 27.022 0 0 0 2.335 3.127l.287.325.286-.325c.29-.334.586-.694.883-1.075a3.5 3.5 0 0 0 .736.747c-.201.256-.404.504-.608.745l-.417.482c-.127.145-.243.272-.342.378l-.175.185a.502.502 0 0 1-.726 0l-.175-.185a20.75 20.75 0 0 1-.342-.378l-.417-.482a28.166 28.166 0 0 1-1.833-2.418C.73 10.2-.25 7.865-.25 5.793-.25 2.458 2.321-.25 5.5-.25zm7.245 8.362a.54.54 0 0 1 .658 0l2.96 2.419a.341.341 0 0 1 .137.268.352.352 0 0 1-.138.267l-2.959 2.422a.54.54 0 0 1-.658 0c-.183-.15-.183-.39 0-.538l2.165-1.77H5.466c-.26 0-.466-.17-.466-.381 0-.212.207-.5.466-.5h9.444L12.745 8.65c-.183-.149-.183-.389 0-.538zM5.5 2.784c.764 0 1.495.32 2.033.886.536.564.836 1.328.836 2.123 0 1.659-1.281 3.009-2.869 3.009-1.588 0-2.869-1.35-2.869-3.009 0-1.659 1.281-3.009 2.869-3.009zm0 1.052c-1.016 0-1.845.874-1.845 1.957 0 1.084.829 1.957 1.845 1.957.487 0 .954-.204 1.3-.569.349-.367.545-.866.545-1.388 0-1.083-.829-1.957-1.845-1.957z"/></svg>