<svg xmlns="http://www.w3.org/2000/svg" width="33" height="33" viewBox="0 0 33 33"><path fill="#FFF" fill-rule="evenodd" d="M19.45 7.778l.034.014 4.346 4.31-.05 1.107-.838-.05.014-.661h-4.034V8.655l-8.083-.049-.05 15.813 12.153.05.05-7.982.838.05-.05 8.76-13.828-.05.05-17.468h9.447zm1.056 13.425v.777h-7.053v-.777h7.053zm.115-2.392v.777h-7.097v-.777h7.097zm-.092-2.212v.777h-7.054V16.6h7.054zm.081-2.295v.777h-7.185v-.777h7.185zm-4.426-2.419v.777h-2.756v-.777h2.756zm6.029-.164l-2.504-2.485v2.485h2.504z"/></svg>