<svg xmlns="http://www.w3.org/2000/svg" width="19" height="28" viewBox="0 0 19 28"><defs><linearGradient id="a" x1="50%" x2="50%" y1="0%" y2="100%"><stop offset="0%" stop-color="#FFF"/><stop offset="100%" stop-color="#c9c6c6"/></linearGradient></defs><path fill="url(#a)" fill-rule="nonzero" stroke="#FFF" d="M13.906 9.954c-.692-.609-1.352-1.261-1.899-2.02C8.9 3.62 10.51 0 10.51 0 4.74 2.58 3.426 6.676 3.363 9.726l.003.033s.052 1.805.823 3.763c.246.625-.157 1.327-.786 1.424-.438.068-.863-.18-1.048-.609-.331-.766-.768-1.985-.643-2.844a9.394 9.394 0 0 0-1.69 4.812c-.306 4.5 2.626 8.617 6.777 9.511 4.864 1.049 9.47-2.504 10.123-7.66.41-3.221-.825-6.274-3.016-8.202z" transform="translate(1 1)"/></svg>