<svg xmlns="http://www.w3.org/2000/svg" width="20" height="22" viewBox="0 0 20 22"><path fill="#2D2D2D" fill-rule="evenodd" d="M16.428-.15a3.725 3.725 0 0 1 3.721 3.721 3.725 3.725 0 0 1-3.721 3.722 3.715 3.715 0 0 1-3.057-1.607L7.43 9.265a3.692 3.692 0 0 1 0 2.51l5.94 3.607a3.724 3.724 0 0 1 5.689-.514 3.697 3.697 0 0 1 1.09 2.632c0 .994-.386 1.929-1.09 2.631a3.71 3.71 0 0 1-2.63 1.089 3.71 3.71 0 0 1-2.632-1.089 3.707 3.707 0 0 1-.886-3.842l-5.953-3.613a3.716 3.716 0 0 1-3.03 1.565 3.725 3.725 0 0 1-3.72-3.721 3.725 3.725 0 0 1 3.72-3.721c1.218 0 2.338.593 3.03 1.566l5.954-3.586-.073-.236a3.66 3.66 0 0 1-.132-.972A3.725 3.725 0 0 1 16.428-.15zm0 14.944c-.715 0-1.4.278-1.914.792a2.69 2.69 0 0 0-.793 1.914c0 .723.281 1.403.793 1.914a2.71 2.71 0 0 0 3.828 0c.511-.511.793-1.19.793-1.914a2.69 2.69 0 0 0-.793-1.914 2.697 2.697 0 0 0-1.914-.792zm-12.5-6.981A2.71 2.71 0 0 0 1.22 10.52a2.71 2.71 0 0 0 2.707 2.707 2.71 2.71 0 0 0 2.707-2.707 2.71 2.71 0 0 0-2.707-2.707zm12.5-6.949a2.71 2.71 0 0 0-2.707 2.707 2.71 2.71 0 0 0 2.707 2.708 2.71 2.71 0 0 0 2.707-2.708A2.71 2.71 0 0 0 16.428.864z"/></svg>