<svg xmlns="http://www.w3.org/2000/svg" width="20" height="20" fill="none" viewBox="0 0 20 20"><path fill="#fff" d="M16.875 3.125H3.125C2.7936 3.12538 2.47587 3.2572 2.24154 3.49154C2.0072 3.72587 1.87538 4.0436 1.875 4.375V16.25C1.875 16.3565 1.90223 16.4613 1.95411 16.5544C2.006 16.6474 2.0808 16.7257 2.17143 16.7817C2.26206 16.8377 2.3655 16.8696 2.47193 16.8744C2.57836 16.8792 2.68425 16.8567 2.77954 16.809L5 15.6988L7.22046 16.809C7.30726 16.8524 7.40296 16.875 7.5 16.875C7.59704 16.875 7.69274 16.8524 7.77954 16.809L10 15.6988L12.2205 16.809C12.3073 16.8524 12.403 16.875 12.5 16.875C12.597 16.875 12.6927 16.8524 12.7795 16.809L15 15.6988L17.2205 16.809C17.3157 16.8567 17.4216 16.8792 17.5281 16.8744C17.6345 16.8696 17.7379 16.8377 17.8286 16.7817C17.9192 16.7257 17.994 16.6474 18.0459 16.5544C18.0978 16.4613 18.125 16.3565 18.125 16.25V4.375C18.1246 4.0436 17.9928 3.72587 17.7585 3.49154C17.5241 3.2572 17.2064 3.12538 16.875 3.125ZM14.0625 11.25H5.9375C5.77174 11.25 5.61277 11.1842 5.49556 11.0669C5.37835 10.9497 5.3125 10.7908 5.3125 10.625C5.3125 10.4592 5.37835 10.3003 5.49556 10.1831C5.61277 10.0658 5.77174 10 5.9375 10H14.0625C14.2283 10 14.3872 10.0658 14.5044 10.1831C14.6217 10.3003 14.6875 10.4592 14.6875 10.625C14.6875 10.7908 14.6217 10.9497 14.5044 11.0669C14.3872 11.1842 14.2283 11.25 14.0625 11.25ZM14.0625 8.75H5.9375C5.77174 8.75 5.61277 8.68415 5.49556 8.56694C5.37835 8.44973 5.3125 8.29076 5.3125 8.125C5.3125 7.95924 5.37835 7.80027 5.49556 7.68306C5.61277 7.56585 5.77174 7.5 5.9375 7.5H14.0625C14.2283 7.5 14.3872 7.56585 14.5044 7.68306C14.6217 7.80027 14.6875 7.95924 14.6875 8.125C14.6875 8.29076 14.6217 8.44973 14.5044 8.56694C14.3872 8.68415 14.2283 8.75 14.0625 8.75Z"/></svg>