<svg xmlns="http://www.w3.org/2000/svg" width="12" height="12" fill="none" viewBox="0 0 12 12"><path fill="#616161" fill-rule="evenodd" d="M0 5.97606C0 2.70345 2.69103 0.0419922 6 0.0419922C9.30897 0.0419922 12 2.70345 12 5.97606C12 6.19454 11.8209 6.37164 11.6 6.37166H10.5333C10.3891 6.37368 10.2549 6.29872 10.1822 6.17549C10.1095 6.05226 10.1095 5.89985 10.1822 5.77662C10.2549 5.65339 10.3891 5.57844 10.5333 5.58045H11.1583C10.9615 3.05502 8.95211 1.04172 6.4 0.849684V1.49254C6.40204 1.63521 6.32625 1.76791 6.20165 1.83984C6.07705 1.91176 5.92295 1.91176 5.79835 1.83984C5.67375 1.76791 5.59796 1.63521 5.6 1.49254V0.849684C3.04421 1.0413 1.01149 3.05306 0.816667 5.58045H1.46667C1.61092 5.57844 1.7451 5.65339 1.81782 5.77662C1.89054 5.89985 1.89054 6.05226 1.81782 6.17549C1.7451 6.29872 1.61092 6.37368 1.46667 6.37166H0.816667C1.00958 8.9009 3.04297 10.9106 5.6 11.1024V10.4596C5.59778 10.3539 5.63837 10.2518 5.71272 10.176C5.78707 10.1001 5.88901 10.0568 5.99583 10.0557C6.1041 10.0546 6.2082 10.0969 6.28436 10.173C6.36053 10.2491 6.40225 10.3525 6.4 10.4596V11.1024C8.75603 10.9254 10.6662 9.19778 11.1042 6.95271C11.1471 6.73798 11.3577 6.59816 11.5749 6.64021C11.7921 6.68226 11.9338 6.8903 11.8917 7.10518C11.3577 9.84256 8.91858 11.9101 6 11.9101C2.69103 11.9101 0 9.24867 0 5.97606ZM5.71272 2.52762C5.78707 2.45176 5.88901 2.40846 5.99583 2.40738C6.1041 2.40625 6.2082 2.44857 6.28436 2.52467C6.36053 2.60078 6.40225 2.70417 6.4 2.81122V5.58045H8.13333C8.27759 5.57844 8.41177 5.65339 8.48449 5.77662C8.55721 5.89985 8.55721 6.05226 8.48449 6.17549C8.41177 6.29872 8.27759 6.37368 8.13333 6.37166H6C5.7791 6.37164 5.60002 6.19454 5.6 5.97606V2.81122C5.59778 2.7056 5.63837 2.60348 5.71272 2.52762Z" clip-rule="evenodd"/></svg>