<svg xmlns="http://www.w3.org/2000/svg" width="20" height="20" fill="none" viewBox="0 0 20 20"><path fill="#fff" d="M16.875 3.125H3.125C2.7936 3.12538 2.47587 3.2572 2.24154 3.49154C2.0072 3.72587 1.87538 4.0436 1.875 4.375V15.6251C1.875 15.7892 1.90734 15.9518 1.97016 16.1034C2.03299 16.2551 2.12507 16.3929 2.24115 16.509C2.35723 16.625 2.49504 16.7171 2.64671 16.7799C2.79837 16.8427 2.96092 16.875 3.12508 16.875L4.17114 16.8749C4.28933 16.8749 4.4051 16.8413 4.505 16.7782C4.6049 16.715 4.68485 16.6249 4.73557 16.5181C5.03993 15.8768 5.51997 15.3351 6.11994 14.9557C6.7199 14.5764 7.41517 14.375 8.125 14.375C8.83483 14.375 9.5301 14.5764 10.1301 14.9557C10.73 15.3351 11.2101 15.8768 11.5144 16.5181C11.5652 16.6249 11.6451 16.7151 11.745 16.7782C11.845 16.8414 11.9607 16.8749 12.0789 16.8749L16.875 16.875C17.2064 16.8746 17.5241 16.7428 17.7585 16.5085C17.9928 16.2741 18.1246 15.9564 18.125 15.625V4.375C18.1246 4.0436 17.9928 3.72587 17.7585 3.49154C17.5241 3.2572 17.2064 3.12538 16.875 3.125ZM8.125 13.125C7.63055 13.125 7.1472 12.9784 6.73607 12.7037C6.32495 12.429 6.00452 12.0385 5.8153 11.5817C5.62608 11.1249 5.57657 10.6222 5.67304 10.1373C5.7695 9.65232 6.0076 9.20686 6.35723 8.85723C6.70686 8.5076 7.15232 8.2695 7.63727 8.17304C8.12223 8.07657 8.62489 8.12608 9.08171 8.3153C9.53852 8.50452 9.92897 8.82495 10.2037 9.23607C10.4784 9.6472 10.625 10.1305 10.625 10.625C10.6242 11.2878 10.3606 11.9233 9.89193 12.3919C9.42325 12.8606 8.78781 13.1242 8.125 13.125ZM16.875 15.625L12.4557 15.6249C12.1831 15.1551 11.8356 14.7329 11.427 14.375H15C15.1658 14.375 15.3247 14.3091 15.4419 14.1919C15.5591 14.0747 15.625 13.9158 15.625 13.75V6.25C15.625 6.08424 15.5591 5.92527 15.4419 5.80806C15.3247 5.69085 15.1658 5.625 15 5.625H5C4.83424 5.625 4.67527 5.69085 4.55806 5.80806C4.44085 5.92527 4.375 6.08424 4.375 6.25V13.75C4.37509 13.8889 4.42144 14.0237 4.50674 14.1333C4.59203 14.2429 4.71141 14.3209 4.846 14.3551C4.42747 14.7172 4.07204 15.1463 3.79425 15.625L3.125 15.6251V4.375H16.875V15.625Z"/></svg>