<?xml version="1.0" encoding="UTF-8"?>
<svg width="1200pt" height="1200pt" version="1.1" viewBox="0 0 1200 1200" xmlns="http://www.w3.org/2000/svg">
 <g fill="#3b6af9">
  <path d="m945.6 384h-135.6c-16.801-60-40.801-116.4-70.801-168 86.402 31.199 158.4 91.199 206.4 168z"/>
  <path d="m640.8 664.8 26.398 103.2h-238.8c-10.801-46.801-15.602-94.801-18-144h231.6c-4.8008 13.199-4.8008 26.398-1.1992 40.801z"/>
  <path d="m410.4 576c1.1992-49.199 8.3984-97.199 19.199-144h342c10.801 46.801 15.602 94.801 18 144z"/>
  <path d="m600 192c24 0 46.801 2.3984 69.602 6 39.602 54 69.602 117.6 90 186h-316.8c21.602-69.602 52.801-132 94.801-187.2 20.398-3.6016 40.797-4.8008 62.398-4.8008z"/>
  <path d="m466.8 214.8c-31.199 51.602-56.398 109.2-74.398 169.2h-138c49.203-78 123.6-139.2 212.4-169.2z"/>
  <path d="m228 432h152.4c-9.6016 46.801-16.801 94.801-18 144h-169.2c2.4023-51.602 15.602-99.602 34.801-144z"/>
  <path d="m193.2 624h170.4c1.1992 49.199 7.1992 97.199 16.801 144h-152.4c-19.199-44.398-32.398-92.398-34.801-144z"/>
  <path d="m254.4 816h136.8c16.801 60 40.801 116.4 70.801 168-87.602-31.199-159.6-91.199-207.6-168z"/>
  <path d="m662.4 1003.2c-20.398 3.6016-40.797 4.8008-62.398 4.8008-24 0-46.801-2.3984-69.602-6-39.602-54-69.602-117.6-90-186h237.6l30 117.6c-13.199 24-28.801 48-45.602 69.598z"/>
  <path d="m944.4 841.2-72 3.6016 22.801 36 57.602 87.602c8.3984 12 4.8008 28.801-8.3984 36-2.3984 1.1992-3.6016 2.3984-6 2.3984h-1.1992c-1.1992 0-3.6016 1.1992-4.8008 1.1992h-1.1992c-2.3984 0-3.6016 0-6-1.1992h-1.1992c-1.1992 0-2.3984-1.1992-3.6016-1.1992 0 0-1.1992 0-1.1992-1.1992-1.1992-1.1992-2.3984-1.1992-3.6016-2.3984l-1.1992-1.1992c-1.1992-1.1992-2.3984-2.3984-3.6016-4.8008l-26.398-39.602-56.398-84-27.602 69.602c-1.1992 2.3984-2.3984 4.8008-3.6016 6l-1.1992 1.1992c-1.1992 1.1992-2.3984 2.3984-3.6016 2.3984-1.1992 0-1.1992 1.1992-2.3984 1.1992-1.1992 0-2.3984 1.1992-3.6016 1.1992h-2.3984-2.3984-1.1992-3.6016-2.3984c-1.1992 0-2.3984-1.1992-3.6016-2.3984 0 0-1.1992 0-1.1992-1.1992-1.1992-1.1992-3.6016-2.3984-4.8008-4.8008-1.1992-2.3984-2.3984-4.8008-3.6016-7.1992l-20.402-74.402-4.8008-16.801-49.199-194.4c0-2.3984-1.1992-3.6016 0-6v-1.1992c0-1.1992 0-2.3984 1.1992-3.6016v-1.1992c1.1992-1.1992 1.1992-2.3984 2.3984-4.8008 1.1992-1.1992 2.3984-2.3984 3.6016-3.6016 0 0 1.1992 0 1.1992-1.1992 1.1992-1.1992 2.3984-1.1992 3.6016-1.1992h1.1992c1.1992 0 3.6016-1.1992 4.8008-1.1992h1.1992 3.6016 2.3984c2.3984 1.1992 3.6016 1.1992 6 2.3984l67.199 48 44.398 32.398 79.199 56.398 46.801 33.602c16.805 12.004 9.6055 38.402-10.797 39.602z"/>
  <path d="m976.8 757.2-140.4-100.8c1.1992-10.801 1.1992-21.602 1.1992-32.398h170.4c-3.6016 46.801-14.398 92.398-31.199 133.2z"/>
  <path d="m837.6 576c-1.1992-49.199-7.1992-97.199-16.801-144h151.2c20.398 44.398 32.398 92.398 36 144z"/>
 </g>
</svg>
