<svg width="1600" height="1600" viewBox="0 0 1600 1600" fill="none" xmlns="http://www.w3.org/2000/svg">
<path d="M1308.02 572.006H1108.15C1083.39 483.567 1048.01 400.434 1003.79 324.377C1131.15 370.364 1237.27 458.803 1308.02 572.006Z" fill="#3B6AF9"/>
<path d="M858.755 985.9L897.665 1138.02H545.678C529.758 1069.03 522.681 998.28 519.146 925.762H860.521C853.445 945.217 853.445 964.672 858.753 985.902L858.755 985.9Z" fill="#3B6AF9"/>
<path d="M519.148 855.01C520.916 782.492 531.528 711.741 547.447 642.757H1051.55C1067.47 711.741 1074.55 782.492 1078.08 855.01H519.148Z" fill="#3B6AF9"/>
<path d="M798.616 289.001C833.992 289.001 867.6 292.536 901.208 297.845C959.581 377.44 1003.8 471.185 1033.87 572.006H566.909C598.75 469.414 644.737 377.44 706.644 296.076C736.711 290.768 766.778 289 798.618 289L798.616 289.001Z" fill="#3B6AF9"/>
<path d="M602.281 322.608C556.294 398.669 519.151 483.567 492.62 572.006H289.21C361.734 457.036 471.394 366.828 602.284 322.608H602.281Z" fill="#3B6AF9"/>
<path d="M250.295 642.757H474.93C460.777 711.741 450.165 782.492 448.398 855.01H199C202.541 778.95 221.997 708.199 250.296 642.757H250.295Z" fill="#3B6AF9"/>
<path d="M199 925.762H450.167C451.934 998.28 460.778 1069.03 474.931 1138.02H250.296C221.997 1072.57 202.542 1001.82 199 925.762Z" fill="#3B6AF9"/>
<path d="M289.208 1208.77H490.849C515.613 1297.21 550.989 1380.34 595.208 1456.4C466.085 1410.41 359.961 1321.97 289.209 1208.77H289.208Z" fill="#3B6AF9"/>
<path d="M890.592 1484.7C860.526 1490 830.458 1491.77 798.619 1491.77C763.243 1491.77 729.635 1488.24 696.027 1482.93C637.654 1403.33 593.434 1309.59 563.368 1208.77H913.587L957.806 1382.11C938.351 1417.48 915.354 1452.86 890.589 1484.69L890.592 1484.7Z" fill="#3B6AF9"/>
<path d="M1306.26 1245.91L1200.13 1251.22L1233.74 1304.28L1318.64 1433.41C1331.02 1451.09 1325.72 1475.86 1306.26 1486.47C1302.73 1488.24 1300.95 1490 1297.42 1490H1295.65C1293.88 1490 1290.34 1491.77 1288.58 1491.77H1286.81C1283.27 1491.77 1281.5 1491.77 1277.96 1490H1276.2C1274.43 1490 1272.66 1488.24 1270.89 1488.24C1270.89 1488.24 1269.12 1488.24 1269.12 1486.47C1267.35 1484.7 1265.58 1484.7 1263.81 1482.93L1262.04 1481.17C1260.28 1479.4 1258.51 1477.63 1256.73 1474.09L1217.82 1415.72L1134.7 1291.9L1094.01 1394.5C1092.24 1398.03 1090.47 1401.57 1088.7 1403.34L1086.93 1405.11C1085.17 1406.87 1083.4 1408.64 1081.63 1408.64C1079.86 1408.64 1079.86 1410.41 1078.09 1410.41C1076.32 1410.41 1074.55 1412.18 1072.78 1412.18H1069.25H1065.71H1063.94H1058.63H1055.1C1053.33 1412.18 1051.56 1410.41 1049.79 1408.64C1049.79 1408.64 1048.02 1408.64 1048.02 1406.87C1046.26 1405.11 1042.71 1403.34 1040.95 1399.8C1039.18 1396.26 1037.41 1392.72 1035.64 1389.19L1005.57 1279.52L998.49 1254.75L925.971 968.213C925.971 964.677 924.204 962.904 925.971 959.369V957.601C925.971 955.833 925.971 954.066 927.739 952.292V950.525C929.506 948.757 929.506 946.99 931.274 943.448C933.042 941.681 934.809 939.913 936.583 938.14C936.583 938.14 938.35 938.14 938.35 936.372C940.118 934.604 941.885 934.605 943.659 934.605H945.427C947.194 934.605 950.735 932.837 952.503 932.837H954.27H959.579H963.114C966.65 934.605 968.423 934.604 971.958 936.372L1071.01 1007.12L1136.45 1054.88L1253.19 1138.01L1322.17 1187.54C1346.94 1205.23 1336.33 1244.14 1306.26 1245.91L1306.26 1245.91Z" fill="#3B6AF9"/>
<path d="M1354.01 1122.1L1147.07 973.519C1148.83 957.599 1148.83 941.678 1148.83 925.765H1400C1394.69 994.749 1378.78 1061.96 1354.01 1122.1L1354.01 1122.1Z" fill="#3B6AF9"/>
<path d="M1148.84 855.01C1147.07 782.492 1138.22 711.741 1124.07 642.757H1346.94C1377 708.199 1394.69 778.95 1400 855.01H1148.84Z" fill="#3B6AF9"/>
</svg>
