<?xml version="1.0" encoding="iso-8859-1"?>
<!-- Generator: Adobe Illustrator 16.0.0, SVG Export Plug-In . SVG Version: 6.00 Build 0)  -->
<!DOCTYPE svg PUBLIC "-//W3C//DTD SVG 1.1//EN" "http://www.w3.org/Graphics/SVG/1.1/DTD/svg11.dtd">
<svg version="1.1" id="Capa_1" xmlns="http://www.w3.org/2000/svg" xmlns:xlink="http://www.w3.org/1999/xlink" x="0px" y="0px"
	 width="44.996px" height="44.996px" viewBox="0 0 44.996 44.996" style="enable-background:new 0 0 44.996 44.996;"
	 xml:space="preserve">
	        <linearGradient id="a" x1="0%" y1="91.064%" y2="8.936%">
            <stop offset="0%" stop-color="#FFFFFF"/>
				<stop offset="100%" stop-color="#c9c6c6"/>
        </linearGradient>

	<g fill="url(#a)">
	<g>
		<g>
			<path d="M38.338,37.217c-0.759-1.008-1.698-1.865-2.771-2.526l-6.811-4.198c-1.587-0.979-2.872-2.375-3.715-4.037l-3.07-6.057
				c-1.348-2.657-3.798-4.586-6.697-5.271l-3.179-0.751C9.278,13.71,6.88,11.87,5.51,9.319L1.833,2.48
				C1.68,2.193,1.351,2.048,1.035,2.127C0.72,2.208,0.498,2.492,0.498,2.816v40.575c0,0.888,0.718,1.604,1.604,1.604H40.98
				c0.607,0,1.164-0.344,1.437-0.889c0.271-0.544,0.211-1.194-0.153-1.682L38.338,37.217z"/>
			<path d="M12.214,8.575c0.764,0.647,1.859,0.725,2.707,0.191l1.771-1.115c0.31-0.195,0.568-0.461,0.755-0.777l0.995-1.689
				c0.345-0.584,0.412-1.291,0.187-1.93c-0.227-0.64-0.724-1.146-1.358-1.384l-1.529-0.573c-0.853-0.319-1.813-0.104-2.448,0.546
				l-0.613,0.628c-0.233,0.238-0.478,0.464-0.734,0.677l-0.993,0.824c-0.522,0.434-0.825,1.076-0.829,1.754
				c-0.004,0.679,0.294,1.324,0.812,1.763L12.214,8.575z"/>
			<path d="M23.144,17.938c0.225,0.533,0.674,0.938,1.229,1.104l5.103,1.519c0.521,0.154,1.08,0.083,1.544-0.195
				c0.465-0.278,0.788-0.74,0.896-1.27l0.415-2.055c0.105-0.529-0.015-1.08-0.331-1.516l-1.429-1.96
				c-0.516-0.706-1.439-0.978-2.255-0.662l-1.787,0.693c-0.683,0.264-1.406,0.4-2.14,0.4c-0.645,0-1.246,0.322-1.604,0.859
				c-0.358,0.537-0.423,1.216-0.174,1.811L23.144,17.938z"/>
			<path d="M42.238,25.932l-2.315-0.063c-0.595-0.019-1.153,0.277-1.474,0.78l-0.747,1.172c-0.356,0.561-0.354,1.278,0.013,1.837
				l1.84,2.8c0.502,0.766,1.523,0.992,2.304,0.509l1.841-1.14c0.497-0.31,0.8-0.853,0.8-1.438v-2.131
				C44.498,26.998,43.496,25.968,42.238,25.932z"/>
			<path d="M25.138,6.591c0.502,0.766,1.523,0.992,2.304,0.509l2.049-1.14c0.496-0.308,1.008-0.852,1.008-1.437V2.392
				c0-1.259-1.21-2.289-2.468-2.325L25.611,0c-0.597-0.017-1.206,0.279-1.526,0.781l-0.771,1.171c-0.356,0.561-0.365,1.28,0,1.837
				L25.138,6.591z"/>
		</g>
	</g>
</g>
<g>
</g>
<g>
</g>
<g>
</g>
<g>
</g>
<g>
</g>
<g>
</g>
<g>
</g>
<g>
</g>
<g>
</g>
<g>
</g>
<g>
</g>
<g>
</g>
<g>
</g>
<g>
</g>
<g>
</g>
</svg>
