<svg height="16px" viewBox="-4 0 512 512.00076" width="16px" xmlns="http://www.w3.org/2000/svg">
    <linearGradient id="a" x1="0%" y1="91.064%" y2="8.936%">
        <stop offset="0%" stop-color="#FFFFFF"/>
        <stop offset="100%" stop-color="#c9c6c6"/>
    </linearGradient>

    <g  fill-rule="evenodd">
        <path d="m454.21875 22.957031-103.425781 191.140625c14.132812 2.070313 27.160156 9.011719 35.429687 21.566406l104.417969-192.953124c14.246094-26.296876-21.609375-47.125-36.421875-19.753907zm0 0"
              fill="url(#a)"/>
        <path d="m276.199219 255.332031c-8.839844 9.945313-19.828125 20.003907-32.058594 29.785157l134.207031 89.261718c3.9375-15.898437 7.507813-31.992187 10.394532-47.496094zm0 0"
              fill="url(#a)"/>
        <path d="m350.792969 214.097656c-23.421875-3.398437-49.84375 6.492188-62.84375 26.128906-3.285157 4.960938-7.25 10.003907-11.753907 15.105469l112.546876 71.550781c3.539062-19.183593 6.003906-37.433593 6.597656-53.1875.625-16.039062-2.917969-28.621093-9.121094-38.03125-8.265625-12.554687-21.292969-19.496093-35.425781-21.566406zm0 0"
              fill="url(#a)"/>
        <path d="m378.347656 374.378906-134.207031-89.261718c-40.527344 32.386718-94.875 61.402343-130.925781 70.898437-2.378906.621094 7.929687 30.917969 38.601562 63.816406 19.339844 20.746094 46.753906 42.507813 84.195313 58.519531 28.632812 12.242188 63.097656 21.109376 104.304687 23.578126 0 0 21.832032-61.917969 38.03125-127.550782zm0 0"
              fill="url(#a)"/>
        <path d="m40.769531 313.648438c-16.964843 0-30.699219 13.773437-30.699219 30.71875 0 16.976562 13.734376 30.722656 30.699219 30.722656 16.9375 0 30.671875-13.746094 30.671875-30.722656 0-16.945313-13.738281-30.71875-30.671875-30.71875zm0 0"
              fill="url(#a)"/>
        <path d="m108.171875 245.667969c-9.429687 0-17.078125 7.648437-17.078125 17.117187 0 9.4375 7.648438 17.089844 17.078125 17.089844 9.433594 0 17.078125-7.652344 17.078125-17.089844 0-9.46875-7.644531-17.117187-17.078125-17.117187zm0 0"
              fill="url(#a)"/>
        <path d="m85.570312 439.472656c0-10.089844-8.183593-18.277344-18.265624-18.277344-10.082032 0-18.265626 8.1875-18.265626 18.277344 0 10.117188 8.183594 18.304688 18.265626 18.304688 10.082031 0 18.265624-8.1875 18.265624-18.304688zm0 0"
              fill="url(#a)"/>
    </g>
    <path fill="url(#a)" d="m499.511719 14.722656c-5.757813-9.371094-16.058594-15.003906-26.917969-14.7109372-11.230469.3046872-21.15625 6.9257812-27.230469 18.1523432l-100.257812 185.289063c-1.195313-.054687-2.394531-.085937-3.605469-.085937-25.042969 0-49.359375 12.285156-61.945312 31.296874-8.988282 13.566407-23.652344 28.132813-41.15625 42.183594-.355469.246094-.691407.519532-1.011719.8125-38.875 30.972656-91.308594 59.28125-126.75 68.621094-4.34375 1.148438-8.425781 5.351562-7.746094 12.15625 1.019531 10.234375 14.21875 38.917969 41.507813 68.214844.015624.015625.03125.035156.046874.050781 3.722657 3.992187 7.699219 7.996094 11.949219 11.964844 17.21875 16.082031 41.632813 34.121093 74.511719 48.367187.78125.460938 1.605469.808594 2.457031 1.039063 28.8125 12.160156 63.972657 21.378906 106.351563 23.910156.203125.011719.402344.015625.601562.015625 4.246094 0 8.070313-2.675781 9.496094-6.722656 1.710938-4.859375 34.285156-97.816406 48.832031-176.578125.011719-.074219.027344-.148438.039063-.226563 3.597656-19.523437 6.089844-38.175781 6.71875-54.382812.574218-14.683594-2.042969-27.753906-7.640625-38.59375l101.734375-187.988282c6-11.082031 6.007812-23.03125.015625-32.785156zm-158.011719 208.785156c13.003906 0 24.402344 4.410157 32.097656 12.414063 1.519532 1.578125 2.890625 3.289063 4.113282 5.121094.070312.105469.140624.210937.214843.316406 5.390625 8.230469 7.863281 18.9375 7.351563 31.945313-.433594 11.167968-1.839844 23.691406-3.921875 36.949218l-90.144531-57.3125c1.847656-2.398437 3.566406-4.789062 5.136718-7.15625 8.960938-13.53125 26.683594-22.277344 45.152344-22.277344zm-8.195312 267.832032c-30.996094-2.519532-57.652344-8.855469-80.40625-17.214844 14.558593-17.539062 32.25-41.769531 51.214843-77.796875 2.589844-4.921875.699219-11.011719-4.222656-13.601563-4.921875-2.59375-11.011719-.699218-13.601563 4.21875-19.933593 37.871094-38.347656 62.0625-52.929687 79.105469-27.183594-12.539062-47.675781-27.722656-62.421875-41.363281-.746094-.691406-1.472656-1.378906-2.199219-2.066406 27.011719-13.746094 55.640625-29.996094 85.746094-55.003906 4.277344-3.554688 4.863281-9.902344 1.308594-14.183594-3.554688-4.273438-9.902344-4.863282-14.179688-1.308594-30.679687 25.480469-58.996093 41.039062-87.460937 55.296875-16.457032-18.859375-25.195313-35.5-28.945313-44.4375 35.335938-11.375 82.066407-36.753906 119.394531-65.464844l28.875 19.214844c1.714844 1.144531 3.65625 1.6875 5.570313 1.6875 3.257813 0 6.453125-1.578125 8.394531-4.492187 3.082032-4.628907 1.824219-10.882813-2.804687-13.960938l-23.695313-15.769531c6.070313-5.265625 11.738282-10.582031 16.886719-15.898438l99.714844 63.398438c-1.699219 8.644531-3.609375 17.453125-5.65625 26.28125l-22.820313-15.191407c-4.628906-3.082031-10.878906-1.828124-13.960937 2.800782s-1.828125 10.882812 2.800781 13.964844l28.914062 19.25c-12.464843 49.113281-27.640624 95.195312-33.515624 112.535156zm148.480468-453.421875-97.601562 180.347656c-5.359375-4.601563-11.570313-8.203125-18.398438-10.710937l97.292969-179.804688c1.835937-3.394531 5.074219-7.46875 10.066406-7.605469 3.640625-.074219 7.230469 1.910157 9.203125 5.121094 2.1875 3.558594 1.992188 7.933594-.5625 12.652344zm0 0"/>
    <path fill="url(#a)" d="m81.511719 344.367188c0-22.488282-18.277344-40.789063-40.742188-40.789063-22.480469 0-40.769531 18.300781-40.769531 40.789063 0 22.492187 18.289062 40.792968 40.769531 40.792968 22.464844 0 40.742188-18.300781 40.742188-40.792968zm-61.371094 0c0-11.382813 9.253906-20.644532 20.628906-20.644532 11.359375 0 20.601563 9.261719 20.601563 20.644532 0 11.386718-9.242188 20.648437-20.601563 20.648437-11.375 0-20.628906-9.261719-20.628906-20.648437zm0 0"/>
    <path fill="url(#a)" d="m67.304688 411.121094c-15.625 0-28.335938 12.71875-28.335938 28.351562 0 15.644532 12.710938 28.378906 28.335938 28.378906s28.339843-12.730468 28.339843-28.378906c-.003906-15.632812-12.714843-28.351562-28.339843-28.351562zm0 36.585937c-4.519532 0-8.195313-3.695312-8.195313-8.234375 0-4.527344 3.675781-8.207031 8.195313-8.207031 4.519531 0 8.195312 3.679687 8.195312 8.207031 0 4.539063-3.675781 8.234375-8.195312 8.234375zm0 0"/>
    <path fill="url(#a)" d="m108.171875 289.945312c14.972656 0 27.148437-12.1875 27.148437-27.160156 0-14.992187-12.175781-27.1875-27.148437-27.1875-14.96875 0-27.144531 12.195313-27.144531 27.1875-.003906 14.972656 12.175781 27.160156 27.144531 27.160156zm0-34.207031c3.863281 0 7.007813 3.160157 7.007813 7.046875 0 3.867188-3.144532 7.015625-7.007813 7.015625s-7.003906-3.148437-7.003906-7.015625c0-3.886718 3.140625-7.046875 7.003906-7.046875zm0 0"/>
    <path fill="url(#a)" d="m316.800781 321.339844-.171875-.113282c-4.644531-3.0625-10.890625-1.777343-13.949218 2.867188-3.0625 4.644531-1.777344 10.890625 2.867187 13.949219l.167969.113281c1.707031 1.125 3.632812 1.664062 5.53125 1.664062 3.273437 0 6.484375-1.59375 8.417968-4.53125 3.0625-4.644531 1.78125-10.890624-2.863281-13.949218zm0 0"/>
</svg>