<svg xmlns="http://www.w3.org/2000/svg" xmlns:xlink="http://www.w3.org/1999/xlink" id="Capa_1" x="0" y="0" enable-background="new 0 0 295.182 295.182" version="1.1" viewBox="0 0 16 16" xml:space="preserve"><linearGradient id="a" x1="0%" y1="91.064%" y2="8.936%"><stop offset="0%" stop-color="#FFF"/><stop offset="100%" stop-color="#c9c6c6"/></linearGradient><path id="XMLID_3_" fill="url(#a)" d="M200.499,124.4c7.97-2.797,16.318-1.474,25.258,0.49c5.901,1.3,12.006,2.648,18.854,2.648	c9.165,0,17.745-2.51,26.232-7.669c13.081-7.954,22.03-22.183,23.94-38.061c2.178-18.143-4.619-36.142-19.146-50.667	c-14.42-14.42-33.67-22.357-54.203-22.357c-20.955,0-40.715,8.22-55.642,23.143c-18.656,18.657-30.793,48.403-31.003,75.684	c-4.439-3.231-8.37-7.189-10.389-12.929c-3.125-8.877-1.449-16.469,0.488-25.259c2.658-12.04,5.96-27.025-5.019-45.087	C110.743,9.334,93.657,0.011,75.274,0.011c-15.858,0-31.53,6.938-44.131,19.534C1.076,49.622,1.436,98.898,31.934,129.39	c18.411,18.416,48.665,30.816,75.601,31.119c-3.221,4.395-7.159,8.266-12.851,10.272c-7.957,2.808-16.306,1.493-25.261-0.489	c-5.899-1.299-12.004-2.649-18.856-2.649c-9.161,0-17.742,2.508-26.228,7.667c-13.081,7.956-22.03,22.184-23.94,38.063	c-2.179,18.143,4.622,36.143,19.145,50.666c14.419,14.42,33.671,22.356,54.205,22.356c20.954,0,40.716-8.22,55.642-23.142	c18.656-18.657,30.792-48.402,31.004-75.683c4.436,3.23,8.367,7.189,10.389,12.927c3.124,8.877,1.449,16.469-0.49,25.26	c-2.658,12.039-5.96,27.025,5.02,45.087c9.126,15.004,26.213,24.327,44.596,24.327c15.859,0,31.531-6.939,44.132-19.534	c30.061-30.071,29.708-79.347-0.792-109.845c-18.411-18.418-48.666-30.817-75.599-31.118	C190.869,130.277,194.809,126.406,200.499,124.4z M160.187,160.187c-6.727,6.727-18.465,6.727-25.192,0	c-6.943-6.948-6.943-18.244,0-25.192c3.363-3.363,7.836-5.215,12.596-5.215c4.761,0,9.232,1.852,12.597,5.215	C167.129,141.943,167.129,153.239,160.187,160.187z"/></svg>
