<svg xmlns="http://www.w3.org/2000/svg" width="57" height="34" fill="none" viewBox="0 0 57 34"><path fill="#D0021B" fill-rule="evenodd" stroke="#E30001" stroke-width=".5" d="M49.9102 1C50.1173 1 50.3048 1.08394 50.4406 1.21967C50.5491 1.32824 50.6246 1.46997 50.6504 1.62836L50.6602 1.75V32.75C50.6602 32.9571 50.5763 33.1446 50.4406 33.2803C50.332 33.3889 50.1903 33.4643 50.0319 33.4902L49.9102 33.5H7.58976C7.38266 33.5 7.19516 33.4161 7.05943 33.2803C6.95085 33.1718 6.87541 33.03 6.84958 32.8716L6.83976 32.75V1.75C6.83976 1.54289 6.92371 1.35539 7.05943 1.21967C7.16801 1.11109 7.30973 1.03566 7.46811 1.00983L7.58976 1H49.9102ZM15.5268 26.911H10.033L10.0331 31.25H15.527L15.5268 26.911ZM23.5448 26.911H17.9178L17.9169 31.25H23.545L23.5448 26.911ZM39.5818 26.911H33.9538L33.954 31.25H39.582L39.5818 26.911ZM47.4659 26.911H41.9718L41.972 31.25H47.4669L47.4659 26.911ZM31.5638 26.911H25.9358L25.936 31.25H31.563L31.5638 26.911ZM41.9718 18.649V24.111H47.466V18.6501L41.9718 18.649ZM15.5268 18.649L10.033 18.6501V24.111H15.5268V18.649ZM23.5448 18.649H17.9178V24.111H23.5448V18.649ZM39.5818 18.649H33.9538V24.111H39.5818V18.649ZM31.5638 18.649H25.9358V24.111H31.5638V18.649ZM47.466 10.388H41.9718V15.85H47.466V10.388ZM10.033 10.388V15.85H15.5268V10.388H10.033ZM17.9178 10.388V15.85H23.5448V10.388H17.9178ZM31.5638 10.388H25.9358V15.85H31.5638V10.388ZM39.5818 10.388H33.9538V15.85H39.5818V10.388ZM47.4669 3.25H41.972L41.9718 7.58801H47.4659L47.4669 3.25ZM15.527 3.25H10.0331L10.033 7.58801H15.5268L15.527 3.25ZM23.545 3.25H17.9169L17.9178 7.58801H23.5448L23.545 3.25ZM31.563 3.25H25.936L25.9358 7.58801H31.5638L31.563 3.25ZM39.582 3.25H33.954L33.9538 7.58801H39.5818L39.582 3.25ZM56.5 7.70331V26.7967H53.146V7.70331H56.5ZM4.35395 7.70331V26.7967H1V7.70331H4.35395Z" clip-rule="evenodd"/></svg>