<svg width="54" height="31" version="1.1" viewBox="0 0 1200 1200" fill="{{fillColor}}" stroke="{{strokeColor}}" xmlns="http://www.w3.org/2000/svg">
  <g>
    <path d="m1103.8 421.69c-16.531-10.051-37.07-10.902-54.375-2.25l-949.12 474.56c-7.2383 3.3438-13.426 8.6094-17.891 15.219-4.4609 6.6094-7.0273 14.316-7.4219 22.281v62.25c0.96094 12.488 6.7852 24.098 16.215 32.336 9.4336 8.2422 21.719 12.449 34.223 11.727h949.12c12.504 0.72266 24.789-3.4844 34.223-11.727 9.4297-8.2383 15.254-19.848 16.215-32.336v-536.06c-0.21094-14.898-8.2617-28.582-21.188-36z"/>
    <path d="m354.38 725.06 125.62-62.812v-60.562h-125.62z"/>
    <path d="m845.62 337.5h-151.88v75h151.88z"/>
    <path d="m922.5 256.31v-50.062c0-11.688-4.6406-22.895-12.906-31.156-8.2617-8.2656-19.469-12.906-31.156-12.906h-556.88c-11.688 0-22.895 4.6406-31.156 12.906-8.2656 8.2617-12.906 19.469-12.906 31.156v50.625c0.24609 11.523 4.9961 22.492 13.234 30.551 8.2344 8.0625 19.301 12.578 30.828 12.574h556.88c11.621 0 22.773-4.5898 31.023-12.773 8.2539-8.1836 12.941-19.293 13.039-30.914z"/>
    <path d="m480 337.5h-125.62v75h125.62z"/>
    <path d="m517.5 337.88h138.75v75.75h-138.75z"/>
    <path d="m517.5 601.69v41.812s83.812-41.625 83.812-42-82.125 0-83.812 0.1875z"/>
    <path d="m845.62 479.44v-28.312h-226.88v113.06h57.375z"/>
    <path d="m581.25 451.12h-226.88v112.5h226.88z"/>
  </g>
</svg>
