<svg xmlns="http://www.w3.org/2000/svg" xmlns:xlink="http://www.w3.org/1999/xlink" width="60" height="58" viewBox="0 0 60 58"><defs><path id="b" d="M7.901 42.325a3.836 3.836 0 0 1 3.835 3.838A3.836 3.836 0 0 1 7.901 50a3.836 3.836 0 0 1-3.835-3.837 3.836 3.836 0 0 1 3.835-3.838zm34.167 0a3.836 3.836 0 0 1 3.835 3.838A3.836 3.836 0 0 1 42.068 50a3.836 3.836 0 0 1-3.835-3.837 3.836 3.836 0 0 1 3.835-3.838zm-27.386-2.949c3.256-4.275 8.813-3 10.176 1.278 1.362 4.278 5.492 6.823 3.793 8.158-1.016.61-3.462.921-4.988-2.875-1.526-3.796-12.237-2.285-8.981-6.56zm15.373-6.51a3.836 3.836 0 0 1 3.835 3.838 3.836 3.836 0 0 1-3.835 3.837 3.836 3.836 0 0 1-3.835-3.837 3.836 3.836 0 0 1 3.835-3.838zM2.483 13.796c5.383-2.94 8.66-.317 9.83 7.87.418 1.976 1.441 3.086 3.07 3.33 3.57.81 4.357-3.472 10.084-5.502 7.142-2.26 8.017 5.248 6.012 9.302-2.005 4.054-8.738-4.022-9.71 1.67-1.061 5.224-5.384 5.111-5.885 3.53-.602-3.172-4.882-2.921-5.22.747-.337 3.668-5.231 8.729-9.462 3.042-4.095-7.85 5.921-6.924 6.7-11.394.777-4.47-13.494-8.185-5.419-12.595zM30.35 1.218c4.513-2.858 5.36 5.855 6.576 7.021 1.672 1.76 4.43 1.371 5.736 3.716 1.305 2.345-2.627 3.63.712 5.85 3.34 2.218 2.888 6.954.791 9.249-2.097 2.295 2.196 16.016-5.87 11.447-8.067-4.57.576-9.443 2.866-13.506 2.289-4.062-4.2-6.365-5.735-8.577-1.536-2.213 1.068-7.087-2.41-7.087-1.918 0-8.158-4.013-2.666-8.113zM12.177.564c2.803-1.033 4.842-.647 6.117 1.159 2.384 3.583 0 4.54 0 7.851 0 3.31 5.905 6.62 1.932 8.507-3.973 1.886-4.66-1.059-4.317-5.45.344-4.392-3.125-2.17-5.472-4.575-2.15-3.05-1.569-5.547 1.74-7.492zM25.435 8.24a3.836 3.836 0 0 1 3.835 3.838 3.836 3.836 0 0 1-3.835 3.837 3.836 3.836 0 0 1-3.835-3.837 3.836 3.836 0 0 1 3.835-3.838zM3.887 2.783A3.836 3.836 0 0 1 7.722 6.62a3.836 3.836 0 0 1-3.835 3.837A3.836 3.836 0 0 1 .052 6.62a3.836 3.836 0 0 1 3.835-3.837zM44.165.564A3.836 3.836 0 0 1 48 4.402a3.836 3.836 0 0 1-3.835 3.837 3.836 3.836 0 0 1-3.835-3.837A3.836 3.836 0 0 1 44.165.564z"/><filter id="a" width="129.2%" height="128%" x="-14.6%" filterUnits="objectBoundingBox"><feOffset dy="2" in="SourceAlpha" result="shadowOffsetOuter1"/><feGaussianBlur in="shadowOffsetOuter1" result="shadowBlurOuter1" stdDeviation="2"/><feComposite in="shadowBlurOuter1" in2="SourceAlpha" operator="out" result="shadowBlurOuter1"/><feColorMatrix in="shadowBlurOuter1" values="0 0 0 0 0 0 0 0 0 0 0 0 0 0 0 0 0 0 0.523601399 0"/></filter><rect id="d" width="16" height="16" rx="2"/><filter id="c" width="187.5%" height="187.5%" x="-43.8%" y="-31.2%" filterUnits="objectBoundingBox"><feOffset dy="2" in="SourceAlpha" result="shadowOffsetOuter1"/><feGaussianBlur in="shadowOffsetOuter1" result="shadowBlurOuter1" stdDeviation="2"/><feComposite in="shadowBlurOuter1" in2="SourceAlpha" operator="out" result="shadowBlurOuter1"/><feColorMatrix in="shadowBlurOuter1" values="0 0 0 0 0 0 0 0 0 0 0 0 0 0 0 0 0 0 0.5 0"/></filter></defs><g fill="none" fill-rule="evenodd"><g transform="translate(4 2)"><use fill="#000" filter="url(#a)" xlink:href="#b"/><path fill="#D0021B" stroke="#E30001" stroke-linejoin="square" stroke-width=".5" d="M7.901 42.575a3.586 3.586 0 0 0-3.585 3.588 3.586 3.586 0 0 0 3.585 3.587 3.586 3.586 0 0 0 3.585-3.587 3.586 3.586 0 0 0-3.585-3.588zm34.167 0a3.586 3.586 0 0 0-3.585 3.588 3.586 3.586 0 0 0 3.585 3.587 3.586 3.586 0 0 0 3.585-3.587 3.586 3.586 0 0 0-3.585-3.588zm-27.187-3.047c-.723.95-.725 1.544-.149 2.016.51.418 1.334.706 3.03 1.131l.622.155.634.16c2.86.736 4.319 1.465 4.877 2.854 1.2 2.984 3.134 3.652 4.601 2.77.416-.326.409-.742-.01-1.474-.274-.48-1.897-2.666-1.944-2.732-.904-1.291-1.527-2.437-1.923-3.678-1.363-4.28-6.73-5.151-9.738-1.202zm15.174-6.412a3.586 3.586 0 0 0-3.585 3.588 3.586 3.586 0 0 0 3.585 3.587 3.586 3.586 0 0 0 3.585-3.587 3.586 3.586 0 0 0-3.585-3.588zm-27.452-19.1C.853 14.97.15 15.893.262 16.839c.096.814.767 1.685 2.059 2.792.457.392.796.66 1.798 1.439 3.236 2.511 4.314 3.722 4.029 5.364-.267 1.532-1.218 2.34-3.744 3.718l-.199.108c-3.88 2.117-4.768 3.6-2.802 7.376 1.85 2.486 3.93 3.012 5.867 1.918 1.662-.938 2.978-3.01 3.146-4.834.354-3.845 5.037-4.337 5.706-.8.21.666 1.298 1 2.415.626 1.405-.47 2.528-1.867 2.987-4.123.258-1.512.942-2.247 2.03-2.314.78-.048 1.457.155 3.166.828l.218.086c2.555 1 3.64 1.03 4.317-.338 1.017-2.056 1.217-4.86.417-6.813-.924-2.255-2.988-3.134-6.122-2.143-1.538.546-2.796 1.276-4.024 2.25-.53.423-2.397 2.112-2.856 2.453-1.1.816-2.087 1.092-3.323.81-1.74-.26-2.84-1.452-3.28-3.541-1.15-8.035-4.262-10.527-9.464-7.685zM30.492 1.424c-2.333 1.745-2.629 3.548-1.386 5.24.964 1.313 2.892 2.417 3.91 2.417 1.069 0 1.71.435 1.995 1.265.204.596.22 1.159.157 2.586-.01.233-.016.35-.02.486-.052 1.425.058 2.245.483 2.857.237.342.618.71 1.185 1.163.227.182.475.37.82.628-.07-.053.684.504.89.66 3.115 2.338 4.172 4.05 2.852 6.392-.528.938-.987 1.481-2.89 3.565-2.579 2.825-3.52 4.335-3.286 5.992.18 1.27 1.19 2.462 3.216 3.608 2.2 1.247 3.467 1.15 4.142-.02.558-.967.723-2.478.704-5.182-.001-.244-.003-.448-.009-.873-.041-3.425.06-4.595.726-5.323 2.276-2.491 2.168-6.937-.745-8.873-1.467-.974-1.756-1.857-1.285-3.01.07-.172.117-.27.29-.623.519-1.057.607-1.575.202-2.302-.573-1.029-1.254-1.454-2.985-2.114-.039-.014-.039-.014-.077-.03-1.368-.52-2.003-.855-2.628-1.513-.132-.127-.253-.312-.378-.564-.246-.496-1.185-3.227-1.199-3.262-.567-1.515-1.12-2.533-1.79-3.136-.8-.718-1.721-.773-2.894-.034zM12.285.791c-3.168 1.87-3.703 4.198-1.67 7.09.457.468.98.777 1.618.993.375.127.585.176 1.379.34 2.062.423 2.73 1.091 2.546 3.436-.186 2.384-.038 4.02.506 4.932.585.982 1.667 1.121 3.455.273 1.055-.501 1.373-1.077 1.176-1.859-.158-.628-.401-1.015-1.552-2.636-1.204-1.695-1.7-2.67-1.7-3.786 0-.966.163-1.691.544-2.793l.164-.47c.059-.174.105-.316.146-.452.404-1.355.254-2.397-.808-3.992C16.891.169 14.98-.197 12.285.79zm13.15 7.698a3.586 3.586 0 0 0-3.585 3.588 3.586 3.586 0 0 0 3.585 3.587 3.586 3.586 0 0 0 3.585-3.587 3.586 3.586 0 0 0-3.585-3.588zM3.887 3.033A3.586 3.586 0 0 0 .302 6.62a3.586 3.586 0 0 0 3.585 3.587A3.586 3.586 0 0 0 7.472 6.62a3.586 3.586 0 0 0-3.585-3.587zM44.165.814a3.586 3.586 0 0 0-3.585 3.588 3.586 3.586 0 0 0 3.585 3.587 3.586 3.586 0 0 0 3.585-3.587A3.586 3.586 0 0 0 44.165.814z"/><path stroke="#FFF" d="M7.901 41.825a4.336 4.336 0 0 1 4.335 4.338A4.336 4.336 0 0 1 7.901 50.5a4.336 4.336 0 0 1-4.335-4.337 4.336 4.336 0 0 1 4.335-4.338zm34.167 0a4.336 4.336 0 0 1 4.335 4.338 4.336 4.336 0 0 1-4.335 4.337 4.336 4.336 0 0 1-4.335-4.337 4.336 4.336 0 0 1 4.335-4.338zm-27.784-2.751c3.372-4.43 9.5-3.434 11.05 1.429.369 1.157.958 2.24 1.822 3.474.021.03 1.681 2.264 1.982 2.791.58 1.017.594 1.83-.23 2.472-1.89 1.138-4.338.293-5.709-3.117-.433-1.076-1.743-1.73-4.368-2.407a75.764 75.764 0 0 0-.628-.158l-.623-.155c-1.816-.455-2.693-.762-3.323-1.279-.923-.756-.92-1.807.027-3.05zm15.771-6.708a4.336 4.336 0 0 1 4.335 4.338 4.336 4.336 0 0 1-4.335 4.337 4.336 4.336 0 0 1-4.335-4.337 4.336 4.336 0 0 1 4.335-4.338zM2.243 13.357c5.746-3.138 9.352-.251 10.56 8.205.376 1.784 1.247 2.728 2.692 2.946 1.021.232 1.792.017 2.727-.678.424-.315 2.278-1.992 2.838-2.437 1.289-1.024 2.618-1.795 4.256-2.376 3.504-1.108 5.974-.056 7.05 2.57.885 2.162.67 5.19-.439 7.43-.928 1.878-2.365 1.839-5.262.705l-.22-.087c-1.589-.625-2.223-.816-2.846-.777-.709.043-1.133.498-1.34 1.707-.51 2.514-1.811 4.132-3.484 4.692-1.47.493-3.01.02-3.383-1.168-.507-2.676-3.952-2.314-4.23.7-.19 2.067-1.645 4.358-3.523 5.418-2.279 1.287-4.77.657-6.88-2.19-2.223-4.263-1.105-6.128 3.087-8.416l.199-.108c2.322-1.266 3.152-1.972 3.364-3.187.213-1.224-.783-2.34-3.75-4.644-1.013-.786-1.356-1.058-1.826-1.461-1.426-1.223-2.191-2.214-2.316-3.274-.155-1.313.738-2.484 2.726-3.57zM30.633 1.63l-.015.01.031-.021-.015.011zm-.582-.813l.032-.021C31.537-.125 32.83-.05 33.886.9c.785.705 1.386 1.81 1.993 3.43.03.081.947 2.747 1.168 3.192.09.18.168.3.241.372.533.56 1.093.855 2.36 1.338l.078.03c1.885.718 2.687 1.219 3.372 2.449.56 1.004.434 1.74-.184 2.998a8.28 8.28 0 0 0-.269.576c-.333.817-.168 1.322 1.006 2.102 3.328 2.21 3.449 7.195.883 10.003-.464.508-.566 1.687-.529 4.808.006.426.008.631.01.877.019 2.847-.154 4.434-.805 5.563-.92 1.592-2.645 1.723-5.162.297-2.209-1.251-3.372-2.622-3.589-4.156-.279-1.976.734-3.6 3.476-6.603 1.852-2.028 2.303-2.562 2.79-3.427 1.061-1.883.192-3.292-2.649-5.425-.204-.153-.955-.709-.886-.657a29.144 29.144 0 0 1-.843-.644c-.618-.495-1.044-.907-1.332-1.321-.547-.789-.674-1.731-.617-3.312l.02-.493c.06-1.32.044-1.84-.117-2.31-.177-.519-.53-.757-1.286-.757-1.272 0-3.416-1.228-4.514-2.723-1.49-2.03-1.116-4.3 1.55-6.29zM11.924.133l.08-.038c2.998-1.105 5.278-.673 6.706 1.35 1.19 1.788 1.373 3.061.905 4.629-.043.146-.092.297-.155.48l-.164.473c-.357 1.03-.502 1.681-.502 2.547 0 .903.448 1.785 1.56 3.352 1.227 1.727 1.476 2.124 1.668 2.887.29 1.15-.22 2.073-1.582 2.72-2.099.996-3.604.803-4.42-.567-.648-1.087-.807-2.844-.61-5.374.15-1.916-.222-2.29-1.95-2.644-.827-.17-1.051-.222-1.467-.364a4.688 4.688 0 0 1-1.965-1.24c-2.32-3.291-1.662-6.12 1.896-8.21zM25.435 7.74a4.336 4.336 0 0 1 4.335 4.338 4.336 4.336 0 0 1-4.335 4.337 4.336 4.336 0 0 1-4.335-4.337 4.336 4.336 0 0 1 4.335-4.338zM3.887 2.283A4.336 4.336 0 0 1 8.222 6.62a4.336 4.336 0 0 1-4.335 4.337A4.336 4.336 0 0 1-.448 6.62a4.336 4.336 0 0 1 4.335-4.337zM44.165.064A4.336 4.336 0 0 1 48.5 4.402a4.336 4.336 0 0 1-4.335 4.337 4.336 4.336 0 0 1-4.335-4.337A4.336 4.336 0 0 1 44.165.064z"/></g></g></svg>