<svg xmlns="http://www.w3.org/2000/svg" xmlns:xlink="http://www.w3.org/1999/xlink" width="57" height="61" viewBox="0 0 57 61">
    <defs>
        <path id="b" d="M25.19 34.244v10.932a1 1 0 0 0 .883.993l.117.007h11.915a1 1 0 0 0 .993-.884l.007-.116V34.244h2.691L42 51.989a1 1 0 0 1-.883 1.004L41 53H23.52a1 1 0 0 1-.994-.883L22.52 52V34.244h2.67zM0 21.739l16.064 15.213V52a1 1 0 0 1-.883.993l-.117.007H0V21.739zm33.03 12.425l.07.092 2.045 3.015c.398.53.706 1.14.805 1.815.355 2.41-1.648 4.007-3.682 4.007s-4.06-1.596-3.682-4.007c.104-.668.41-1.273.804-1.8l2.055-3.03a1 1 0 0 1 1.585-.092zM0 12.339L20.316 32.51v5.234L0 18.232v-5.893zm20.27 9.004l.079.098.956 1.356c.465.46.753 1.1.753 1.808a2.53 2.53 0 0 1-2.525 2.536 2.53 2.53 0 0 1-2.524-2.536c0-.698.28-1.33.734-1.789l.97-1.375a1 1 0 0 1 1.557-.098zm-7.982-8.02l.078.098.956 1.357c.465.46.753 1.1.753 1.807a2.53 2.53 0 0 1-2.524 2.537 2.53 2.53 0 0 1-2.525-2.537c0-.698.28-1.33.735-1.788l.97-1.376a1 1 0 0 1 1.557-.098zm-7.983-8.02l.079.098.955 1.357c.466.46.754 1.1.754 1.807a2.53 2.53 0 0 1-2.525 2.537 2.53 2.53 0 0 1-2.524-2.537c0-.698.28-1.33.734-1.788l.97-1.376a1 1 0 0 1 1.557-.098zM12.556.33l.079.098.955 1.357c.465.46.754 1.1.754 1.807a2.53 2.53 0 0 1-2.525 2.536 2.53 2.53 0 0 1-2.524-2.536c0-.698.28-1.33.734-1.788l.97-1.376A1 1 0 0 1 12.556.33z"/>
        <filter id="a" width="133.3%" height="126.4%" x="-16.7%" y="-9.4%" filterUnits="objectBoundingBox">
            <feOffset dy="2" in="SourceAlpha" result="shadowOffsetOuter1"/>
            <feGaussianBlur in="shadowOffsetOuter1" result="shadowBlurOuter1" stdDeviation="2"/>
            <feComposite in="shadowBlurOuter1" in2="SourceAlpha" operator="out" result="shadowBlurOuter1"/>
            <feColorMatrix in="shadowBlurOuter1" values="0 0 0 0 0 0 0 0 0 0 0 0 0 0 0 0 0 0 0.523601399 0"/>
        </filter>
        <rect id="d" width="16" height="16" rx="2"/>
        <filter id="c" width="187.5%" height="187.5%" x="-43.8%" y="-31.2%" filterUnits="objectBoundingBox">
            <feOffset dy="2" in="SourceAlpha" result="shadowOffsetOuter1"/>
            <feGaussianBlur in="shadowOffsetOuter1" result="shadowBlurOuter1" stdDeviation="2"/>
            <feComposite in="shadowBlurOuter1" in2="SourceAlpha" operator="out" result="shadowBlurOuter1"/>
            <feColorMatrix in="shadowBlurOuter1" values="0 0 0 0 0 0 0 0 0 0 0 0 0 0 0 0 0 0 0.5 0"/>
        </filter>
    </defs>
    <g fill="none" fill-rule="evenodd">
        <g transform="matrix(-1 0 0 1 46 2)">
            <use fill="#000" filter="url(#a)" xlink:href="#b"/>
            <path fill="#D0021B" stroke="#E30001" stroke-linejoin="square" stroke-width=".5" d="M24.94 34.494h-2.17l-.001 17.492.005.102a.75.75 0 0 0 .745.662h17.467l.102-.005A.75.75 0 0 0 41.75 52v-.009l-.2-17.497h-2.195V45.19l-.009.131a1.25 1.25 0 0 1-1.241 1.105h-11.93l-.13-.009a1.25 1.25 0 0 1-1.105-1.241V34.494zM.25 22.32v30.43h14.8l.102-.005a.75.75 0 0 0 .662-.745V37.06L.25 22.32zm32.586 12.002a.75.75 0 0 0-1.184.075l-2.062 3.04c-.405.54-.666 1.106-.757 1.688-.326 2.077 1.345 3.718 3.435 3.718 2.081 0 3.741-1.636 3.435-3.72-.086-.587-.348-1.157-.765-1.712l-2.036-3.003-.066-.086zM.25 12.939v5.186l19.816 19.034v-4.544L.25 12.939zm19.83 8.567a.75.75 0 0 0-1.162.08l-.997 1.406c-.422.426-.662 1-.662 1.613a2.28 2.28 0 0 0 2.274 2.286 2.28 2.28 0 0 0 2.275-2.286 2.33 2.33 0 0 0-.708-1.664l-.946-1.344-.074-.091zm-7.982-8.02a.75.75 0 0 0-1.163.08l-.997 1.407c-.421.425-.662 1-.662 1.612a2.28 2.28 0 0 0 2.275 2.287 2.28 2.28 0 0 0 2.274-2.287 2.33 2.33 0 0 0-.707-1.663l-.947-1.345-.073-.091zm-7.983-8.02a.75.75 0 0 0-1.163.08l-.996 1.407c-.422.426-.662 1-.662 1.612a2.28 2.28 0 0 0 2.274 2.287 2.28 2.28 0 0 0 2.275-2.287 2.33 2.33 0 0 0-.708-1.663l-.947-1.344-.073-.092zM12.366.493a.75.75 0 0 0-1.163.08l-.996 1.406c-.422.426-.662 1-.662 1.613a2.28 2.28 0 0 0 2.274 2.286 2.28 2.28 0 0 0 2.275-2.286 2.33 2.33 0 0 0-.708-1.663L12.439.584l-.073-.091z"/>
            <path stroke="#FFF" d="M25.69 33.744v11.432c0 .254.191.467.412.494l.088.006h11.915c.254 0 .467-.191.494-.412l.006-.088V33.744h3.686l.209 18.239V52c0 .763-.573 1.403-1.355 1.492L41 53.5H23.52a1.506 1.506 0 0 1-1.493-1.355L22.019 52V33.744h3.67zM-.5 20.576l17.064 16.161V52c0 .763-.573 1.403-1.355 1.492l-.145.008H-.5V20.576zm33.908 13.261l.019.023.087.116 2.03 2.994c.481.64.795 1.323.901 2.043.377 2.568-1.664 4.58-4.177 4.58-2.522 0-4.579-2.019-4.176-4.585.111-.711.423-1.388.884-2.002l2.055-3.03a1.5 1.5 0 0 1 2.377-.139zM-.5 11.137l21.316 21.165v6.617L-.5 18.445v-7.307zm21.14 9.87l.02.023.097.123.9 1.289c.572.567.901 1.34.901 2.163a3.03 3.03 0 0 1-3.025 3.036 3.03 3.03 0 0 1-3.024-3.036c0-.812.32-1.575.826-2.077l.97-1.375a1.5 1.5 0 0 1 2.335-.146zm-7.982-8.02l.02.024.097.122.899 1.29c.573.566.901 1.339.901 2.162a3.03 3.03 0 0 1-3.024 3.037 3.03 3.03 0 0 1-3.025-3.037c0-.812.32-1.575.826-2.077l.97-1.375a1.5 1.5 0 0 1 2.336-.146zm-7.983-8.02l.02.024.097.122.9 1.29c.572.566.9 1.339.9 2.162a3.03 3.03 0 0 1-3.024 3.037A3.03 3.03 0 0 1 .544 8.565c0-.812.32-1.575.825-2.076l.97-1.375a1.5 1.5 0 0 1 2.336-.147zm8.25-4.973l.021.023.097.123.899 1.29c.573.566.902 1.338.902 2.162a3.03 3.03 0 0 1-3.025 3.036 3.03 3.03 0 0 1-3.024-3.036c0-.812.32-1.575.825-2.077L10.59.14a1.5 1.5 0 0 1 2.336-.146z"/>
        </g>
    </g>
</svg>
