<svg xmlns="http://www.w3.org/2000/svg" xmlns:xlink="http://www.w3.org/1999/xlink" width="63" height="44" viewBox="0 0 63 44"><defs><filter id="prefix__a" width="125.3%" height="139.3%" x="-12.7%" y="-14%" filterUnits="objectBoundingBox"><feOffset dy="2" in="SourceAlpha" result="shadowOffsetOuter1"/><feGaussianBlur in="shadowOffsetOuter1" result="shadowBlurOuter1" stdDeviation="2"/><feComposite in="shadowBlurOuter1" in2="SourceAlpha" operator="out" result="shadowBlurOuter1"/><feColorMatrix in="shadowBlurOuter1" values="0 0 0 0 0 0 0 0 0 0 0 0 0 0 0 0 0 0 0.523601399 0"/></filter><path id="prefix__b" d="M27.617 0c5.525 0 8.356 2.83 10.853 5.329l.213.212c2.27 2.259 4.402 4.168 8.46 4.168h3.236c2.677 0 4.855 2.178 4.855 4.855 0 7.824-6.322 14.177-14.067 14.502-3.132 3.702-7.48 6.534-13.55 6.534-6.083 0-10.436-2.844-13.57-6.556C6.208 28.605 0 22.31 0 14.564c0-2.677 2.178-4.855 4.855-4.855H8.09c4.184 0 6.321-2.03 8.673-4.38l.179-.18C19.397 2.698 22.223 0 27.617 0zm2.242 11.591h-3.711c-.341 0-.618.277-.618.618v4.322h-4.328c-.341 0-.618.276-.618.617v3.705c0 .341.277.617.618.617h4.322v4.323c0 .34.277.617.618.617h3.704c.341 0 .618-.276.618-.617V21.47h4.334c.341 0 .618-.276.618-.617v-3.705c0-.34-.277-.617-.618-.617h-4.322v-4.322c0-.341-.276-.618-.617-.618zM6.735 12.945h-1.88c-.893 0-1.619.726-1.619 1.619 0 5.119 3.545 9.407 8.217 10.804-2.82-4.803-4.233-9.986-4.718-12.423zm43.644 0H48.5c-.485 2.437-1.898 7.62-4.718 12.423 4.672-1.397 8.217-5.685 8.217-10.804 0-.893-.726-1.619-1.619-1.619z"/></defs><g fill="none" fill-rule="evenodd" transform="translate(4 2)"><use fill="#000" filter="url(#prefix__a)" xlink:href="#prefix__b"/><path fill="#D0021B" stroke="#E30001" stroke-linejoin="square" stroke-width=".5" d="M27.617.25c5.308 0 8.084 2.664 10.498 5.077h0l.392.392c2.244 2.233 4.362 4.118 8.26 4.235h0l3.612.005c1.27 0 2.421.517 3.255 1.35.833.834 1.35 1.985 1.35 3.255 0 3.824-1.537 7.29-4.018 9.848-2.509 2.586-5.982 4.244-9.81 4.404-3.268 3.738-7.553 6.534-13.539 6.534-5.998 0-10.29-2.807-13.378-6.468-4.046-.304-7.51-1.97-10.002-4.538C1.765 21.795.25 18.357.25 14.564c0-1.233.487-2.354 1.278-3.18.794-.83 1.894-1.365 3.116-1.42h0l3.447-.005c4.138 0 6.319-1.935 8.636-4.24h0l.392-.392C19.533 2.914 22.31.25 27.617.25zm2.458 11.058l-4.795.684v4.318l-4.979.622.684 4.788h4.318l.622 4.974 4.789-.685v-4.318l4.985-.621-.684-4.79h-4.318l-.622-4.972zM6.941 12.695H4.855c-.516 0-.983.21-1.321.548-.338.338-.548.805-.548 1.32 0 2.569.872 4.932 2.325 6.842 1.507 1.982 3.64 3.476 6.07 4.203.2.06.402.114.604.163-.106-.175-.212-.351-.317-.53-2.882-4.91-4.285-10.218-4.727-12.546zm43.438 0h-2.086c-.442 2.328-1.845 7.636-4.727 12.547-.105.177-.21.354-.317.528.202-.048.403-.102.604-.162 2.43-.727 4.563-2.22 6.07-4.203 1.453-1.91 2.325-4.273 2.325-6.841 0-.516-.21-.983-.548-1.321-.338-.338-.805-.548-1.32-.548z"/><path stroke="#FFF" d="M27.617-.5c5.563 0 8.492 2.762 11.028 5.296h0l.391.39c2.106 2.096 4.079 3.906 7.74 4.018h0l3.603.005c1.477 0 2.815.6 3.785 1.57.97.97 1.57 2.308 1.57 3.785 0 4.026-1.617 7.676-4.23 10.37-2.59 2.67-6.159 4.4-10.097 4.621-3.21 3.724-7.642 6.545-13.79 6.545-6.162 0-10.602-2.834-13.812-6.57-3.978-.277-7.535-2.013-10.106-4.664C1.094 22.182-.5 18.56-.5 14.564c0-1.434.566-2.737 1.486-3.7.927-.968 2.213-1.59 3.642-1.65h0l3.463-.005c3.897 0 5.932-1.858 8.106-4.021h0l.392-.392C19.125 2.262 22.054-.5 27.617-.5zm1.809 12.658l-3.396.484v4.33l-4.879.61.485 3.388h4.33l.609 4.873 3.389-.484v-4.33l4.885-.61-.484-3.388h-4.33l-.61-4.873zM6.328 13.445H4.855c-.309 0-.588.126-.79.328-.203.203-.329.482-.329.79 0 2.398.816 4.605 2.172 6.388 1.15 1.512 2.688 2.72 4.449 3.486-2.28-4.257-3.518-8.61-4.03-10.992zm44.051 0h-1.473c-.511 2.382-1.749 6.735-4.029 10.991 1.761-.764 3.3-1.973 4.449-3.485 1.356-1.783 2.172-3.99 2.172-6.387 0-.309-.126-.588-.328-.79-.203-.203-.482-.329-.79-.329z"/></g></svg>