<svg xmlns="http://www.w3.org/2000/svg" width="33" height="33" viewBox="0 0 33 33">
    <path fill="#FFF" d="M19.45 7.678l.037.007.068.036 4.375 4.38v1.108l-.1.1h-.838l-.1-.1-.001-.612-3.97.002-.1-.1V8.752l-7.882-.047-.05 15.612 12.003.05v-7.88l.1-.1h.838l.1.1v8.808l-.1.1-13.879-.05-.1-.1.05-17.468.1-.1h9.448zm1.056 13.425l.1.1v.777l-.1.1h-7.053l-.1-.1v-.777l.1-.1h7.053zm.115-2.392l.1.1v.777l-.1.1h-7.097l-.1-.1v-.777l.1-.1h7.097zm-.092-2.212l.1.1v.777l-.1.1h-7.054l-.1-.1V16.6l.1-.1h7.054zm.081-2.295l.1.1v.777l-.1.1h-7.185l-.1-.1v-.777l.1-.1h7.185zm-4.426-2.419l.1.1v.777l-.1.1h-2.756l-.1-.1v-.777l.1-.1h2.756zm3.624-2.317l.001 2.153 2.187-.001-2.188-2.152z"/>
</svg>
