<svg xmlns="http://www.w3.org/2000/svg" width="54" height="31" fill="none" viewBox="0 0 54 31"><path fill="{{fillColor}}" d="M50.0165 19.5219C51.1353 19.9811 51.7363 16.9507 51.8592 15.4383H40.0659L38.2231 18.1606C40.8029 18.1606 46.6996 18.1606 50.0165 19.5219Z"/><path fill="{{fillColor}}" d="M48.9109 30.411C52.2277 30.411 52.5963 27.235 52.9648 24.9664H26.4298C25.6927 24.9664 28.6411 30.411 29.0096 30.411H48.9109Z"/><path stroke="{{fillColor}}" stroke-width=".75" d="M37.4861 12.2621C38.2231 11.3549 38.9602 9.53958 45.594 9.99356C50.901 10.3567 51.982 13.9258 51.8592 15.4383M51.8592 15.4383C51.7363 16.9507 51.1353 19.9811 50.0165 19.5219C46.6996 18.1606 40.8029 18.1606 38.2231 18.1606L40.0659 15.4383H51.8592ZM26.4298 24.059C27.044 22.849 28.4936 20.4292 29.3781 20.4292C30.4838 20.4292 34.9063 18.1606 48.9109 20.4292C50.7536 20.8829 53.3334 22.6978 52.9648 24.9664M52.9648 24.9664C52.5963 27.235 52.2277 30.411 48.9109 30.411C45.594 30.411 29.3781 30.411 29.0096 30.411C28.6411 30.411 25.6927 24.9664 26.4298 24.9664C27.0195 24.9664 44.3655 24.9664 52.9648 24.9664Z"/><path fill="{{fillColor}}" d="M35.6431 18.1603C36.0116 18.1603 36.7489 18.1603 37.1174 17.7066C37.6088 17.1017 38.5916 15.8012 38.5916 15.4382C38.5916 15.0752 26.5525 14.9843 20.533 14.9843C20.533 15.438 18.6904 18.1603 19.059 18.1603C24.6598 18.1603 27.1666 19.0677 27.5352 19.9752C27.9037 19.0677 32.326 18.1603 35.6431 18.1603Z"/><path stroke="{{fillColor}}" stroke-width=".75" d="M20.533 14.9843C20.533 15.438 18.6904 18.1603 19.059 18.1603C24.6598 18.1603 27.1666 19.0677 27.5352 19.9752C27.9037 19.0677 32.326 18.1603 35.6431 18.1603C36.0116 18.1603 36.7489 18.1603 37.1174 17.7066C37.6088 17.1017 38.5916 15.8012 38.5916 15.4382C38.5916 15.0752 26.5525 14.9843 20.533 14.9843ZM20.533 14.9843C20.533 14.6213 19.0407 12.7605 19.0588 12.716C20.9042 8.18089 32.6949 9.99362 34.5376 10.9011C35.8925 12.0855 38.9601 14.5307 38.5916 14.9845"/><path fill="#{{fillColor}}" d="M37.1173 10.9008C35.2746 8.17887 28.2723 8.6322 27.9037 8.6322C27.5352 8.63241 26.6507 8.17906 26.061 6.36399C26.061 6.00102 40.239 6.02987 47.328 6.08967C47.7867 7.45905 47.6963 8.6322 46.6994 8.6322C38.444 8.26922 37.8544 9.99375 37.1173 10.9008Z"/><path stroke="{{fillColor}}" stroke-width=".75" d="M47.328 6.08967C47.7867 7.45905 47.6963 8.6322 46.6994 8.6322C38.444 8.26922 37.8544 9.99375 37.1173 10.9008C35.2746 8.17887 28.2723 8.6322 27.9037 8.6322C27.5352 8.63241 26.6507 8.17906 26.061 6.36399C26.061 6.00102 40.239 6.02987 47.328 6.08967ZM47.328 6.08967C47.1084 5.43408 46.7629 4.73351 46.3308 4.09516C44.4881 1.37297 40.0656 0.0113053 29.7465 1.8264C28.6408 2.88521 26.4296 5.5473 26.4296 5.91027"/><path fill="{{fillColor}}" d="M6.52812 8.63211C5.34879 8.26914 6.03674 6.96847 6.52812 6.36351H24.9551C24.9551 7.08947 25.6922 8.17839 26.0607 8.63211C20.7537 8.63211 18.4442 10.1445 17.9528 10.9007C16.1101 7.72467 8.00229 9.08583 6.52812 8.63211Z"/><path stroke="{{fillColor}}" stroke-width=".75" d="M6.52812 6.36351C6.03674 6.96847 5.34879 8.26914 6.52812 8.63211C8.00229 9.08583 16.1101 7.72467 17.9528 10.9007C18.4442 10.1445 20.7537 8.63211 26.0607 8.63211C25.6922 8.17839 24.9551 7.08947 24.9551 6.36351H6.52812ZM6.52812 6.36351C7.01948 5.45607 8.29702 3.36896 9.47635 2.28004C10.9505 0.918879 21.2697 0.465159 25.3236 2.28004C25.9133 2.64316 26.5521 3.3389 26.7978 3.64138"/><path fill="{{fillColor}}" d="M17.5842 17.7072C18.1739 17.3442 19.0582 15.8925 19.0584 14.9849C13.6531 14.8337 2.8426 14.8109 2.8426 14.9849C2.84251 15.4388 2.47421 16.7999 4.3167 18.1609C6.1594 19.5221 16.8471 18.1609 17.5842 17.7072Z"/><path stroke="{{fillColor}}" stroke-width=".75" d="M2.8426 14.9849C2.8426 14.8109 13.6531 14.8337 19.0584 14.9849C19.0582 15.8925 18.1739 17.3442 17.5842 17.7072C16.8471 18.1609 6.1594 19.5221 4.3167 18.1609C2.47421 16.7999 2.84251 15.4388 2.8426 14.9849ZM2.8426 14.9849C2.96537 13.3213 3.948 9.99414 6.89633 9.99414C9.59897 9.99414 15.2991 10.2664 16.4784 11.3553C17.6578 12.4442 19.0582 14.0776 19.0582 14.5313"/><path fill="{{fillColor}}" d="M3.94833 30.4108C2.10563 30.4108 1 26.781 1 24.9661C8.61653 25.1174 23.997 24.6031 24.5867 24.9661C25.3238 25.4198 26.4294 28.369 26.7979 29.0496C27.535 30.4108 26.4294 30.4108 25.6923 30.4108H3.94833Z"/><path stroke="{{fillColor}}" stroke-width=".75" d="M26.4294 21.3364C26.6751 20.7314 25.0289 19.5215 16.4788 19.5215C8.37083 20.4289 5.79104 19.9752 4.68542 20.4289C3.57979 20.8826 1 23.1512 1 24.9661M1 24.9661C1 26.781 2.10563 30.4108 3.94833 30.4108C5.4225 30.4108 19.0585 30.4108 25.6923 30.4108C26.4294 30.4108 27.535 30.4108 26.7979 29.0496C26.4294 28.369 25.3238 25.4198 24.5867 24.9661C23.997 24.6031 8.61653 25.1174 1 24.9661Z"/></svg>