<svg width="52" height="52" viewBox="0 0 52 52" fill="none" xmlns="http://www.w3.org/2000/svg">
<g filter="url(#filter0_d_7998_394052)">
<path d="M48 22C48 34.1503 38.1503 44 26 44C13.8497 44 4 34.1503 4 22C4 9.84974 13.8497 0 26 0C38.1503 0 48 9.84974 48 22Z" fill="#009BFF"/>
</g>
<path fill-rule="evenodd" clip-rule="evenodd" d="M25.5 37.0698C21.3333 34.2597 13 27.0698 13 20.7907C13 12.9419 17.6512 8 25.5 8C33.3488 8 38 13.5233 38 20.7907C38 26.6047 29.6667 34.0659 25.5 37.0698ZM23.4648 29.9648C22.9126 29.9648 22.4648 30.4126 22.4648 30.9648C22.4648 31.5171 22.9126 31.9648 23.4648 31.9648H27.2439C27.7962 31.9648 28.2439 31.5171 28.2439 30.9648C28.2439 30.4126 27.7962 29.9648 27.2439 29.9648H23.4648ZM16.8358 17.5938C16.0606 19.6286 16.0799 23.931 22.359 24.8612C22.9404 22.5356 22.6497 17.8263 16.8358 17.5938ZM34.4855 17.5938C35.2607 19.6286 35.2413 23.931 28.9623 24.8612C28.3809 22.5356 28.6716 17.8263 34.4855 17.5938Z" fill="white"/>
<defs>
<filter id="filter0_d_7998_394052" x="0" y="0" width="52" height="52" filterUnits="userSpaceOnUse" color-interpolation-filters="sRGB">
<feFlood flood-opacity="0" result="BackgroundImageFix"/>
<feColorMatrix in="SourceAlpha" type="matrix" values="0 0 0 0 0 0 0 0 0 0 0 0 0 0 0 0 0 0 127 0" result="hardAlpha"/>
<feOffset dy="4"/>
<feGaussianBlur stdDeviation="2"/>
<feColorMatrix type="matrix" values="0 0 0 0 0 0 0 0 0 0 0 0 0 0 0 0 0 0 0.25 0"/>
<feBlend mode="normal" in2="BackgroundImageFix" result="effect1_dropShadow_7998_394052"/>
<feBlend mode="normal" in="SourceGraphic" in2="effect1_dropShadow_7998_394052" result="shape"/>
</filter>
</defs>
</svg>
