<svg width="52" height="52" viewBox="0 0 52 52" fill="none" xmlns="http://www.w3.org/2000/svg">
<g filter="url(#filter0_d_8010_394306)">
<path d="M48 22C48 34.1503 38.1503 44 26 44C13.8497 44 4 34.1503 4 22C4 9.84974 13.8497 0 26 0C38.1503 0 48 9.84974 48 22Z" fill="#009BFF"/>
</g>
<path fill-rule="evenodd" clip-rule="evenodd" d="M30.3006 10.5C26.1339 13 17.5006 19.1 16.3006 23.5C14.8006 29 18.957 35 27.8005 31C30.2546 29.89 37.9672 20.5 38.3005 18.5L35.1094 19.9182C34.6768 20.1105 34.2441 19.6498 34.4631 19.2301L39.8005 9L29.2461 14.2772C28.8064 14.497 28.3467 14.0169 28.5854 13.5871L30.3006 10.5ZM27.5384 19.8658C27.4995 19.6519 27.3697 19.4654 27.1826 19.3546C26.9955 19.2439 26.7696 19.2197 26.5633 19.2885L20.5633 21.2885C20.4051 21.3412 20.269 21.4452 20.1765 21.584L18.1765 24.584C18.0129 24.8292 18.0083 25.1475 18.1645 25.3975L20.6645 29.3975C20.7841 29.5889 20.9835 29.7162 21.2075 29.7442L25.2075 30.2442C25.4972 30.2804 25.7817 30.1451 25.9365 29.8975L28.4365 25.8975C28.5355 25.7391 28.5718 25.5496 28.5384 25.3658L27.5384 19.8658ZM19.6931 25.0131L21.2818 22.6301L26.2173 20.985L27.0107 25.3486L24.9183 28.6964L21.7474 28.3L19.6931 25.0131ZM22.3005 25C22.3005 25.2761 22.0766 25.5 21.8005 25.5C21.5243 25.5 21.3005 25.2761 21.3005 25C21.3005 24.7239 21.5243 24.5 21.8005 24.5C22.0766 24.5 22.3005 24.7239 22.3005 25ZM24.3005 24.5C24.8528 24.5 25.3005 24.0523 25.3005 23.5C25.3005 22.9477 24.8528 22.5 24.3005 22.5C23.7482 22.5 23.3005 22.9477 23.3005 23.5C23.3005 24.0523 23.7482 24.5 24.3005 24.5Z" fill="white"/>
<path d="M16.1479 14C13.7724 18.0148 10.4467 27.3492 16.1479 32.5684C21.8491 37.7877 31.7581 33.4048 36 30.561" stroke="white" stroke-linecap="round"/>
<path d="M30.5 36.6647C24.8825 38.0958 18.8517 37.9937 14.5166 33.9105C10.8124 30.4216 9.76408 25.687 10.0424 21" stroke="white" stroke-linecap="round"/>
<defs>
<filter id="filter0_d_8010_394306" x="0" y="0" width="52" height="52" filterUnits="userSpaceOnUse" color-interpolation-filters="sRGB">
<feFlood flood-opacity="0" result="BackgroundImageFix"/>
<feColorMatrix in="SourceAlpha" type="matrix" values="0 0 0 0 0 0 0 0 0 0 0 0 0 0 0 0 0 0 127 0" result="hardAlpha"/>
<feOffset dy="4"/>
<feGaussianBlur stdDeviation="2"/>
<feColorMatrix type="matrix" values="0 0 0 0 0 0 0 0 0 0 0 0 0 0 0 0 0 0 0.25 0"/>
<feBlend mode="normal" in2="BackgroundImageFix" result="effect1_dropShadow_8010_394306"/>
<feBlend mode="normal" in="SourceGraphic" in2="effect1_dropShadow_8010_394306" result="shape"/>
</filter>
</defs>
</svg>
