<svg width="52" height="52" viewBox="0 0 52 52" fill="none" xmlns="http://www.w3.org/2000/svg">
<g filter="url(#filter0_d_8336_415643)">
<path d="M48 22C48 34.1503 38.1503 44 26 44C13.8497 44 4 34.1503 4 22C4 9.84974 13.8497 0 26 0C38.1503 0 48 9.84974 48 22Z" fill="#009BFF"/>
</g>
<path d="M40.7524 24.9103L40.1178 24.5106C40.0655 24.5937 40.03 24.6862 40.0133 24.783L40.7524 24.9103ZM11.269 25.0323L12.0072 24.8996C11.9891 24.7993 11.9508 24.7037 11.8946 24.6187L11.269 25.0323ZM11.2302 19.192L11.0224 19.9127C11.2281 19.972 11.4493 19.9406 11.6304 19.8264C11.8114 19.7122 11.935 19.526 11.9701 19.3148L11.2302 19.192ZM40.8267 19.5602L40.0843 19.6667C40.1138 19.8724 40.2273 20.0566 40.3977 20.1754C40.5681 20.2943 40.7802 20.3371 40.9834 20.2937L40.8267 19.5602ZM26 38.75C33.7579 38.75 40.1537 32.8032 41.4916 25.0376L40.0133 24.783C38.7852 31.9114 32.9471 37.25 26 37.25V38.75ZM10.5309 25.1651C11.9162 32.868 18.2846 38.75 26 38.75V37.25C19.0907 37.25 13.2787 31.9698 12.0072 24.8996L10.5309 25.1651ZM11.4381 18.4714C10.4743 18.1934 9.55462 18.1197 8.90887 18.5916C8.20078 19.109 8.18869 19.9804 8.30769 20.6396C8.43497 21.3447 8.7651 22.1532 9.1732 22.9578C9.58679 23.7733 10.1047 24.6313 10.6434 25.446L11.8946 24.6187C11.3765 23.8351 10.8908 23.0282 10.511 22.2793C10.1256 21.5196 9.87249 20.8643 9.78383 20.3732C9.73971 20.1288 9.74488 19.9695 9.76461 19.8777C9.7737 19.8354 9.78411 19.8157 9.78781 19.8096C9.7905 19.8051 9.79143 19.8044 9.79387 19.8027C9.8239 19.7807 10.1044 19.6479 11.0224 19.9127L11.4381 18.4714ZM26 5.25C18.2065 5.25 11.7878 11.2512 10.4903 19.0692L11.9701 19.3148C13.1612 12.1377 19.0211 6.75 26 6.75V5.25ZM41.5691 19.4537C40.4208 11.4481 33.9208 5.25 26 5.25V6.75C33.0924 6.75 39.0298 12.3152 40.0843 19.6667L41.5691 19.4537ZM41.3871 25.31C42.3029 23.856 43.1538 22.2406 43.3448 21.0178C43.4383 20.4183 43.4107 19.659 42.8353 19.1528C42.2778 18.6623 41.4758 18.6547 40.67 18.8268L40.9834 20.2937C41.3099 20.2239 41.5329 20.2154 41.6759 20.2317C41.7452 20.2395 41.7885 20.2525 41.8131 20.2623C41.8365 20.2717 41.8442 20.2787 41.8444 20.2789C41.845 20.2794 41.8453 20.2798 41.8458 20.2804C41.8463 20.281 41.8479 20.2831 41.8502 20.2873C41.8548 20.2958 41.8641 20.3164 41.8723 20.3555C41.8895 20.4387 41.8953 20.5777 41.8627 20.7864C41.7247 21.6705 41.0373 23.0508 40.1178 24.5106L41.3871 25.31Z" fill="white"/>
<path d="M32 32C32 35.3137 29.3137 33 26 33C22.6863 33 20 35.3137 20 32C20 28.6863 22.6863 26 26 26C29.3137 26 32 28.6863 32 32Z" fill="white"/>
<path d="M24.5 29.3156C22.9 28.1372 21.5 31.0261 21.5 32.5C26 30.5 28.8333 32.0098 30.5 32.5C30.5 31.5 29.5 30.0532 28 29.3156C25.5817 28.1264 26.5 30.7885 24.5 29.3156Z" fill="#009BFF"/>
<path d="M24.5183 21C24.0366 21.4762 23.4585 22.5429 25 23" stroke="white" stroke-linecap="round"/>
<path d="M15 21C15.6667 18.8845 17.8 15.7958 21 20.3653" stroke="white" stroke-width="1.5" stroke-linecap="round"/>
<path d="M36 21C35.3333 18.8845 33.2 15.7958 30 20.3653" stroke="white" stroke-width="1.5" stroke-linecap="round"/>
<path d="M13.9047 16.3764C14.3374 15.4623 16.1507 13.6869 19.943 13.8979" stroke="white" stroke-width="0.75" stroke-linecap="round"/>
<path d="M25.555 6.00073C25.8772 6.83862 25.8538 8.89286 23.1819 10.4068" stroke="white" stroke-linecap="round"/>
<path d="M26 6.28841C26.8354 6.61698 28.334 8.02229 27.6446 11.0149" stroke="white" stroke-linecap="round"/>
<path d="M37.1599 16.1309C36.6757 15.2475 34.7706 13.5949 31.0239 14.0518" stroke="white" stroke-width="0.75" stroke-linecap="round"/>
<path d="M20 23C18.3037 23.6415 14.5323 26.3411 16.6074 27.8113C17.9655 28.7735 17.9655 25.8868 20 23Z" fill="white"/>
<path d="M31 23C33.1204 23.7698 37.8346 27.0093 35.2408 28.7735C33.5431 29.9282 33.5431 26.4641 31 23Z" fill="white"/>
<defs>
<filter id="filter0_d_8336_415643" x="0" y="0" width="52" height="52" filterUnits="userSpaceOnUse" color-interpolation-filters="sRGB">
<feFlood flood-opacity="0" result="BackgroundImageFix"/>
<feColorMatrix in="SourceAlpha" type="matrix" values="0 0 0 0 0 0 0 0 0 0 0 0 0 0 0 0 0 0 127 0" result="hardAlpha"/>
<feOffset dy="4"/>
<feGaussianBlur stdDeviation="2"/>
<feColorMatrix type="matrix" values="0 0 0 0 0 0 0 0 0 0 0 0 0 0 0 0 0 0 0.25 0"/>
<feBlend mode="normal" in2="BackgroundImageFix" result="effect1_dropShadow_8336_415643"/>
<feBlend mode="normal" in="SourceGraphic" in2="effect1_dropShadow_8336_415643" result="shape"/>
</filter>
</defs>
</svg>
