<svg width="52" height="52" viewBox="0 0 52 52" fill="none" xmlns="http://www.w3.org/2000/svg">
<g filter="url(#filter0_d_7998_393982)">
<path d="M48 22C48 34.1503 38.1503 44 26 44C13.8497 44 4 34.1503 4 22C4 9.84974 13.8497 0 26 0C38.1503 0 48 9.84974 48 22Z" fill="#009BFF"/>
</g>
<path d="M13.0491 21.4426C13.7446 21.7237 15.5529 21.51 17.222 18.4068C19.3085 14.5278 21.5688 11.1548 22.9597 10.6488C24.3507 10.1429 25.22 10.3115 25.7417 9.29961C26.2633 8.2877 27.1326 6.26388 29.5668 7.27579C32.001 8.2877 30.4362 12.1669 29.5668 12.3356C28.6974 12.5043 29.9145 12.8416 30.0884 14.0221C30.2623 15.2027 30.61 16.8892 32.5226 17.7325C34.4352 18.5757 35.6523 19.2503 35.8261 19.7563C35.9652 20.1611 35.3045 19.8125 34.9568 19.5876C35.3045 19.9812 36 20.8357 36 21.1055C36 21.4428 35.3045 22.6234 34.0874 22.4547C32.8703 22.2861 35.6523 22.2861 34.0874 21.6115C32.5226 20.9369 28.6974 19.5876 28.5236 18.2384C28.1179 18.9692 27.3413 20.5996 27.4804 21.2742C27.6542 22.1174 29.2191 23.298 29.9145 25.3218C30.61 27.3456 29.9145 29.3695 30.2623 30.55C30.61 31.7306 30.9578 32.9112 32.001 33.2485C33.0442 33.5858 33.9136 33.9231 33.9136 34.429C33.9136 34.935 32.1749 35.1036 30.7839 34.935C29.3929 34.7663 27.4804 34.7663 27.3065 33.7544C27.1326 32.7425 26.4371 30.7187 26.4371 30.2127C26.4371 29.7068 25.7417 26.8397 25.22 26.8397C24.6984 26.8397 25.0462 28.5262 23.8291 29.7068C22.612 30.8873 21.3949 32.2365 21.5688 32.7425C21.7426 33.2485 23.8291 34.0917 23.6552 34.5977C23.4813 35.1036 20.6994 35.2723 19.1346 34.2604C17.5698 33.2485 17.7436 31.056 18.4391 30.3814C19.1346 29.7068 20.8733 28.3575 20.8733 25.8278C20.8733 23.298 19.4823 23.298 19.6562 21.6115C19.7432 20.7679 19.9706 20.1881 20.1855 19.8307C19.1622 21.0003 17.213 22.6944 15.4833 22.4547C13.0491 22.1174 12.8753 21.611 13.0491 21.4426Z" fill="white"/>
<defs>
<filter id="filter0_d_7998_393982" x="0" y="0" width="52" height="52" filterUnits="userSpaceOnUse" color-interpolation-filters="sRGB">
<feFlood flood-opacity="0" result="BackgroundImageFix"/>
<feColorMatrix in="SourceAlpha" type="matrix" values="0 0 0 0 0 0 0 0 0 0 0 0 0 0 0 0 0 0 127 0" result="hardAlpha"/>
<feOffset dy="4"/>
<feGaussianBlur stdDeviation="2"/>
<feColorMatrix type="matrix" values="0 0 0 0 0 0 0 0 0 0 0 0 0 0 0 0 0 0 0.25 0"/>
<feBlend mode="normal" in2="BackgroundImageFix" result="effect1_dropShadow_7998_393982"/>
<feBlend mode="normal" in="SourceGraphic" in2="effect1_dropShadow_7998_393982" result="shape"/>
</filter>
</defs>
</svg>
