<svg width="52" height="52" viewBox="0 0 52 52" fill="none" xmlns="http://www.w3.org/2000/svg">
<g filter="url(#filter0_d_8336_415641)">
<path d="M48 22C48 34.1503 38.1503 44 26 44C13.8497 44 4 34.1503 4 22C4 9.84974 13.8497 0 26 0C38.1503 0 48 9.84974 48 22Z" fill="#009BFF"/>
</g>
<circle cx="25.5" cy="21.4863" r="6" stroke="white"/>
<path d="M34 21.4863C34 16.7919 30.1944 12.9863 25.5 12.9863C20.8056 12.9863 17 16.7919 17 21.4863C17 26.1807 20.8056 29.9863 25.5 29.9863" stroke="white" stroke-linecap="round"/>
<path d="M27.6998 29.6971C29.7321 29.1525 31.394 27.9158 32.5 26.3086" stroke="white" stroke-linecap="round"/>
<path d="M16.4065 16.2359C19.306 11.2138 25.7277 9.49313 30.7498 12.3926C31.3872 12.7606 31.9714 13.1854 32.4998 13.6568C32.7986 13.8708 33.8565 13.9176 35.6979 12.3926M15.9998 32.4864C17.5998 31.2864 19.1049 29.9182 20.2498 30.5792C25.2718 33.4786 31.6935 31.758 34.593 26.7359C36.0023 24.295 36.3201 21.5234 35.6979 18.9864" stroke="white" stroke-linecap="round"/>
<path d="M15.3577 18.769C14.7867 20.9001 14.9141 23.0538 15.5996 24.987C16.0001 25.987 15.358 26.4863 12.9997 27.9872" stroke="white" stroke-linecap="round"/>
<path d="M12 30.9863L41 10.9863" stroke="white" stroke-linecap="round" stroke-linejoin="round"/>
<path d="M12 32.9863L41 12.9863" stroke="white" stroke-linecap="round" stroke-linejoin="round"/>
<path d="M9 33.9863L44 9.98633" stroke="#009BFF" stroke-width="0.75" stroke-linecap="round" stroke-linejoin="round"/>
<path d="M11.25 10V12.5" stroke="white" stroke-linecap="round" stroke-linejoin="round"/>
<path d="M39.25 26.9863V29.4863" stroke="white" stroke-linecap="round" stroke-linejoin="round"/>
<path d="M26.25 37V39.5" stroke="white" stroke-linecap="round" stroke-linejoin="round"/>
<path d="M12.5 11.25L10 11.25" stroke="white" stroke-linecap="round" stroke-linejoin="round"/>
<path d="M40.5 28.2363L38 28.2363" stroke="white" stroke-linecap="round" stroke-linejoin="round"/>
<path d="M27.5 38.25L25 38.25" stroke="white" stroke-linecap="round" stroke-linejoin="round"/>
<path d="M30.75 6.98633V8.48633" stroke="white" stroke-linecap="round" stroke-linejoin="round"/>
<path d="M31.5 7.73633L30 7.73633" stroke="white" stroke-linecap="round" stroke-linejoin="round"/>
<defs>
<filter id="filter0_d_8336_415641" x="0" y="0" width="52" height="52" filterUnits="userSpaceOnUse" color-interpolation-filters="sRGB">
<feFlood flood-opacity="0" result="BackgroundImageFix"/>
<feColorMatrix in="SourceAlpha" type="matrix" values="0 0 0 0 0 0 0 0 0 0 0 0 0 0 0 0 0 0 127 0" result="hardAlpha"/>
<feOffset dy="4"/>
<feGaussianBlur stdDeviation="2"/>
<feColorMatrix type="matrix" values="0 0 0 0 0 0 0 0 0 0 0 0 0 0 0 0 0 0 0.25 0"/>
<feBlend mode="normal" in2="BackgroundImageFix" result="effect1_dropShadow_8336_415641"/>
<feBlend mode="normal" in="SourceGraphic" in2="effect1_dropShadow_8336_415641" result="shape"/>
</filter>
</defs>
</svg>
