<svg xmlns="http://www.w3.org/2000/svg" width="35" height="35" viewBox="0 0 35 35"><path fill="#2D2D2D" fill-rule="evenodd" d="M17.5 0C27.165 0 35 7.835 35 17.5S27.165 35 17.5 35 0 27.165 0 17.5 7.835 0 17.5 0zm-.063 5.907l-.413.57-.26.355-.134.174c-.535.699-1.135 1.402-2.097 2.48l-.685.764-.307.346c-3.426 3.874-4.716 6.158-4.716 9.527 0 5.414 3.706 8.606 8.667 8.606 4.957 0 8.683-3.054 8.683-8.224 0-3.166-1.272-5.46-4.727-9.573L19.923 9.14l-.51-.61-.234-.285a30.486 30.486 0 0 1-1.172-1.523l-.57-.815zm-.015 1.71l.137.185.195.256c.266.345.556.707.884 1.104l2.041 2.41.286.342c3.087 3.718 4.21 5.823 4.21 8.591 0 4.569-3.24 7.224-7.683 7.224-4.439 0-7.667-2.78-7.667-7.606 0-3.054 1.196-5.17 4.474-8.875l1.392-1.561.245-.278c.551-.63.97-1.13 1.351-1.617l.135-.175zm-2.242 15.29a.5.5 0 0 0-.724.685l2.367 3.007.062.065a.5.5 0 0 0 .723-.684l-2.366-3.007zm4.376.811l-.09.003a.5.5 0 0 0 .025.995l1.955.128.09-.002a.5.5 0 0 0-.025-.996l-1.955-.128zm-3.307-3.79a.5.5 0 0 0-.656-.265l-3.981 1.692-.08.042a.5.5 0 0 0 .47.878l3.982-1.691.08-.043a.5.5 0 0 0 .185-.613zm6.937-.127l-.09.003-3.356.41-.088.02a.5.5 0 0 0 .21.973l3.355-.41.089-.02a.5.5 0 0 0-.21-.973zm-6.011-5.27a.5.5 0 0 0-.824.56l2.098 3.782.051.075a.5.5 0 0 0 .824-.56l-2.098-3.782zm-3.35.33a.5.5 0 0 0-.513.385l-.77 3.247-.013.09a.5.5 0 0 0 .986.141l.77-3.247.013-.09a.5.5 0 0 0-.385-.512zm6.406-.88a.5.5 0 0 0-.3.95l1.807.757.086.027a.5.5 0 0 0 .3-.95l-1.807-.757zm-1.344-2.767h-2.419l-.09.008a.5.5 0 0 0 .09.992h2.419l.09-.008a.5.5 0 0 0-.09-.992z"/></svg>