<svg width="52" height="52" viewBox="0 0 52 52" fill="none" xmlns="http://www.w3.org/2000/svg">
<g filter="url(#filter0_d_8010_394301)">
<path d="M48 22C48 34.1503 38.1503 44 26 44C13.8497 44 4 34.1503 4 22C4 9.84974 13.8497 0 26 0C38.1503 0 48 9.84974 48 22Z" fill="#009BFF"/>
</g>
<path d="M12.3687 33.894C12.6634 30.0624 15.9301 28.1221 17.5265 27.6309L21.2108 29.1045L23.7897 30.5782V33.894H12.3687Z" fill="white"/>
<path d="M39.6313 33.894C39.3366 30.0624 36.0699 28.1221 34.4735 27.6309L30.7892 29.1045L28.2103 30.5782V33.894H39.6313Z" fill="white"/>
<path d="M26.0001 31.4211C24.8211 29.9474 24.5264 27.8596 24.5264 27H27.8422C27.8422 29.3579 26.6141 30.9298 26.0001 31.4211Z" fill="white"/>
<path d="M20 24.5L12 26.5257C15.4386 27.0169 22.6105 28.5889 23.7895 30.9468V33.5" stroke="white" stroke-linecap="round" stroke-linejoin="round"/>
<path d="M32 24.5L40 26.5257C36.5614 27.0169 29.3895 28.5889 28.2105 30.9468V33.5" stroke="white" stroke-linecap="round" stroke-linejoin="round"/>
<path d="M25 17.5C23.766 18.6319 21.241 20.2166 21.0131 17.5C20.7853 14.7834 23.5761 16.3681 25 17.5Z" fill="white"/>
<path d="M25 17.5C23.766 18.6319 21.241 20.2166 21.0131 17.5C20.7853 14.7834 23.5761 16.3681 25 17.5Z" fill="white"/>
<path d="M27 17.5C28.234 18.6319 30.759 20.2166 30.9869 17.5C31.2147 14.7834 28.4239 16.3681 27 17.5Z" fill="white"/>
<path d="M27 17.5C28.234 18.6319 30.759 20.2166 30.9869 17.5C31.2147 14.7834 28.4239 16.3681 27 17.5Z" fill="white"/>
<path d="M12 12L19 17.8947L19.5 24C18.886 23.7544 16.8632 22.6105 15.6842 20.8421C14.5053 19.0737 12.7368 14.2105 12 12Z" fill="white"/>
<path d="M40 11.7891L33 17.6838L32.5 24C33.114 23.7544 35.1368 22.3996 36.3158 20.6312C37.4947 18.8627 39.2632 13.9996 40 11.7891Z" fill="white"/>
<path d="M19.1317 13.2632V13.2485L19.1309 13.2351L19.1309 13.2349L19.1309 13.2347L19.1309 13.2343L19.1309 13.2341L19.1305 13.2257C19.1302 13.2173 19.1297 13.2033 19.1294 13.184C19.1287 13.1454 19.1285 13.086 19.1308 13.0087C19.1353 12.854 19.1497 12.629 19.1897 12.3573C19.2699 11.8119 19.451 11.0913 19.851 10.3755C20.6295 8.98246 22.2954 7.5 26.0001 7.5C29.7049 7.5 31.3708 8.98246 32.1492 10.3755C32.5492 11.0913 32.7303 11.8119 32.8105 12.3573C32.8505 12.629 32.8649 12.854 32.8695 13.0087C32.8717 13.086 32.8715 13.1454 32.8709 13.184C32.8705 13.2033 32.8701 13.2173 32.8697 13.2257L32.8694 13.2338L32.8694 13.2341L32.8694 13.2343L32.8693 13.2347L32.8693 13.2351L32.8685 13.2485V13.2632V21.2632C32.8685 24.3007 30.4061 26.7632 27.3685 26.7632H24.6317C21.5941 26.7632 19.1317 24.3007 19.1317 21.2632V13.2632Z" stroke="white"/>
<path d="M21.9474 12.527L19 15.106V12.8955L19.7368 10.3165L21.9474 8.10598L25.6316 7.36914L27.8421 7.73756L30.7895 8.4744L32.6316 11.0534L33 13.6323L32.6316 15.106L30.0526 12.527L26 16.2112L21.9474 12.527Z" fill="white"/>
<path fill-rule="evenodd" clip-rule="evenodd" d="M27.4605 21.3724C26.9975 21.4196 26.5074 21.4519 26.0002 21.4519C25.4928 21.4519 25.0026 21.4196 24.5395 21.3723V22.5574C24.5395 22.9716 24.2037 23.3074 23.7895 23.3074C23.3753 23.3074 23.0395 22.9716 23.0395 22.5574V21.172L22.9848 21.1637C21.687 20.9658 20.8423 20.8369 20.8423 21.4522C20.8423 22.4696 23.1516 25 26.0002 25C28.8488 25 31.1581 22.4696 31.1581 21.4522C31.1581 20.8369 30.3134 20.9658 29.0156 21.1637C28.9973 21.1665 28.979 21.1693 28.9605 21.1721V22.5574C28.9605 22.9716 28.6247 23.3074 28.2105 23.3074C27.7963 23.3074 27.4605 22.9716 27.4605 22.5574V21.3724Z" fill="white"/>
<defs>
<filter id="filter0_d_8010_394301" x="0" y="0" width="52" height="52" filterUnits="userSpaceOnUse" color-interpolation-filters="sRGB">
<feFlood flood-opacity="0" result="BackgroundImageFix"/>
<feColorMatrix in="SourceAlpha" type="matrix" values="0 0 0 0 0 0 0 0 0 0 0 0 0 0 0 0 0 0 127 0" result="hardAlpha"/>
<feOffset dy="4"/>
<feGaussianBlur stdDeviation="2"/>
<feColorMatrix type="matrix" values="0 0 0 0 0 0 0 0 0 0 0 0 0 0 0 0 0 0 0.25 0"/>
<feBlend mode="normal" in2="BackgroundImageFix" result="effect1_dropShadow_8010_394301"/>
<feBlend mode="normal" in="SourceGraphic" in2="effect1_dropShadow_8010_394301" result="shape"/>
</filter>
</defs>
</svg>
