<svg xmlns="http://www.w3.org/2000/svg" width="35" height="35" viewBox="0 0 35 35"><path fill="#2D2D2D" fill-rule="evenodd" d="M17.5 0C27.165 0 35 7.835 35 17.5S27.165 35 17.5 35 0 27.165 0 17.5 7.835 0 17.5 0zm0 7.03l-8.402 7.84v10.645l.007.146c.09.781.73 1.354 1.493 1.354h5.827l-1.65-6.08 3.316-3.237v-3.05l1.679 3.008-2.785 3.608 3.505 5.751h3.912l.146-.007a1.506 1.506 0 0 0 1.354-1.493V14.87L17.5 7.03zm0 1.366l7.402 6.908v10.211a.5.5 0 0 1-.44.497l-.089.004h-3.322l-2.854-4.685 2.768-3.586-3.874-6.94v6.471l-3.433 3.354 1.46 5.385h-4.52a.5.5 0 0 1-.497-.44l-.004-.089v-10.18l7.403-6.91z"/></svg>