<svg xmlns="http://www.w3.org/2000/svg" width="35" height="35" viewBox="0 0 35 35"><path fill="#2D2D2D" fill-rule="evenodd" d="M17.5 0C27.165 0 35 7.835 35 17.5S27.165 35 17.5 35 0 27.165 0 17.5 7.835 0 17.5 0zm0 6.531l-8.574 8.005v10.898l.006.145a1.5 1.5 0 0 0 1.494 1.355h2.9a5.789 5.789 0 0 1-.016-.018c.592.7 1.387 1.302 2.387 1.784 1.24.561 2.908.521 4.54-.279.673-.509 1.214-1.01 1.631-1.513l-.021.026h2.727l.145-.007a1.5 1.5 0 0 0 1.355-1.493V14.536L17.5 6.53zm1.364 8.246l-.005.101c-.056 1.545.426 2.97 1.446 4.924l.733 1.38c.572 1.093.718 1.468.86 2.1.34 1.512-.229 2.804-2.184 4.293-1.284.618-2.639.651-3.594.219l-.215-.108c-2.95-1.532-3.643-4.302-2.106-7.721l.097-.212.082.171a6.67 6.67 0 0 0 1.375 1.84L16.47 22.8l-.285-1.496c-.155-.81-.141-1.804.184-2.885.374-1.242 1.115-2.415 2.303-3.476l.192-.166zM17.5 7.899l7.574 7.071v10.464l-.008.09a.5.5 0 0 1-.492.41h-2.049a4.667 4.667 0 0 1-.022.042c.5-.935.602-1.89.37-2.914l-.052-.222c-.141-.57-.311-.99-.78-1.899l-.67-1.261c-1.345-2.508-1.775-3.998-1.363-5.925l.262-1.225-1.033.708-.288.202c-2.635 1.903-3.74 4.126-3.866 6.256l-.007.144-.034-.055c-.274-.465-.473-.953-.537-1.392l-.208-1.417-.72 1.24c-1.718 2.963-2.033 5.69-.902 7.773l-.03-.055h-2.22l-.09-.008-.084-.023a.5.5 0 0 1-.325-.469L9.925 14.97 17.5 7.899z"/></svg>