<svg xmlns="http://www.w3.org/2000/svg" width="35" height="35" viewBox="0 0 35 35"><path fill="#2D2D2D" fill-rule="evenodd" d="M17.5 0C27.165 0 35 7.835 35 17.5S27.165 35 17.5 35 0 27.165 0 17.5 7.835 0 17.5 0zm-3.31 25.91c-1.664-.143-3.139.19-4.406.998a.5.5 0 0 0 .538.843c1.076-.686 2.331-.97 3.782-.845.367.03.416.015 1.101.255l2.257.824c1.924.684 3.3.966 4.753.837a6.207 6.207 0 0 0 3.015-1.08.5.5 0 1 0-.566-.825 5.209 5.209 0 0 1-2.538.91c-1.363.12-2.706-.183-4.71-.922l-1.257-.468c-.169-.062-.316-.114-.458-.162l-.256-.085c-.497-.158-.896-.25-1.256-.28zm3.31-11.978l-5.728 4.979v4.265a6.428 6.428 0 0 0-1.988.84.5.5 0 0 0 .538.843A5.578 5.578 0 0 1 13 24l-.013.001.083-.005c.153-.009.31-.012.468-.01l.24.006c.107.005.216.012.326.022l.29.026.05.006.031.005.06.012.028.006a2.155 2.155 0 0 1 .19.05l.18.057.272.093.966.353.9.33.295.106.096.035.204.072c.102.035.202.07.3.102.569.19 1.09.341 1.587.455a9.098 9.098 0 0 0 1.699.234 7.705 7.705 0 0 0 .974-.026 6.61 6.61 0 0 0 .575-.077l.341-.062.003-.01a6.191 6.191 0 0 0 2.085-.93.5.5 0 1 0-.566-.826 5.227 5.227 0 0 1-1.435.697V18.91L17.5 13.932zm-3.688 9.061h.012l-.037-.001-.091-.003-.162-.003h.048l.057.001.113.004.035.001.025.001-.06-.002-.17-.005h-.274l-.128.004a7.377 7.377 0 0 0-.348.02l-.061.006v-3.65l4.729-4.11 4.728 4.11v5.555l-.102.013a6.74 6.74 0 0 1-.852.02 7.633 7.633 0 0 1-.979-.105c-.425-.072-.872-.18-1.359-.324a26.22 26.22 0 0 1-1.151-.378l-1.788-.66-.151-.054-.145-.05c-.619-.21-1.092-.33-1.512-.366l-.33-.022h-.018l-.029-.002zM25.204 9.717l-.413.57-.072.097a7.748 7.748 0 0 1-.372.444l-.205.23-.172.194c-.712.823-.996 1.362-.996 2.165 0 1.381.976 2.222 2.235 2.222 1.255 0 2.238-.806 2.238-2.141 0-.781-.29-1.32-1.051-2.233l-.37-.435-.104-.125a6.198 6.198 0 0 1-.316-.41l-.402-.578zm-15.422 0l-.413.57-.12.16-.068.083c-.07.086-.152.18-.256.298l-.205.23-.172.194c-.711.823-.995 1.362-.995 2.165 0 1.381.975 2.222 2.235 2.222 1.254 0 2.238-.806 2.238-2.141 0-.781-.291-1.32-1.052-2.233l-.37-.435-.103-.125a6.198 6.198 0 0 1-.316-.41l-.403-.578zm15.405 1.669l.279.328.14.165c.624.747.841 1.142.841 1.619 0 .734-.496 1.14-1.238 1.14-.737 0-1.235-.428-1.235-1.221 0-.463.17-.816.648-1.387l.565-.644zm-15.421 0l.278.328.14.165c.625.747.842 1.142.842 1.619 0 .734-.497 1.14-1.238 1.14-.738 0-1.235-.428-1.235-1.221 0-.463.169-.816.647-1.387l.358-.409.208-.235zm7.727-6.239l-.413.571-.074.1c-.076.1-.16.2-.273.33l-.302.34-.172.195c-.711.822-.995 1.361-.995 2.164 0 1.382.975 2.222 2.234 2.222 1.255 0 2.238-.806 2.238-2.14 0-.782-.29-1.321-1.051-2.234l-.37-.435-.104-.124a7.062 7.062 0 0 1-.248-.316l-.47-.673zm-.017 1.669l.279.328.14.166c.625.747.841 1.141.841 1.618 0 .734-.496 1.14-1.238 1.14-.737 0-1.234-.428-1.234-1.22 0-.502.198-.875.773-1.536l.439-.496z"/></svg>