<svg xmlns="http://www.w3.org/2000/svg" width="35" height="35" viewBox="0 0 35 35"><path fill="#2D2D2D" fill-rule="evenodd" d="M17.5 0C27.165 0 35 7.835 35 17.5S27.165 35 17.5 35 0 27.165 0 17.5 7.835 0 17.5 0zm-6.256 24.533c-1.54-.132-2.907.176-4.081.926a.5.5 0 1 0 .538.843c.983-.628 2.13-.886 3.458-.773l.096.008c.278.022.365.03 1.086.289l1.901.695c1.777.632 3.048.893 4.393.773a5.756 5.756 0 0 0 2.796-1.001.5.5 0 1 0-.566-.825 4.757 4.757 0 0 1-2.318.83c-1.248.11-2.48-.168-4.321-.846l-1.447-.535-.37-.124c-.46-.146-.83-.232-1.165-.26zM14.29 13.49l-5.315 4.619-.002 3.915a5.957 5.957 0 0 0-1.81.771.5.5 0 0 0 .538.843 5.086 5.086 0 0 1 2.393-.78l-.18.016c.1-.01.201-.019.304-.025l-.124.008c.114-.008.23-.014.349-.016l-.225.008c.163-.009.328-.011.498-.007l.133.004.507.036c.049.005.094.01.143.019l.04.007.042.01c.123.027.281.076.553.17l-.083-.028.136.048 1.094.399.598.22.363.131c1.777.631 3.048.892 4.393.773.21-.019.417-.048.62-.087l.225-.04a5.911 5.911 0 0 0 1.95-.875.5.5 0 1 0-.565-.824c-.402.275-.821.48-1.26.62v-5.316l-5.315-4.62zm-.001 1.324l4.315 3.751v5.062l-.052.006c-1.172.106-2.33-.132-3.989-.722l-1.645-.608-.121-.044-.048-.016a16.75 16.75 0 0 0-.104-.035c-.572-.195-1.01-.305-1.4-.339l-.307-.02-.055-.003h-.025a7.455 7.455 0 0 0-.75.008l-.026.002a6.963 6.963 0 0 0-.11.008l.002-3.299 4.315-3.751zM23.603 5.6l-.194.006a3.216 3.216 0 0 0-2.593 1.606l-.041.074-.014-.003a1.958 1.958 0 0 0-.353-.032l-.157.006a1.981 1.981 0 0 0-1.7 1.289l-.044.131-.03.013a2.375 2.375 0 0 0 .962 4.546l3.093-.001-2.373 3.225 3.196-.001-.908 3.92 2.166-4.92h-2.476l1.637-2.224h1.16l.133-.003.077-.007.09.007a2.694 2.694 0 0 0 2.834-2.69l-.006-.185a2.692 2.692 0 0 0-1.226-2.078l-.071-.042-.015-.087a3.217 3.217 0 0 0-3.147-2.55zm0 1c1.145 0 2.098.872 2.206 2.003l.027.284.258.121a1.693 1.693 0 0 1-.897 3.219h-.108a1.388 1.388 0 0 1-.154.009h-5.496a1.375 1.375 0 0 1-.367-2.7l.324-.089.04-.333a.98.98 0 0 1 1.395-.766l.5.24.187-.521A2.217 2.217 0 0 1 23.603 6.6z"/></svg>