<svg width="52" height="52" viewBox="0 0 52 52" fill="none" xmlns="http://www.w3.org/2000/svg">
<g filter="url(#filter0_d_8010_394310)">
<path d="M48 22C48 34.1503 38.1503 44 26 44C13.8497 44 4 34.1503 4 22C4 9.84974 13.8497 0 26 0C38.1503 0 48 9.84974 48 22Z" fill="#009BFF"/>
</g>
<path d="M24.8395 16.637C24.202 16.8285 23.9002 17.6899 22.9945 17.6899C21.154 17.6899 20.8886 16.4615 20.3621 15.584C19.8356 16.1105 19.8356 19.7959 22.9945 19.7959C25.4125 19.7959 26.2882 18.2535 26.0936 17.2938" stroke="white" stroke-width="0.5" stroke-linecap="round" stroke-linejoin="round"/>
<path d="M27.0266 16.5303C27.8168 16.4938 28.2544 17.6899 29.2789 17.6899C31.1574 17.6899 31.3848 16.4615 31.9113 15.584C32.4378 16.1105 32.2103 19.7959 29.2789 19.7959C26.8521 19.7959 25.9789 18.2423 26.1819 17.2834" stroke="white" stroke-width="0.5" stroke-linecap="round" stroke-linejoin="round"/>
<circle cx="25.892" cy="16.1088" r="1.20446" stroke="white" stroke-width="0.75"/>
<path d="M26.1831 4L21.9712 13.4768C25.3407 11.3708 28.991 12.5993 30.395 13.4768L26.1831 4Z" stroke="white" stroke-width="0.75" stroke-linecap="round" stroke-linejoin="round"/>
<circle cx="23.661" cy="14.9457" r="0.637111" fill="white"/>
<circle cx="28.1083" cy="14.9457" r="0.637111" fill="white"/>
<path d="M22.2065 13.4766C22.382 13.6521 22.392 13.6872 21.9708 14.5295C21.773 14.9251 21.546 15.6922 21.1536 16.6355M30.1038 13.4766C29.9283 13.6521 29.9736 13.6872 30.3948 14.5295C30.5835 14.9068 30.8431 15.6894 31.1568 16.6355M20.3914 18.575C20.0656 19.7856 19.9463 20.7878 20.3914 21.9003C20.8336 23.0059 21.8329 24.1114 22.8825 25.0219M31.6833 18.7414C31.9381 19.9067 32.1824 21.068 31.9743 21.9003C31.7356 22.8553 30.6308 24.0267 29.4455 25.0219C29.4052 25.0558 29.3243 25.1229 29.3243 25.1229" stroke="white" stroke-width="0.75" stroke-linecap="round" stroke-linejoin="round"/>
<path d="M24.3125 19.7949C24.839 20.3214 26.3131 21.0585 27.9979 19.7949" stroke="white" stroke-width="0.5" stroke-linecap="round" stroke-linejoin="round"/>
<path d="M20.1008 20.8477C19.0478 21.9006 17.656 23.5854 18.0772 26.1125C18.6037 29.2714 20.1831 29.2714 21.2361 28.745C22.2891 28.2185 22.2891 27.1655 20.7096 26.639C19.8161 26.3412 20.6273 24.0066 21.2361 23.4801" stroke="white" stroke-width="0.75" stroke-linecap="round" stroke-linejoin="round"/>
<path d="M32.21 20.8477C32.912 21.5496 34.34 23.5854 33.9188 26.1125C33.3923 29.2714 31.8129 29.2714 30.7599 28.745C29.7069 28.2185 29.6596 27.1655 31.2864 26.639C32.1824 26.349 32.0806 24.0066 31.157 23.4801" stroke="white" stroke-width="0.75" stroke-linecap="round" stroke-linejoin="round"/>
<path d="M19.1299 29.2715V29.798C19.8319 30.5 22.1835 31.9039 25.9742 31.9039C29.7649 31.9039 32.1166 30.5 32.8185 29.798V29.2715" stroke="white" stroke-linecap="round" stroke-linejoin="round"/>
<path d="M21.2358 28.7441C22.8153 29.4461 26.9219 30.4289 30.7126 28.7441" stroke="white" stroke-width="0.5" stroke-linecap="round" stroke-linejoin="round"/>
<path d="M21.7627 27.166C23.1667 27.9606 26.817 29.0731 30.1865 27.166" stroke="white" stroke-width="0.5" stroke-linecap="round" stroke-linejoin="round"/>
<path d="M20.7095 31.377V35.5888" stroke="white" stroke-linecap="round" stroke-linejoin="round"/>
<path d="M31.2393 31.377V35.5888" stroke="white" stroke-linecap="round" stroke-linejoin="round"/>
<path d="M25.4746 36.6431C25.4746 37.0054 25.2543 37.3947 24.772 37.7162C24.2932 38.0353 23.603 38.249 22.8157 38.249C22.0283 38.249 21.3381 38.0353 20.8593 37.7162C20.3771 37.3947 20.1567 37.0054 20.1567 36.6431C20.1567 36.2807 20.3771 35.8915 20.8593 35.57C21.3381 35.2508 22.0283 35.0371 22.8157 35.0371C23.603 35.0371 24.2932 35.2508 24.772 35.57C25.2543 35.8915 25.4746 36.2807 25.4746 36.6431Z" stroke="white"/>
<path d="M31.7924 36.6431C31.7924 37.0054 31.5721 37.3947 31.0899 37.7162C30.6111 38.0353 29.9209 38.249 29.1335 38.249C28.3462 38.249 27.656 38.0353 27.1772 37.7162C26.6949 37.3947 26.4746 37.0054 26.4746 36.6431C26.4746 36.2807 26.6949 35.8915 27.1772 35.57C27.656 35.2508 28.3462 35.0371 29.1335 35.0371C29.9209 35.0371 30.6111 35.2508 31.0899 35.57C31.5721 35.8915 31.7924 36.2807 31.7924 36.6431Z" stroke="white"/>
<path d="M24.9214 35.5895V34.01C24.9214 33.659 25.132 32.957 25.9744 32.957C26.8167 32.957 27.0273 33.659 27.0273 34.01V36.116" stroke="white" stroke-width="0.5" stroke-linecap="round" stroke-linejoin="round"/>
<path d="M21.6802 14.5299C21.259 14.1088 21.649 13.1755 22 13C22.5264 12.4737 24.8393 12.4238 25.8923 12.4238C26.9452 12.4238 30.5 12.447 30.5 13.5C30.5 14.553 28.5247 13.477 27.4717 12.9505C26.6293 12.5293 26.4187 12.775 26.4187 12.9505C26.9452 14.5299 24.8393 14.0035 25.3658 14.0035C25.8923 14.0035 26.4187 12.9505 24.8393 12.9505C23.2598 12.9505 22.2067 15.0564 21.6802 14.5299Z" fill="white"/>
<path d="M22.5 23.5C23 27 24.5 25.5 26 27C27.5 26 29.5 26.5 29.5006 24" stroke="white" stroke-width="0.75" stroke-linecap="round" stroke-linejoin="round"/>
<defs>
<filter id="filter0_d_8010_394310" x="0" y="0" width="52" height="52" filterUnits="userSpaceOnUse" color-interpolation-filters="sRGB">
<feFlood flood-opacity="0" result="BackgroundImageFix"/>
<feColorMatrix in="SourceAlpha" type="matrix" values="0 0 0 0 0 0 0 0 0 0 0 0 0 0 0 0 0 0 127 0" result="hardAlpha"/>
<feOffset dy="4"/>
<feGaussianBlur stdDeviation="2"/>
<feColorMatrix type="matrix" values="0 0 0 0 0 0 0 0 0 0 0 0 0 0 0 0 0 0 0.25 0"/>
<feBlend mode="normal" in2="BackgroundImageFix" result="effect1_dropShadow_8010_394310"/>
<feBlend mode="normal" in="SourceGraphic" in2="effect1_dropShadow_8010_394310" result="shape"/>
</filter>
</defs>
</svg>
