<svg xmlns="http://www.w3.org/2000/svg" width="52" height="52" fill="none" viewBox="0 0 52 52"><g filter="url(#filter0_d_8010_394303)"><path fill="#009BFF" d="M48 22C48 34.1503 38.1503 44 26 44C13.8497 44 4 34.1503 4 22C4 9.84974 13.8497 0 26 0C38.1503 0 48 9.84974 48 22Z"/></g><path fill="#fff" d="M22.5828 17.6791C22.8585 17.6626 23.0686 17.4259 23.0522 17.1502C23.0357 16.8745 22.7989 16.6644 22.5233 16.6809L22.5828 17.6791ZM19.1295 19.4319L19.5455 19.7093L19.5936 19.6372L19.6146 19.5532L19.1295 19.4319ZM15.0465 20.118L15.1843 19.6374L15.0465 20.118ZM13.7757 18.4196L13.5177 17.9914L13.7757 18.4196ZM12.1906 21.3862L11.9198 21.8065L12.1906 21.3862ZM15.6143 22.7094L15.5758 23.2079L15.6143 22.7094ZM23.9433 21.2161C24.134 21.0164 24.1267 20.6999 23.927 20.5092C23.7273 20.3185 23.4108 20.3258 23.2201 20.5255L23.9433 21.2161ZM22.5233 16.6809C20.9402 16.7754 19.9626 17.3973 19.3826 18.0343C19.0974 18.3476 18.9159 18.6559 18.8046 18.8895C18.749 19.0064 18.7105 19.1054 18.6852 19.1781C18.6726 19.2144 18.6632 19.2444 18.6566 19.2668C18.6533 19.278 18.6506 19.2873 18.6486 19.2947C18.6476 19.2984 18.6468 19.3015 18.6461 19.3042C18.6457 19.3055 18.6454 19.3068 18.6451 19.3078C18.645 19.3084 18.6449 19.3089 18.6448 19.3094C18.6447 19.3096 18.6446 19.3099 18.6446 19.31C18.6445 19.3104 18.6444 19.3107 19.1295 19.4319C19.6146 19.5532 19.6145 19.5535 19.6144 19.5538C19.6144 19.5539 19.6143 19.5542 19.6143 19.5543C19.6142 19.5547 19.6141 19.555 19.614 19.5553C19.6139 19.5559 19.6138 19.5563 19.6137 19.5567C19.6135 19.5573 19.6135 19.5575 19.6135 19.5573C19.6137 19.5568 19.6143 19.5544 19.6155 19.5504C19.6179 19.5422 19.6225 19.5273 19.6298 19.5065C19.6443 19.4648 19.6691 19.4001 19.7075 19.3194C19.7845 19.1578 19.9144 18.9357 20.122 18.7076C20.5278 18.262 21.262 17.7579 22.5828 17.6791L22.5233 16.6809ZM19.1295 19.4319C18.7135 19.1546 18.7137 19.1543 18.7139 19.154C18.714 19.1539 18.7142 19.1536 18.7143 19.1534C18.7146 19.153 18.7148 19.1526 18.715 19.1523C18.7155 19.1516 18.7159 19.151 18.7163 19.1505C18.717 19.1494 18.7174 19.1488 18.7177 19.1484C18.7182 19.1478 18.7177 19.1484 18.7163 19.1504C18.7134 19.1542 18.7067 19.1629 18.696 19.1757C18.6745 19.2012 18.6372 19.2426 18.5822 19.2928C18.4727 19.393 18.2929 19.5285 18.0287 19.6444C17.5092 19.872 16.6098 20.0462 15.1843 19.6374L14.9086 20.5986C16.5268 21.0627 17.669 20.8939 18.4301 20.5603C18.8061 20.3955 19.0764 20.1959 19.2569 20.031C19.3469 19.9487 19.4145 19.8751 19.4618 19.8188C19.4855 19.7906 19.5041 19.7667 19.5179 19.7481C19.5248 19.7388 19.5306 19.7309 19.5352 19.7244C19.5375 19.7211 19.5395 19.7182 19.5412 19.7157C19.5421 19.7144 19.5429 19.7133 19.5436 19.7122C19.5439 19.7117 19.5443 19.7112 19.5446 19.7107C19.5448 19.7104 19.545 19.7101 19.5451 19.71C19.5453 19.7096 19.5455 19.7093 19.1295 19.4319ZM15.1843 19.6374C15.2733 19.6629 15.3009 19.7132 15.2793 19.6852C15.2619 19.6625 15.2331 19.6152 15.1942 19.531C15.1118 19.3527 15.0445 19.1499 14.9434 18.8902C14.8577 18.6702 14.7368 18.3789 14.5598 18.1742C14.4658 18.0656 14.3209 17.939 14.1152 17.889C13.8941 17.8353 13.6865 17.8896 13.5177 17.9914L14.0338 18.8479C14.0271 18.8519 13.966 18.8819 13.8791 18.8608C13.8076 18.8434 13.7845 18.8065 13.8033 18.8282C13.8517 18.8842 13.9195 19.0166 14.0115 19.253C14.0882 19.45 14.1876 19.7365 14.2863 19.9504C14.338 20.0622 14.4034 20.1867 14.487 20.2952C14.5664 20.3984 14.7018 20.5393 14.9086 20.5986L15.1843 19.6374ZM13.5177 17.9914C13.2344 18.1621 13.1339 18.4238 13.1084 18.6431C13.0969 18.7415 13.0996 18.8345 13.1031 18.904C13.1079 18.9984 13.111 19.0157 13.1136 19.0834C13.1177 19.192 13.1021 19.1857 13.1205 19.155C13.1521 19.1022 13.1797 19.1279 13.0532 19.1562L13.2719 20.132C13.5667 20.066 13.8243 19.9259 13.9783 19.669C14.119 19.4341 14.1181 19.1853 14.1129 19.0458C14.1107 18.9896 14.1032 18.8815 14.1018 18.8533C14.0991 18.8002 14.1 18.7733 14.1017 18.7587C14.1025 18.7521 14.0879 18.8153 14.0338 18.8479L13.5177 17.9914ZM13.0532 19.1562C13.0152 19.1648 12.9342 19.175 12.7922 19.1881C12.6662 19.1998 12.4945 19.2135 12.3277 19.2304C12.0005 19.2636 11.5794 19.318 11.2537 19.4473C11.093 19.5111 10.8903 19.6175 10.7499 19.8074C10.5845 20.031 10.5542 20.3031 10.6457 20.5635C10.7256 20.7911 10.8915 20.9951 11.0886 21.1807C11.2924 21.3725 11.5676 21.5796 11.9198 21.8065L12.4614 20.9659C12.1375 20.7572 11.9173 20.5874 11.7741 20.4526C11.7031 20.3857 11.6562 20.3323 11.6263 20.292C11.5961 20.2512 11.589 20.2316 11.5892 20.2321C11.5983 20.258 11.6017 20.3374 11.554 20.402C11.5312 20.4327 11.5301 20.4135 11.6226 20.3768C11.8032 20.3051 12.0947 20.2591 12.4285 20.2253C12.5921 20.2087 12.7379 20.1974 12.8841 20.1839C13.0144 20.1719 13.1604 20.157 13.2719 20.132L13.0532 19.1562ZM11.9198 21.8065C12.6587 22.2825 13.1953 22.6118 13.7375 22.8295C14.2941 23.0529 14.8341 23.1507 15.5758 23.2079L15.6528 22.2109C14.9653 22.1578 14.5365 22.0727 14.1101 21.9015C13.6693 21.7245 13.2086 21.4473 12.4614 20.9659L11.9198 21.8065ZM15.5758 23.2079C16.419 23.273 17.3457 23.3227 18.2374 23.2499C19.1273 23.1773 20.0194 22.9803 20.7753 22.5248L20.2593 21.6683C19.6871 22.013 18.9664 22.1871 18.156 22.2533C17.3476 22.3193 16.4868 22.2753 15.6528 22.2109L15.5758 23.2079ZM20.7753 22.5248C21.3725 22.165 21.95 22.0061 22.4829 21.8672C22.7407 21.8 23.0128 21.7314 23.2498 21.643C23.4896 21.5535 23.7416 21.4273 23.9433 21.2161L23.2201 20.5255C23.1674 20.5806 23.0752 20.6408 22.9003 20.7061C22.7225 20.7724 22.5093 20.8269 22.2307 20.8996C21.6905 21.0403 20.9901 21.2279 20.2593 21.6683L20.7753 22.5248Z"/><path stroke="#fff" stroke-linecap="round" stroke-linejoin="round" d="M19.9054 17.8059C19.9054 17.3974 20.028 16.4576 20.5183 15.9673C18.6797 15.763 16.8167 16.7518 16.2283 15.9673C14.3899 13.5158 14.241 11.9311 16.8412 11.0644C20.5185 9.83862 20.518 8 21.7438 8C22.9695 8 21.7438 9.83862 22.9695 9.22574C24.1953 8.61287 26.0343 8.61287 26.0343 9.22574C26.0343 9.83862 24.1957 10.4515 24.8086 11.0644C25.4214 11.6772 24.8084 12.2901 25.4213 12.2901C26.0341 12.2901 29.0985 11.0644 29.0985 11.6772C29.0985 12.2901 26.647 14.1287 27.8727 15.3545C29.0985 16.5802 31.55 15.3545 31.55 16.5802C31.55 17.8059 28.4856 17.8059 29.0985 19.0317C29.7114 20.2574 29.7114 20.2574 30.9371 20.2574C32.1628 20.2574 32.776 20.8703 33.3886 21.4832C33.8219 21.9166 29.7114 22.0961 30.3242 23.3218C30.9371 24.5475 31.5502 25.7733 34.6146 25.1604C33.5931 26.1819 32.163 26.5087 32.1631 26.999C32.1634 28.2248 32.7755 28.8376 34.0012 28.2248C35.227 27.6119 36.4529 26.3862 37.0658 26.3862C37.6787 26.3862 36.4531 29.4506 37.0661 30.0634C37.6792 30.6763 40.1302 28.8376 40.743 26.999C41.3559 25.1604 42.5819 26.3862 41.969 28.8376C41.3562 31.2891 38.8761 35.0223 32.1631 34.3535C28.2297 33.9616 26.4427 31.6977 25.4213 30.6763C24.3998 30.472 23.8354 31.4434 24.3257 32.424C24.9385 33.6498 24.8081 34.3535 22.9698 34.3535C21.744 34.3535 15.6153 34.3535 15.6153 33.7406C15.6153 33.1277 16.841 33.1277 16.841 32.5149C16.841 31.902 16.841 31.2891 18.0668 31.2891C19.0474 31.2891 19.7011 31.2891 19.9054 31.2891C19.0882 30.2677 17.5765 27.857 18.0668 26.3862C18.6797 24.5475 21.744 26.3862 21.744 24.5475C21.744 22.7089 20.5178 23.3218 23.5824 20.8703"/><path fill="#fff" d="M19.9048 11.678C20.3134 11.2694 21.2531 10.5748 21.7434 11.0651C22.3563 11.678 20.5177 11.679 19.9048 11.678Z"/><path stroke="#fff" stroke-linecap="round" stroke-width=".5" d="M16.0112 15.2756C16.8031 14.9292 18.7432 14.2363 20.1685 14.2363"/><defs><filter id="filter0_d_8010_394303" width="52" height="52" x="0" y="0" color-interpolation-filters="sRGB" filterUnits="userSpaceOnUse"><feFlood flood-opacity="0" result="BackgroundImageFix"/><feColorMatrix in="SourceAlpha" result="hardAlpha" type="matrix" values="0 0 0 0 0 0 0 0 0 0 0 0 0 0 0 0 0 0 127 0"/><feOffset dy="4"/><feGaussianBlur stdDeviation="2"/><feColorMatrix type="matrix" values="0 0 0 0 0 0 0 0 0 0 0 0 0 0 0 0 0 0 0.25 0"/><feBlend in2="BackgroundImageFix" mode="normal" result="effect1_dropShadow_8010_394303"/><feBlend in="SourceGraphic" in2="effect1_dropShadow_8010_394303" mode="normal" result="shape"/></filter></defs></svg>