<svg xmlns="http://www.w3.org/2000/svg" width="35" height="35" viewBox="0 0 35 35"><path fill="#2D2D2D" fill-rule="evenodd" d="M17.5 0C27.165 0 35 7.835 35 17.5S27.165 35 17.5 35 0 27.165 0 17.5 7.835 0 17.5 0zm1.441 6.225l-.236.005-.244.017a5.4 5.4 0 0 0-4.324 2.914l-.082.168-.173-.046-.231-.045a3.13 3.13 0 0 0-.472-.035l-.185.005-.181.016a3.171 3.171 0 0 0-2.716 2.411l-.008.036-.069.025-.188.08a3.882 3.882 0 0 0-2.282 3.536l.005.2a3.881 3.881 0 0 0 3.876 3.68h.102v6.71l-.186-.108c-.417-.222-.937-.366-1.553-.428a.5.5 0 0 0-.1.994l.183.022c1.012.135 1.534.506 1.656 1.175v.718l.997.063.019-.183c.02-.241.014-.468-.016-.686v-8.277H17L17 23.316l.008.09a.5.5 0 0 0 .992-.09v-4.124h3.342l.217-.006.155-.015.189.015.233.006c.111 0 .221-.004.33-.012l.001 8.289-.022.221c-.009.15-.007.304.006.465l.02.183.995-.063.001-.718.03-.13c.163-.587.681-.919 1.626-1.045l.184-.022.088-.017a.5.5 0 0 0-.189-.977c-.616.062-1.136.206-1.553.428l-.186.108-.001-6.911a4.458 4.458 0 0 0 3.126-4.255l-.006-.227-.018-.235a4.455 4.455 0 0 0-2.147-3.364l-.142-.08-.027-.177-.047-.228a5.4 5.4 0 0 0-5.264-4.2zM17.5 25.195a1.19 1.19 0 1 0 0 2.38 1.19 1.19 0 0 0 0-2.38zm-10.553-.93a1.19 1.19 0 1 0 0 2.38 1.19 1.19 0 0 0 0-2.38zm21.106 0a1.19 1.19 0 1 0 0 2.38 1.19 1.19 0 0 0 0-2.38zm-9.112-17.04a4.398 4.398 0 0 1 4.378 3.977l.027.283.258.122.186.094a3.456 3.456 0 0 1-2.017 6.472h-.107l-.164.015-.16.004h-9.188a.501.501 0 0 0-.12-.015l-.09.008a.497.497 0 0 0-.03.006l-.483.001-.17-.004a2.881 2.881 0 0 1-.598-5.653l.323-.089.04-.333.025-.16a2.17 2.17 0 0 1 2.128-1.75c.325 0 .642.074.936.215l.5.24.187-.522.076-.197a4.399 4.399 0 0 1 4.063-2.714z"/></svg>