<svg xmlns="http://www.w3.org/2000/svg" width="35" height="35" viewBox="0 0 35 35"><path fill="#2D2D2D" fill-rule="evenodd" d="M17.5 0C27.165 0 35 7.835 35 17.5S27.165 35 17.5 35 0 27.165 0 17.5 7.835 0 17.5 0zm5.693 6.505h-.102c-2.312.093-5.02.586-7.498 1.74-3.85 1.795-6.137 4.81-6.137 9.255l.004.258.014.285a7.978 7.978 0 0 0 5.349 6.993l.102.033-.057.054-.346.305a14.3 14.3 0 0 1-2.543 1.723c-.955.507-.7 1.347.377 1.27 2.566-.183 5.268-.79 7.606-2.033 3.434-1.825 5.44-4.737 5.44-8.888l-.005-.258-.014-.285a7.978 7.978 0 0 0-5.349-6.993l-.105-.034.051-.048.339-.302a14.319 14.319 0 0 1 3.064-2.025l.065-.033a.766.766 0 0 0 .113-.076c.181-.148.298-.362.144-.654a.466.466 0 0 0-.335-.265l-.085-.015-.092-.007zm-2.027 1.176l-.226.153-.341.245a15.301 15.301 0 0 0-2.004 1.762l-.62.651.88.183.246.056a6.975 6.975 0 0 1 5.3 6.769c0 3.755-1.782 6.343-4.908 8.005l-.416.212-.467.217c-1.413.629-2.947 1.04-4.479 1.28l-.409.06.3-.2.388-.28a14.532 14.532 0 0 0 1.852-1.635l.62-.651-.88-.183-.246-.056a6.975 6.975 0 0 1-5.3-6.769c0-4.02 2.038-6.707 5.56-8.348 1.605-.748 3.33-1.205 4.964-1.445l.186-.026zm-3.737 6.33a3.488 3.488 0 1 0 0 6.978 3.488 3.488 0 1 0 0-6.978zm0 1a2.488 2.488 0 1 1 0 4.978 2.488 2.488 0 1 1 0-4.978z"/></svg>