<svg xmlns="http://www.w3.org/2000/svg" width="35" height="35" viewBox="0 0 35 35"><path fill="#2D2D2D" fill-rule="evenodd" d="M17.5 0C27.165 0 35 7.835 35 17.5S27.165 35 17.5 35 0 27.165 0 17.5 7.835 0 17.5 0zm0 7.243a.54.54 0 0 0-.54.54V10.8L14.642 8.48a.54.54 0 0 0-.763.764l3.08 3.08v4.24l-3.67-2.12-1.128-4.208a.54.54 0 0 0-1.043.28l.848 3.165-2.612-1.507a.54.54 0 1 0-.54.934l2.612 1.507-3.165.848a.54.54 0 0 0 .279 1.044l4.21-1.128 3.67 2.12-3.67 2.12-4.21-1.128a.547.547 0 0 0-.661.383.54.54 0 0 0 .382.661l3.165.848-2.611 1.507a.54.54 0 1 0 .54.934l2.611-1.507-.848 3.165a.54.54 0 0 0 1.043.28l1.128-4.209 3.67-2.12v4.24l-3.08 3.081a.54.54 0 1 0 .763.764L16.96 24.2v3.016a.54.54 0 0 0 1.08 0V24.2l2.317 2.318a.54.54 0 0 0 .763-.764l-3.08-3.08v-4.24l3.67 2.12 1.129 4.208a.54.54 0 0 0 1.043-.28l-.849-3.165 2.612 1.507a.54.54 0 0 0 .54-.934l-2.612-1.507 3.166-.848a.54.54 0 0 0-.28-1.044L22.25 19.62l-3.671-2.12 3.671-2.12 4.21 1.128a.54.54 0 0 0 .28-1.044l-3.167-.848 2.612-1.507a.54.54 0 1 0-.54-.934l-2.612 1.507.849-3.165a.54.54 0 0 0-.382-.662.55.55 0 0 0-.661.382l-1.128 4.209-3.672 2.12v-4.24l3.081-3.081a.54.54 0 0 0-.763-.764L18.039 10.8V7.783a.54.54 0 0 0-.54-.54z"/></svg>