<svg width="52" height="52" viewBox="0 0 52 52" fill="none" xmlns="http://www.w3.org/2000/svg">
<g filter="url(#filter0_d_8010_394305)">
<path d="M48 22C48 34.1503 38.1503 44 26 44C13.8497 44 4 34.1503 4 22C4 9.84974 13.8497 0 26 0C38.1503 0 48 9.84974 48 22Z" fill="#009BFF"/>
</g>
<path d="M26.0049 28.5689V26.6934" stroke="white" stroke-width="0.5" stroke-linecap="round" stroke-linejoin="round"/>
<path d="M13.8134 31.1385C16.3679 35.884 19.6507 36.3389 21.586 35.9732C21.3709 35.5389 20.8635 34.245 20.5538 32.5443C20.1668 30.4183 17.7155 30.0069 17.9735 27.2981C18.2316 24.5892 17.393 24.4178 16.7156 20.8861C16.0383 17.3543 16.9092 15.1598 18.9089 11.8338C20.5087 9.17299 24.306 8.59927 26.0047 8.64501C24.5318 7.60491 19.4136 5.44406 14.2014 8.81808C7.68613 13.0356 13.1324 19.2403 13.1324 21.709C13.1324 24.1778 10.6203 25.2065 13.8134 31.1385Z" fill="white"/>
<path d="M37.8079 31.1385C35.2534 35.884 32.3585 36.3389 30.4233 35.9732C30.6383 35.5389 31.1458 34.245 31.4554 32.5443C31.8425 30.4183 34.2938 30.0069 34.0357 27.2981C33.7777 24.5892 34.6163 24.4178 35.2936 20.8861C35.971 17.3543 35.1001 15.1598 33.1004 11.8338C31.5006 9.17299 27.7033 8.59927 26.0046 8.64501C27.4775 7.60491 32.5957 5.44406 37.8079 8.81808C44.3232 13.0356 38.8768 19.2403 38.8768 21.709C38.8768 24.1778 41.001 25.2065 37.8079 31.1385Z" fill="white"/>
<path d="M35.0483 22.9206L35.0727 22.8755L35.0924 22.8281C35.1295 22.7385 35.1752 22.6362 35.2264 22.5218C35.5005 21.9089 35.9306 20.9472 36.0336 19.7118C36.159 18.2065 35.8147 16.359 34.4854 14.0283C32.2338 10.0808 27.838 9.24841 25.9075 9.3034C22.0145 9.3083 18.7937 11.1934 17.1105 14.0109C15.4171 16.8453 15.6456 20.5253 16.8501 22.8978C17.2767 23.738 17.3983 24.9666 17.4906 26.3466C17.4959 26.4261 17.5012 26.5063 17.5065 26.5868C17.5441 27.1608 17.5829 27.7532 17.6551 28.2749C17.7338 28.8445 17.8706 29.4988 18.2049 30.007C18.311 30.1683 18.4134 30.3219 18.5119 30.4698C19.1983 31.5001 19.7004 32.2536 20.0243 33.4248C20.4941 35.1234 22.1015 38.1514 25.9227 38.1514C29.777 38.1514 31.2679 34.9772 31.6922 33.4214C31.8809 32.7295 31.9741 32.4723 32.1814 32.1266C32.3788 31.7977 32.6668 31.4097 33.2098 30.6783C33.3474 30.493 33.5013 30.2857 33.6742 30.0517C34.7259 28.6288 34.6975 27.1557 34.6525 25.974C34.6509 25.9322 34.6493 25.8908 34.6478 25.8498C34.6025 24.678 34.5689 23.8074 35.0483 22.9206Z" stroke="white" stroke-width="2"/>
<path d="M28.1261 22.2715C28.1261 23.4549 27.1668 24.4142 25.9835 24.4142C24.8001 24.4142 23.8408 23.4549 23.8408 22.2715C23.8408 21.0882 24.8001 20.1289 25.9835 20.1289C27.1668 20.1289 28.1261 21.0882 28.1261 22.2715Z" fill="white"/>
<path d="M23.4132 19.6651C23.5431 18.3666 20.5583 16.4114 19.909 16.3789C18.091 16.8009 18.6555 20.1443 19.4526 20.0222C21.7846 19.6651 23.2834 20.9637 23.4132 19.6651Z" fill="white"/>
<path d="M28.5812 19.6651C28.4514 18.3666 31.4509 16.4114 32.1002 16.3789C33.9182 16.8009 33.3386 20.1464 32.5419 20.0222C30.2246 19.6612 28.7111 20.9637 28.5812 19.6651Z" fill="white"/>
<path fill-rule="evenodd" clip-rule="evenodd" d="M22.5137 27.9877C22.375 26.7993 23.3038 25.7559 24.5003 25.7559H27.5086C28.7051 25.7559 29.6338 26.7993 29.4951 27.9877L28.9769 32.4279C28.8592 33.4359 28.0052 34.196 26.9904 34.196H25.0185C24.0036 34.196 23.1496 33.4359 23.032 32.4279L22.5137 27.9877ZM24.1288 31.3826H27.88V32.2582C27.88 32.8105 27.4323 33.2582 26.88 33.2582H25.1288C24.5766 33.2582 24.1288 32.8105 24.1288 32.2582V31.3826ZM24.5162 26.7578C23.9639 26.7578 23.5162 27.2055 23.5162 27.7578V28.3562H28.4507V27.7578C28.4507 27.2055 28.003 26.7578 27.4507 26.7578H24.5162Z" fill="white"/>
<path d="M18.5024 15.9082C20.2217 17.0023 23.8479 19.1905 24.5981 19.1905" stroke="white" stroke-linecap="round" stroke-linejoin="round"/>
<path d="M33.0381 15.9082C31.3188 17.0023 28.1616 19.1905 27.4113 19.1905" stroke="white" stroke-linecap="round" stroke-linejoin="round"/>
<path d="M25.0669 22.473C25.0669 22.0041 25.5358 21.5352 26.0049 21.5352" stroke="#009BFF" stroke-linecap="round" stroke-linejoin="round"/>
<circle cx="21.3157" cy="19.1917" r="0.937795" fill="#009BFF"/>
<circle cx="30.6937" cy="19.1917" r="0.937795" fill="#009BFF"/>
<defs>
<filter id="filter0_d_8010_394305" x="0" y="0" width="52" height="52" filterUnits="userSpaceOnUse" color-interpolation-filters="sRGB">
<feFlood flood-opacity="0" result="BackgroundImageFix"/>
<feColorMatrix in="SourceAlpha" type="matrix" values="0 0 0 0 0 0 0 0 0 0 0 0 0 0 0 0 0 0 127 0" result="hardAlpha"/>
<feOffset dy="4"/>
<feGaussianBlur stdDeviation="2"/>
<feColorMatrix type="matrix" values="0 0 0 0 0 0 0 0 0 0 0 0 0 0 0 0 0 0 0.25 0"/>
<feBlend mode="normal" in2="BackgroundImageFix" result="effect1_dropShadow_8010_394305"/>
<feBlend mode="normal" in="SourceGraphic" in2="effect1_dropShadow_8010_394305" result="shape"/>
</filter>
</defs>
</svg>
