<svg width="52" height="52" viewBox="0 0 52 52" fill="none" xmlns="http://www.w3.org/2000/svg">
<g filter="url(#filter0_d_8010_394302)">
<path d="M48 22C48 34.1503 38.1503 44 26 44C13.8497 44 4 34.1503 4 22C4 9.84974 13.8497 0 26 0C38.1503 0 48 9.84974 48 22Z" fill="#009BFF"/>
</g>
<path d="M16 19.0359V15.3809C16 14.8286 16.4477 14.3809 17 14.3809H17.8669" stroke="white" stroke-linecap="round"/>
<path d="M35.8555 19V15C35.8555 14.4477 35.4078 14 34.8555 14H33.8555" stroke="white" stroke-linecap="round"/>
<path d="M19 25C21.3472 24.2454 27.2333 23.1889 32 25" stroke="white" stroke-width="0.5" stroke-linecap="round"/>
<path d="M21.7778 20L20.2859 17.2888C20.1365 17.0173 20.2719 16.6598 20.4773 16.4277C20.7661 16.1014 21.018 15.5393 20.972 14.6617C20.9546 14.3287 21.221 14.0314 21.553 14.0627L25.7327 14.4573C25.7627 14.4601 25.7929 14.4602 25.8228 14.4576L30.0977 14.0877C30.5113 14.0519 30.8608 14.5622 30.8913 14.9762C30.9246 15.4272 31.13 15.9611 31.6771 16.49C31.8538 16.6607 31.9129 16.9276 31.7945 17.1428L30.2222 20" stroke="white" stroke-linecap="round"/>
<path d="M37.6184 23.8854L32.8593 28.1283C32.723 28.2499 32.5158 28.2449 32.3854 28.1171C32.2504 27.9847 32.0344 27.9847 31.8994 28.1171L28.9656 30.9943C28.8721 31.086 28.7464 31.1373 28.6155 31.1373H22.8533C22.7224 31.1373 22.5967 31.086 22.5032 30.9943L19.5637 28.1115C19.4319 27.9822 19.2208 27.9822 19.089 28.1115C18.9572 28.2408 18.7462 28.2408 18.6143 28.1115L14.3042 23.8846C14.1804 23.7631 14.1283 23.5862 14.1666 23.4171L14.9661 19.8892C15.0177 19.6614 15.2201 19.4997 15.4537 19.4997H16.1362C16.3424 19.4997 16.5275 19.373 16.6022 19.1807L20.1518 10.043C20.2265 9.85072 20.4116 9.72405 20.6179 9.72405H23.0984C23.3745 9.72405 23.5984 9.50019 23.5984 9.22405V7.02779C23.5984 6.61075 24.0789 6.37699 24.407 6.63441L25.6631 7.61989C25.8443 7.76205 26.0991 7.76205 26.2803 7.61989L27.5364 6.63441C27.8646 6.37699 28.3451 6.61075 28.3451 7.0278V9.22405C28.3451 9.50019 28.5689 9.72405 28.8451 9.72405H31.3256C31.5319 9.72405 31.717 9.85072 31.7916 10.043L35.3412 19.1807C35.4159 19.373 35.601 19.4997 35.8073 19.4997H36.4897C36.7233 19.4997 36.9258 19.6614 36.9774 19.8892L37.7733 23.4017C37.8135 23.5791 37.7542 23.7643 37.6184 23.8854Z" stroke="white" stroke-width="1.5" stroke-linecap="round"/>
<path d="M19.3013 28C18.7749 26.1818 18.7315 22 22.1003 19.8182L23.1528 18H28.7759L29.8287 19.8182C29.8287 19.8182 32.8783 22.7812 32.4606 28" stroke="white" stroke-linecap="round"/>
<path d="M9 30.5L9.61194 27.4135L13.884 23.6895" stroke="white" stroke-width="1.5" stroke-linecap="round"/>
<path d="M42.5 30.5L42.0507 27.4135L37.7786 23.6895" stroke="white" stroke-width="1.5" stroke-linecap="round"/>
<path d="M24 20L25.0197 21" stroke="white" stroke-linecap="round"/>
<path d="M28.0791 20L27.0594 21" stroke="white" stroke-linecap="round"/>
<defs>
<filter id="filter0_d_8010_394302" x="0" y="0" width="52" height="52" filterUnits="userSpaceOnUse" color-interpolation-filters="sRGB">
<feFlood flood-opacity="0" result="BackgroundImageFix"/>
<feColorMatrix in="SourceAlpha" type="matrix" values="0 0 0 0 0 0 0 0 0 0 0 0 0 0 0 0 0 0 127 0" result="hardAlpha"/>
<feOffset dy="4"/>
<feGaussianBlur stdDeviation="2"/>
<feColorMatrix type="matrix" values="0 0 0 0 0 0 0 0 0 0 0 0 0 0 0 0 0 0 0.25 0"/>
<feBlend mode="normal" in2="BackgroundImageFix" result="effect1_dropShadow_8010_394302"/>
<feBlend mode="normal" in="SourceGraphic" in2="effect1_dropShadow_8010_394302" result="shape"/>
</filter>
</defs>
</svg>
