<svg width="52" height="52" viewBox="0 0 52 52" fill="none" xmlns="http://www.w3.org/2000/svg">
<g filter="url(#filter0_d_8010_394311)">
<path d="M48 22C48 34.1503 38.1503 44 26 44C13.8497 44 4 34.1503 4 22C4 9.84974 13.8497 0 26 0C38.1503 0 48 9.84974 48 22Z" fill="#009BFF"/>
</g>
<path d="M20 30.4532L25.1316 24.894C25.3209 24.6889 25.5873 24.5723 25.8664 24.5723H28.9886C29.7873 24.5723 30.2637 25.4624 29.8207 26.127L27.4946 29.6161C27.3319 29.8602 27.2845 30.1634 27.3651 30.4455L28.7891 35.4294" stroke="white" stroke-width="4" stroke-linecap="round"/>
<path d="M30.8569 24.572L34.476 20.9529L36.2855 13.7148" stroke="white" stroke-width="4" stroke-linecap="round"/>
<path d="M25.4287 16.4277L27.0957 18.2948C27.2699 18.4899 27.5136 18.609 27.7746 18.6265L33.5322 19.0134C33.7265 19.0265 33.9128 19.096 34.0682 19.2135L38.6032 22.6419C38.8532 22.8309 39.0001 23.1262 39.0001 23.4396V27.2849" stroke="white" stroke-width="4" stroke-linecap="round"/>
<circle cx="36.0714" cy="15.0714" r="4.07143" fill="white"/>
<path d="M14.8051 4.80701L13.175 6.84698C13.0663 6.98305 13.0362 7.1659 13.0956 7.32963L15.3095 13.4322C15.4451 13.8059 15.9414 13.8796 16.1797 13.5615L16.9875 12.4831C17.2079 12.1889 17.6597 12.2251 17.8305 12.5506L20.0572 16.796C20.3321 17.32 21.1287 17.0165 20.9851 16.4425L18.6652 7.16771C18.5656 6.76985 18.0558 6.65441 17.7946 6.97059L17.1445 7.7576C16.8807 8.07693 16.3653 7.95541 16.2719 7.55187L15.6829 5.00642C15.5887 4.5992 15.0661 4.48048 14.8051 4.80701Z" fill="white"/>
<defs>
<filter id="filter0_d_8010_394311" x="0" y="0" width="52" height="52" filterUnits="userSpaceOnUse" color-interpolation-filters="sRGB">
<feFlood flood-opacity="0" result="BackgroundImageFix"/>
<feColorMatrix in="SourceAlpha" type="matrix" values="0 0 0 0 0 0 0 0 0 0 0 0 0 0 0 0 0 0 127 0" result="hardAlpha"/>
<feOffset dy="4"/>
<feGaussianBlur stdDeviation="2"/>
<feColorMatrix type="matrix" values="0 0 0 0 0 0 0 0 0 0 0 0 0 0 0 0 0 0 0.25 0"/>
<feBlend mode="normal" in2="BackgroundImageFix" result="effect1_dropShadow_8010_394311"/>
<feBlend mode="normal" in="SourceGraphic" in2="effect1_dropShadow_8010_394311" result="shape"/>
</filter>
</defs>
</svg>
