<svg xmlns="http://www.w3.org/2000/svg" width="35" height="35" viewBox="0 0 35 35"><path fill="#2D2D2D" fill-rule="evenodd" d="M17.5 0C27.165 0 35 7.835 35 17.5S27.165 35 17.5 35 0 27.165 0 17.5 7.835 0 17.5 0zm-1.62 6.297L5.48 25.843H26.38l-.77-1.428-.244-.04-.184-.034a3.476 3.476 0 0 1-2.456-4.772l.267-.612-.663-.084-.177-.027a3.013 3.013 0 0 1-2.143-4.29l.301-.605-.666-.111-.178-.035a3.013 3.013 0 0 1-2.05-4.215l.107-.228-1.645-3.065zm.003 2.122l.527.982-.082.228-.07.24a4.019 4.019 0 0 0-.125 1l.005.203.016.209a4.016 4.016 0 0 0 2.562 3.339l.17.059-.049.163-.06.255a4.02 4.02 0 0 0-.077.789l.005.201.015.208a4.016 4.016 0 0 0 2.716 3.395l.171.053-.044.163-.052.255a4.49 4.49 0 0 0-.069.784l.005.212.018.243a4.48 4.48 0 0 0 2.201 3.414l.054.029H7.146l8.737-16.424zm9.66 10.519a1.629 1.629 0 1 0 0 3.257 1.629 1.629 0 0 0 0-3.257zm0 1a.629.629 0 1 1 0 1.257.629.629 0 0 1 0-1.257zm-2.598-5.96a1.629 1.629 0 1 0 0 3.257 1.629 1.629 0 0 0 0-3.257zm0 1a.629.629 0 1 1 0 1.257.629.629 0 0 1 0-1.257zm-2.732-5.825a1.629 1.629 0 1 0 0 3.258 1.629 1.629 0 0 0 0-3.258zm0 1a.629.629 0 1 1 0 1.258.629.629 0 0 1 0-1.258z"/></svg>