<svg width="25" height="30" viewBox="0 0 25 30" fill="none" xmlns="http://www.w3.org/2000/svg">
<path fill-rule="evenodd" clip-rule="evenodd" d="M5.82448e-06 20.9998C2.75129 18.7511 4.42687 15.7699 4.42687 12.4993C4.42687 9.22933 2.75182 6.24849 0.00131244 4C4.40511 5.4466 7.47608 8.70806 7.47608 12.4997C7.47608 16.2917 4.40451 19.5534 5.82448e-06 20.9998Z" fill="white"/>
<path fill-rule="evenodd" clip-rule="evenodd" d="M24.3035 5.66212L16.2916 12.2173C15.7991 12.6203 15.8032 13.3746 16.3001 13.7721L23.8615 19.8213C21.9539 21.782 19.2867 23 16.335 23C10.536 23 5.83496 18.299 5.83496 12.5C5.83496 6.70101 10.536 2 16.335 2C19.5222 2 22.3778 3.42012 24.3035 5.66212Z" fill="white"/>
<path d="M15 7.5C15 8.32843 14.3284 9 13.5 9C12.6716 9 12 8.32843 12 7.5C12 6.67157 12.6716 6.5 13.5 6.5C14.3284 6.5 15 6.67157 15 7.5Z" fill="#009BFF"/>
<path d="M8.33496 0L10.335 3L12.335 2L8.33496 0Z" fill="white"/>
<path d="M12.5586 29.5664L13.5922 24.0775L16.924 24.4707L12.5586 29.5664Z" fill="white"/>
<path d="M23.3054 6.15141L22.0122 7.14187L23.8143 8.15547L23.3054 6.15141Z" fill="white"/>
<path d="M21.6506 7.19717L19.9664 8.48698L22.3133 9.80693L21.6506 7.19717Z" fill="white"/>
<path d="M19.6506 8.19717L17.9664 9.48698L20.3133 10.8069L19.6506 8.19717Z" fill="white"/>
<path d="M18.0715 10.1343L16.9243 11.0129L18.523 11.9121L18.0715 10.1343Z" fill="white"/>
<path d="M16.9583 15.3005L18.6321 16.6038L19.3156 13.9994L16.9583 15.3005Z" fill="white"/>
<path d="M21.1883 18.9939L22.862 20.2971L23.5456 17.6928L21.1883 18.9939Z" fill="white"/>
<path d="M19.9321 17.022L21.247 18.0459L21.784 15.9999L19.9321 17.022Z" fill="white"/>
</svg>
