<svg xmlns="http://www.w3.org/2000/svg" width="35" height="35" viewBox="0 0 35 35"><path fill="#2D2D2D" fill-rule="evenodd" d="M17.5 0C27.165 0 35 7.835 35 17.5S27.165 35 17.5 35 0 27.165 0 17.5 7.835 0 17.5 0zm0 6.531l-8.574 8.005v10.898l.007.146c.09.781.73 1.354 1.493 1.354h6.459V17l-.89.272-.267.097a6.8 6.8 0 0 0-1.56.875l-.23.175a3.878 3.878 0 0 1 3.512-2.717l.2-.005h2.517l.222-.293a.48.48 0 0 1 .353-.148c.27 0 .49.219.49.49v1.424l-.006.086c-.026.216-.235.403-.484.403a.49.49 0 0 1-.46-.322l-.12-.328-2.192-.001v9.924l6.604.001.146-.007a1.506 1.506 0 0 0 1.354-1.493V14.536L17.5 6.53zm0 1.368l7.574 7.071v10.464a.5.5 0 0 1-.44.497l-.088.004-5.577-.002v-7.925l.543.001.03.043a1.49 1.49 0 0 0 2.68-.708l.01-.144v-1.454a1.49 1.49 0 0 0-1.49-1.49l-.145.008a1.486 1.486 0 0 0-.888.41l-.024.024h-2.048l-.223.006a4.872 4.872 0 0 0-4.64 4.628l-.006.224v1.395l.86-.895.243-.244c.647-.631 1.295-1.095 1.943-1.393l.07-.031v7.545l-5.458.001a.5.5 0 0 1-.497-.44l-.004-.089V14.97L17.5 7.899z"/></svg>