<svg width="52" height="52" viewBox="0 0 52 52" fill="none" xmlns="http://www.w3.org/2000/svg">
<g filter="url(#filter0_d_8010_394304)">
<path d="M48 22C48 34.1503 38.1503 44 26 44C13.8497 44 4 34.1503 4 22C4 9.84974 13.8497 0 26 0C38.1503 0 48 9.84974 48 22Z" fill="#009BFF"/>
</g>
<path d="M20 27.5C20.1524 29.6329 26.2405 36.5 27 36.5C27.9055 36.5 26.3971 33.7812 27 32.5C31 24 30.5 31.5 23 28C21.6528 27.3713 27.7721 28 29.5 27C35.6201 23.4581 28 26 39.719 16.5C40.522 15.8491 30.5 19 21 15.5C18.7706 14.6786 33.5 18.5 39.719 14.4443C41.8804 13.0348 37.8496 10.091 27.7721 10.0033C17.6946 9.91566 13.3131 11.581 13.021 13.5386C12.7289 15.4961 15.5915 16.4311 15.0073 17.5413C14.4231 18.6516 19.5 21.5 33.5 20C34.9305 19.8467 25.5 24 17.5 21.5C15.6115 20.9098 19.2351 25 21 25C33 25 19.8618 25.5652 20 27.5Z" fill="white"/>
<path d="M41.628 25.8627C41.628 25.8627 41.6266 25.8626 41.6236 25.8621L41.628 25.8627ZM41.9258 25.1347C41.8973 25.058 41.8626 24.9729 41.8207 24.8904C41.8513 24.6671 41.9492 24.4921 42.1017 24.2372C42.1061 24.2298 42.1106 24.2223 42.1151 24.2147C42.2959 23.9129 42.5323 23.5181 42.5943 22.9269C42.634 22.5479 42.8343 22.1039 43.0649 21.6828C43.1383 21.5487 43.2057 21.4327 43.2694 21.323C43.3064 21.2591 43.3422 21.1974 43.3772 21.1356C43.4209 21.0585 43.4645 20.979 43.4983 20.9068L43.4983 20.9067C43.5218 20.8566 43.58 20.7322 43.5862 20.5931C43.5956 20.3802 43.4691 20.1847 43.2711 20.1062C43.0891 20.034 42.9037 20.0504 42.7727 20.0761C42.6297 20.1042 42.4802 20.1579 42.3313 20.2268C42.0322 20.3652 41.6855 20.5885 41.3183 20.8914C40.6329 21.4567 39.8429 22.326 39.1201 23.5277L38.2825 23.4555C38.281 23.4377 38.2795 23.4187 38.278 23.3983C38.2757 23.3655 38.2728 23.3133 38.2697 23.2572C38.2653 23.1783 38.2605 23.0916 38.2562 23.04C38.2515 22.983 38.2442 22.9131 38.2301 22.8463C38.223 22.8127 38.2117 22.7678 38.1928 22.7199C38.1758 22.677 38.1399 22.5981 38.0672 22.5242L37.7107 22.8748L38.0672 22.5242C37.931 22.3857 37.7586 22.3558 37.631 22.3697C37.5223 22.3815 37.4405 22.4235 37.3994 22.4471C37.3138 22.4962 37.2426 22.5623 37.1964 22.608C37.0954 22.708 36.9861 22.8419 36.891 22.9655C36.772 23.1204 36.6483 23.2952 36.5606 23.4268C36.4902 23.436 36.3941 23.4448 36.2682 23.4533C36.1103 23.4639 35.9231 23.4731 35.7066 23.4837L35.6766 23.4852C35.4493 23.4964 35.1939 23.5091 34.9197 23.5264C34.0907 23.5788 33.1693 23.7953 32.6987 23.9275C32.6852 23.922 32.6694 23.9151 32.6515 23.9066C32.5711 23.8681 32.4616 23.8014 32.3405 23.6916C32.3405 23.6917 32.3406 23.6917 32.3406 23.6917C32.3404 23.6915 32.3287 23.6801 32.3082 23.649C32.2876 23.6179 32.2637 23.5755 32.2376 23.5205C32.1849 23.4099 32.133 23.2699 32.0845 23.1133C31.9877 22.8001 31.9175 22.462 31.8836 22.2507C31.8552 22.0743 31.7348 21.9264 31.5678 21.8628C31.1056 21.6868 30.7423 21.9813 30.5604 22.1884C30.3617 22.4145 30.196 22.7269 30.0606 23.0361C29.8236 23.5775 29.6289 24.2295 29.5039 24.7342C29.1173 24.9358 28.3636 25.3684 27.1901 26.124C26.2313 26.7413 25.385 27.4409 24.7634 28.0227C24.4525 28.3138 24.194 28.5789 24.0032 28.7935C23.9081 28.9004 23.8264 28.9987 23.7623 29.0841C23.7082 29.1561 23.6356 29.2587 23.5947 29.3641C23.5528 29.4721 23.5405 29.5967 23.5737 29.7227C23.6051 29.8422 23.6687 29.9301 23.7252 29.9887C23.8288 30.0961 23.9564 30.1545 24.0385 30.1867C24.2159 30.2563 24.4407 30.3002 24.6455 30.3304C25.0688 30.3928 25.5634 30.4182 25.8281 30.4242C26.069 30.4296 26.65 30.3878 27.2279 30.3201C27.636 30.2722 28.0933 30.206 28.4549 30.1208C28.7169 30.4629 28.9346 30.7156 29.114 30.8836C29.2219 30.9847 29.3508 31.0888 29.4947 31.1492C29.6482 31.2135 29.936 31.2652 30.1703 31.0402C30.2471 30.9665 30.2961 30.873 30.3133 30.8402L30.3147 30.8375C30.342 30.7855 30.37 30.7251 30.3969 30.6636C30.4512 30.5393 30.5131 30.3834 30.5747 30.2214C30.6599 29.9971 30.7487 29.7507 30.8229 29.5392C30.9819 29.4973 31.2003 29.4361 31.482 29.3515C31.6157 29.3113 31.8016 29.2225 31.9897 29.1263C32.1912 29.0233 32.4377 28.8894 32.7104 28.7371C33.2563 28.432 33.9219 28.0447 34.5718 27.6637C34.7894 27.5361 35.0051 27.4093 35.2142 27.2864C35.6317 27.041 36.023 26.811 36.3511 26.6208C36.5972 26.4781 36.8038 26.3601 36.9567 26.2761C37.0081 26.2478 37.0517 26.2243 37.0875 26.2056C37.0947 26.2088 37.1025 26.2123 37.1109 26.2163C37.2082 26.2623 37.3293 26.3342 37.4656 26.4199C37.5044 26.4443 37.5461 26.4709 37.5885 26.498C37.6804 26.5566 37.7756 26.6174 37.8528 26.6629C37.9098 26.6966 37.9792 26.7354 38.0477 26.7642C38.0811 26.7783 38.1329 26.798 38.1942 26.8098C38.241 26.8188 38.3784 26.8413 38.5292 26.7717C38.6425 26.7193 38.7471 26.626 38.8069 26.4908C38.8602 26.3703 38.8588 26.2591 38.8525 26.194C38.8417 26.0836 38.8007 25.9774 38.7823 25.9298L38.78 25.9237C38.7741 25.9084 38.7683 25.8935 38.7628 25.8791C38.7363 25.8111 38.7138 25.7531 38.697 25.6951C38.7268 25.672 38.7686 25.6437 38.8241 25.6121C38.9672 25.5308 39.1354 25.4644 39.2551 25.4253C39.28 25.4457 39.3129 25.4752 39.3549 25.5169C39.4122 25.5736 39.4693 25.6353 39.5357 25.7069C39.5569 25.7297 39.579 25.7536 39.6023 25.7786C39.6926 25.8753 39.7981 25.986 39.9108 26.0845C40.1523 26.2959 40.5651 26.5207 40.8968 26.6645C41.065 26.7374 41.2463 26.8045 41.4021 26.8377C41.4713 26.8524 41.5871 26.8723 41.7094 26.8541C41.7726 26.8447 41.8806 26.819 41.9835 26.7372C42.1026 26.6426 42.1731 26.5058 42.1856 26.3602C42.1954 26.2464 42.1723 26.0986 42.1553 26.0011C42.1339 25.8785 42.1025 25.7326 42.0643 25.5843C42.0261 25.4365 41.9793 25.2788 41.9258 25.1347ZM42.9899 21.054C42.9899 21.0541 42.9882 21.0543 42.985 21.0543C42.9884 21.0539 42.99 21.0539 42.9899 21.054ZM42.604 20.4558C42.6042 20.4557 42.6035 20.4579 42.6015 20.4627C42.6029 20.4583 42.6039 20.4559 42.604 20.4558ZM38.3099 23.6344C38.3099 23.6344 38.3094 23.6333 38.3088 23.6312C38.3096 23.6332 38.3099 23.6343 38.3099 23.6344ZM37.0235 26.1811C37.0237 26.1812 37.0238 26.1812 37.0239 26.1812L37.0193 26.1802C37.0193 26.1801 37.0206 26.1804 37.0235 26.1811ZM38.644 25.7441C38.644 25.7441 38.6443 25.7436 38.6451 25.7426C38.6445 25.7436 38.6441 25.744 38.644 25.7441ZM39.2039 25.3891C39.2039 25.3891 39.2043 25.3893 39.2053 25.3898L39.2039 25.3891Z" fill="white" stroke="#009BFF" stroke-linejoin="round"/>
<path d="M17.0083 12.3117C17.0059 12.3173 17.0068 12.3164 17.009 12.3099C17.0087 12.3106 17.0085 12.3112 17.0083 12.3117ZM16.6391 11.7614C16.6391 11.7614 16.64 11.7614 16.6421 11.7613C16.6401 11.7613 16.6391 11.7613 16.6391 11.7614ZM16.4095 11.4045C16.5318 11.2398 16.6702 11.0691 16.7877 10.9299C16.7801 10.8419 16.7597 10.7744 16.733 10.7148C16.6874 10.6126 16.6122 10.5078 16.4796 10.3499C16.4475 10.3117 16.4131 10.2717 16.3769 10.2295C16.1168 9.92653 15.7593 9.51024 15.4375 8.82837C15.0957 8.10395 14.862 7.49406 14.7142 7.02609C14.6403 6.79241 14.5867 6.59044 14.5518 6.42469C14.5193 6.27056 14.4954 6.1135 14.5008 5.98482C14.5097 5.77193 14.6525 5.58807 14.8566 5.52679C15.0113 5.48033 15.1528 5.50372 15.2406 5.52655C15.3353 5.55116 15.4248 5.59046 15.5031 5.63088C15.6601 5.71192 15.8324 5.82936 16.007 5.96184C16.3596 6.22936 16.7838 6.60642 17.2204 7.01966C18.0297 7.78552 18.917 8.70961 19.5396 9.3834H20.6758C20.6825 9.34932 20.6894 9.31036 20.6963 9.26627C20.7026 9.22676 20.711 9.16737 20.72 9.10439C20.7322 9.01803 20.7455 8.92491 20.7553 8.86695C20.766 8.80425 20.7804 8.72959 20.8015 8.65989C20.8122 8.62476 20.828 8.57912 20.8517 8.53152C20.873 8.48872 20.9165 8.41199 20.9962 8.3438C21.1446 8.21678 21.32 8.2016 21.4473 8.22665C21.5559 8.24802 21.6353 8.29758 21.6758 8.32574C21.7602 8.38437 21.8295 8.4603 21.876 8.51494C21.9769 8.63371 22.0848 8.79154 22.1791 8.93892C22.3042 9.13431 22.432 9.3538 22.5168 9.5099C22.5994 9.52925 22.717 9.55064 22.8746 9.57499C23.0514 9.60231 23.2611 9.63081 23.5027 9.66365L23.5366 9.66825C23.7907 9.70279 24.0756 9.74171 24.3812 9.78758C25.3127 9.92742 26.3358 10.2649 26.8419 10.4566C26.8633 10.4507 26.89 10.4422 26.9218 10.4302C27.0215 10.3927 27.1561 10.3255 27.3076 10.2102C27.3251 10.197 27.3787 10.1416 27.456 10.0098C27.5279 9.88719 27.601 9.73206 27.6712 9.55934C27.8115 9.21398 27.9238 8.83836 27.9829 8.60226C28.0263 8.42892 28.1589 8.29191 28.3308 8.2429C28.8264 8.10154 29.1815 8.43781 29.3617 8.68245C29.557 8.94751 29.7103 9.30674 29.8317 9.66499C30.0473 10.3014 30.2036 11.0625 30.2941 11.6425C30.6972 11.8971 31.5063 12.4567 32.7759 13.438C33.7887 14.2209 34.6681 15.0851 35.3075 15.796C35.6273 16.1516 35.8905 16.4726 36.0825 16.7301C36.1782 16.8585 36.2593 16.9752 36.3218 17.0752C36.3755 17.1611 36.4427 17.2768 36.4757 17.3899C36.5089 17.5034 36.5103 17.6308 36.4658 17.7554C36.4235 17.8738 36.3513 17.9577 36.288 18.0129C36.1717 18.1144 36.0333 18.1645 35.9408 18.1919C35.7422 18.2507 35.4916 18.2779 35.2598 18.292C34.7824 18.3209 34.2277 18.3016 33.9313 18.2828C33.747 18.2711 33.5183 18.2067 33.309 18.1378C33.0856 18.0643 32.8322 17.9677 32.5787 17.8646C32.2206 17.719 31.8511 17.5558 31.547 17.416C31.2161 17.7794 30.9467 18.0429 30.7306 18.213C30.6015 18.3146 30.4539 18.4134 30.2974 18.4637C30.131 18.5171 29.8343 18.543 29.6166 18.2946C29.5444 18.2123 29.5018 18.1107 29.4858 18.0726L29.4849 18.0703C29.46 18.0112 29.4351 17.9424 29.4111 17.8714C29.3626 17.7281 29.3086 17.5482 29.2552 17.3608C29.1781 17.0899 29.0989 16.7913 29.0346 16.5403C28.8593 16.478 28.6105 16.3851 28.2835 16.2553C28.0579 16.1658 27.5318 15.8717 26.9169 15.5162C26.282 15.1491 25.5022 14.6867 24.738 14.2315C24.513 14.0975 24.2895 13.9642 24.0713 13.834C23.5467 13.5211 23.0527 13.2265 22.6437 12.985C22.3541 12.814 22.1097 12.6711 21.9286 12.568C21.8398 12.5175 21.7688 12.478 21.7165 12.45C21.6985 12.4553 21.6762 12.4627 21.6491 12.4728C21.5317 12.5164 21.3859 12.5869 21.2245 12.67C21.1775 12.6942 21.1276 12.7203 21.0771 12.7467C20.9689 12.8034 20.8581 12.8614 20.768 12.9045C20.7013 12.9365 20.6228 12.9718 20.5474 12.9962C20.5105 13.0081 20.4552 13.0238 20.3914 13.0305C20.3423 13.0356 20.2022 13.046 20.057 12.9632C19.9468 12.9003 19.8495 12.797 19.801 12.6555C19.7577 12.5293 19.7686 12.4166 19.7809 12.3501C19.802 12.236 19.8549 12.1277 19.8802 12.0757L19.883 12.07C19.8911 12.0534 19.899 12.0374 19.9067 12.0217C19.9497 11.934 19.9869 11.8583 20.0148 11.7771C19.9799 11.7403 19.9236 11.6919 19.8427 11.6362C19.6736 11.5198 19.4702 11.421 19.3347 11.3657C19.2989 11.3877 19.2484 11.4242 19.1798 11.4815C19.1089 11.5405 19.0375 11.6054 18.9558 11.6796C18.9299 11.7031 18.9031 11.7275 18.8749 11.7529C18.7645 11.8526 18.6373 11.9647 18.5041 12.0623C18.2203 12.2705 17.7426 12.4804 17.3587 12.6089C17.1643 12.674 16.959 12.7303 16.7871 12.7516C16.71 12.7612 16.5873 12.7712 16.4631 12.7416C16.399 12.7263 16.2921 12.6907 16.1955 12.5994C16.084 12.494 16.025 12.3504 16.025 12.2028C16.025 12.079 16.0649 11.9753 16.0863 11.9243C16.1127 11.8615 16.1457 11.8004 16.1778 11.7461C16.2423 11.6368 16.3256 11.5175 16.4095 11.4045ZM20.6327 9.54454C20.6327 9.54459 20.6332 9.54375 20.634 9.54189C20.6331 9.54356 20.6327 9.54448 20.6327 9.54454ZM21.7697 12.4377C21.7698 12.4376 21.7681 12.4377 21.7647 12.4382C21.7679 12.438 21.7696 12.4378 21.7697 12.4377ZM20.0503 11.8212C20.0503 11.8212 20.05 11.8205 20.0491 11.8191C20.0498 11.8205 20.0503 11.8212 20.0503 11.8212Z" fill="white" stroke="#009BFF" stroke-linejoin="round"/>
<defs>
<filter id="filter0_d_8010_394304" x="0" y="0" width="52" height="52" filterUnits="userSpaceOnUse" color-interpolation-filters="sRGB">
<feFlood flood-opacity="0" result="BackgroundImageFix"/>
<feColorMatrix in="SourceAlpha" type="matrix" values="0 0 0 0 0 0 0 0 0 0 0 0 0 0 0 0 0 0 127 0" result="hardAlpha"/>
<feOffset dy="4"/>
<feGaussianBlur stdDeviation="2"/>
<feColorMatrix type="matrix" values="0 0 0 0 0 0 0 0 0 0 0 0 0 0 0 0 0 0 0.25 0"/>
<feBlend mode="normal" in2="BackgroundImageFix" result="effect1_dropShadow_8010_394304"/>
<feBlend mode="normal" in="SourceGraphic" in2="effect1_dropShadow_8010_394304" result="shape"/>
</filter>
</defs>
</svg>
