<svg width="52" height="52" viewBox="0 0 52 52" fill="none" xmlns="http://www.w3.org/2000/svg">
<g filter="url(#filter0_d_8336_415640)">
<path d="M48 22C48 34.1503 38.1503 44 26 44C13.8497 44 4 34.1503 4 22C4 9.84974 13.8497 0 26 0C38.1503 0 48 9.84974 48 22Z" fill="#009BFF"/>
</g>
<path d="M20 8L17.5 15.5L19 22L25.5 24L33 22L34.5 15.5L32 8" stroke="white" stroke-width="1.5" stroke-linecap="round" stroke-linejoin="round"/>
<path d="M13 12L11 19.5L17 24.5L25.5 23.5L35.5 24.5L41 19.5L39 12" stroke="white" stroke-width="1.5" stroke-linecap="round" stroke-linejoin="round"/>
<path d="M19.5 35L17 31L19.5 26.5L25.5 23.5L33 26.5L35 31L32.5 35" stroke="white" stroke-width="1.5" stroke-linecap="round" stroke-linejoin="round"/>
<path d="M24 38.5L21 34V28L26 23.5L31 28V34L28 38.5" stroke="white" stroke-width="1.5" stroke-linecap="round" stroke-linejoin="round"/>
<path d="M25 30.5L23.5 29.5L26 24L29 29.5L27.5 30.5" stroke="white" stroke-width="1.5" stroke-linecap="round" stroke-linejoin="round"/>
<path d="M22.669 26C22.669 27.2 24 28.5 26 28.5C28 28.5 29.5 26.8333 29.5 26C29.8333 25 29.469 22.6 30.669 21C32.169 19 33.669 9.5 25.669 9.5C17.669 9.5 20 19 21.9999 21C23.2746 22.2748 22.669 24.5 22.669 26Z" fill="white"/>
<path d="M26 15V19" stroke="#009BFF" stroke-linecap="round" stroke-linejoin="round"/>
<path d="M27 17.5H25" stroke="#009BFF" stroke-linecap="round" stroke-linejoin="round"/>
<defs>
<filter id="filter0_d_8336_415640" x="0" y="0" width="52" height="52" filterUnits="userSpaceOnUse" color-interpolation-filters="sRGB">
<feFlood flood-opacity="0" result="BackgroundImageFix"/>
<feColorMatrix in="SourceAlpha" type="matrix" values="0 0 0 0 0 0 0 0 0 0 0 0 0 0 0 0 0 0 127 0" result="hardAlpha"/>
<feOffset dy="4"/>
<feGaussianBlur stdDeviation="2"/>
<feColorMatrix type="matrix" values="0 0 0 0 0 0 0 0 0 0 0 0 0 0 0 0 0 0 0.25 0"/>
<feBlend mode="normal" in2="BackgroundImageFix" result="effect1_dropShadow_8336_415640"/>
<feBlend mode="normal" in="SourceGraphic" in2="effect1_dropShadow_8336_415640" result="shape"/>
</filter>
</defs>
</svg>
