<svg xmlns="http://www.w3.org/2000/svg" width="35" height="35" viewBox="0 0 35 35"><path fill="#2D2D2D" fill-rule="evenodd" d="M17.5 0C27.165 0 35 7.835 35 17.5S27.165 35 17.5 35 0 27.165 0 17.5 7.835 0 17.5 0zm11.65 8.5H16.59l.76.836c.845.93 1.545 1.843 2.1 2.738.023.089.071.167.136.228.985 1.651 1.473 3.244 1.473 4.777 0 1.545-.06 3.097-.178 4.657l-.149.102a4.577 4.577 0 0 1-2 .702l-.002-5.183-5.523-4.746-5.522 4.746-.001 4.022a9.626 9.626 0 0 0-1.575.933l.584.81.28-.193c1.202-.807 2.39-1.21 3.573-1.222.173 0 .35.007.531.022l.031.003c.23.021.382.04.615.102.1.03.221.07.381.126l1.785.648c.6.22 1.13.398 1.62.538 1.09.322 1.975.457 2.906.42a5.66 5.66 0 0 0 2.36-.602 61.255 61.255 0 0 1-.201 1.829l-.002.004c-.777.51-1.642.726-2.628.701l-.272-.013c-.997-.068-1.994-.338-3.439-.867l-1.185-.439-.432-.151c-.584-.198-1.028-.31-1.418-.343-1.535-.131-2.898.176-4.069.923l.538.843.229-.138c.928-.524 1.996-.736 3.217-.632.346.03.385.014 1.093.264l2.028.736c1.348.479 2.34.732 3.37.802 1.415.097 2.668-.212 3.763-1.02l-.032.023a.608.608 0 0 0 .016-.01l.016-.013a.449.449 0 0 0 .033-.026c2.953-2.594 5.098-5.549 5.984-8.2.863-2.578 1.434-5.308 1.713-8.189l.053-.548zm-7.387 15.24l-.071.067.087-.845a63.86 63.86 0 0 0 .135-1.655h2.039c-.64.821-1.375 1.639-2.19 2.432zm-8.556-9.811l4.522 3.886.001 4.724-.058-.003c-.607-.041-1.214-.158-1.921-.362a23.949 23.949 0 0 1-1.468-.497l-1.201-.442c-1.002-.364-1.256-.431-1.668-.478l-.073-.006a3.295 3.295 0 0 0-.143-.015l-.187-.013-.11-.009a6.35 6.35 0 0 0-.345-.007l.293.006a6.832 6.832 0 0 0-1.965.19l-.201.055.001-3.142 4.523-3.887zm13.229 2.992l-.11.31c-.367.99-.923 2.029-1.64 3.076h-2.712c.057-1.08.085-2.156.085-3.228l-.006-.301-.001-.017 4.437.001-.053.159zm.364-1.158l-4.845-.001c-.17-1.093-.553-2.2-1.143-3.323h6.791a34.974 34.974 0 0 1-.803 3.324zm1.26-6.427l.041-.384a38.733 38.733 0 0 1-.321 2.487h-7.548c-.379-.6-.816-1.204-1.312-1.813l-.105-.126h9.228l.017-.164z"/></svg>