<svg xmlns="http://www.w3.org/2000/svg" width="35" height="35" viewBox="0 0 35 35"><path fill="#2D2D2D" fill-rule="evenodd" d="M17.5 0C27.165 0 35 7.835 35 17.5S27.165 35 17.5 35 0 27.165 0 17.5 7.835 0 17.5 0zm7.244 8.895H9.676l.76.836.386.432a22.454 22.454 0 0 1 2.218 2.967c.025.101.08.19.158.256 1.224 2.054 1.832 4.038 1.832 5.95 0 3.146-.186 6.402-.56 9.766l-.146 1.327.982-.904.4-.371c3.548-3.339 5.845-6.555 6.884-9.66 1.058-3.164 1.759-6.514 2.101-10.051l.053-.548zM15.897 24.05l3.089.001c-.882 1.185-1.943 2.392-3.185 3.621l-.198.191.085-.903.08-.976c.05-.648.093-1.293.129-1.934zm5.86-5.221l-.116.348-.118.338-.167.434a17.39 17.39 0 0 1-1.666 3.102h-3.743c.056-1.255.083-2.494.083-3.716l-.005-.33-.009-.176zm-7.338-5.318h8.717a38.972 38.972 0 0 1-1.063 4.318h-6.154c-.208-1.418-.709-2.857-1.5-4.318zm9.219-3.618a43.679 43.679 0 0 1-.33 2.618h-9.473a22.84 22.84 0 0 0-1.739-2.393l-.189-.225z"/></svg>