<svg xmlns="http://www.w3.org/2000/svg" width="35" height="35" viewBox="0 0 35 35"><path fill="#2D2D2D" fill-rule="evenodd" d="M17.5 0C27.165 0 35 7.835 35 17.5S27.165 35 17.5 35 0 27.165 0 17.5 7.835 0 17.5 0zm11.603 10.854H17.977l.76.836c2.145 2.359 3.203 4.585 3.203 6.678 0 .988-.028 1.98-.084 2.975a3.918 3.918 0 0 1-1.805.705v-4.456l-4.861-4.177-4.86 4.177-.002 3.48a8.46 8.46 0 0 0-1.34.798.5.5 0 1 0 .585.811c1.129-.813 2.24-1.215 3.344-1.216l.162.003.356.025c.161.017.285.035.467.085.125.039.293.096.544.186l1.313.479c.481.176.91.322 1.309.439.999.302 1.8.43 2.646.396.111-.005.222-.012.33-.023l.007-.002a4.902 4.902 0 0 0 1.72-.495l-.045.577c-.057.63-.124 1.263-.203 1.896-.713.459-1.52.633-2.453.57-.715-.05-1.431-.22-2.373-.54l-.594-.21-1.287-.472-.33-.11c-.41-.13-.74-.207-1.035-.232-1.347-.115-2.544.155-3.574.812a.5.5 0 1 0 .538.843c.838-.535 1.816-.755 2.951-.658.268.022.32.014.789.175l1.929.698c1.163.412 2.024.63 2.918.691 1.243.085 2.347-.187 3.31-.898l-.105.075a.705.705 0 0 0 .139-.102c2.571-2.258 4.44-4.833 5.214-7.146.751-2.244 1.247-4.619 1.49-7.125l.053-.548zM22.97 23.707l-.329.329.057-.552c.11-1.157.181-2.302.217-3.44h2.867c-.682 1.211-1.639 2.462-2.812 3.663zm-7.78-8.974l3.861 3.317v4l.02.003a7.678 7.678 0 0 1-1.586-.292c-.4-.116-.84-.266-1.338-.45l-1.11-.408c-.764-.277-1.007-.345-1.321-.385l-.21-.023a2.833 2.833 0 0 0-.054-.005l-.07-.006a5.61 5.61 0 0 0-.254-.015h-.016l-.07-.003a5.572 5.572 0 0 0-.18 0l.25.003a6.021 6.021 0 0 0-1.601.146l-.183.047.001-2.611 3.861-3.318zm11.423 3.477l-.104.292c-.067.179-.14.36-.222.542h-3.35c.003-.225.004-.45.004-.676l-.005-.285a8.102 8.102 0 0 0-.487-2.425h4.89a29.45 29.45 0 0 1-.726 2.552zm-15.784-6.694c.833 0 1.348.322 1.456 1.027.175 1.138-.37 1.451-2.433 1.451H4.755l-.09.008a.5.5 0 0 0 .09.992h5.096l.239-.002c2.418-.04 3.472-.71 3.183-2.6a2.26 2.26 0 0 0-.337-.913c1.769-.154 2.473-.843 2.25-2.523-.139-1.051-1.161-1.851-2.306-1.992-1.265-.155-2.264.556-2.264 1.914a.5.5 0 0 0 1 0c0-.703.43-1.009 1.142-.921.732.09 1.365.585 1.437 1.13.155 1.172-.252 1.429-2.166 1.429H6.933l-.09.008a.5.5 0 0 0 .09.992zm17.167.336l.06-.546a32.896 32.896 0 0 1-.497 3.352h-5.532a13.856 13.856 0 0 0-1.508-2.402l-.321-.403 7.798-.001z"/></svg>