<svg width="52" height="52" viewBox="0 0 52 52" fill="none" xmlns="http://www.w3.org/2000/svg">
<g filter="url(#filter0_d_8010_394307)">
<path d="M48 22C48 34.1503 38.1503 44 26 44C13.8497 44 4 34.1503 4 22C4 9.84974 13.8497 0 26 0C38.1503 0 48 9.84974 48 22Z" fill="#009BFF"/>
</g>
<path d="M4.99908 18.7137C4.51404 19.1899 10.8195 20.1423 14.6997 20.6185C17.8039 20.9994 21.4901 23.6343 22.9452 24.9042C21.9752 26.8089 19.5501 27.7619 18.5801 28.2381C17.61 28.7143 19.5501 30.619 19.5501 31.5714C19.5501 32.3333 19.8735 32.8413 20.0352 33H24.8855C24.7238 33 24.3034 32.8095 23.9154 32.0476C23.4304 31.0952 22.4603 32.0476 21.9753 31.0952C21.4902 30.1429 21.0052 29.6667 21.0052 29.1905C21.0052 28.7143 26.3406 25.8571 27.3106 25.381C28.0867 25 28.9274 25.8571 29.2507 26.3333L27.3106 29.1905C26.8256 29.6667 27.9573 32.6825 28.7657 33H33.616C33.2927 33 32.452 32.8095 31.6759 32.0476C30.7058 31.0952 29.7358 31.5714 29.2507 30.619C28.7657 29.6667 29.2507 29.1905 30.2208 28.7143C31.7729 27.9524 33.131 26.4921 33.616 25.8571C34.4244 25.6984 36.1382 25.381 36.5262 25.381C37.0112 25.381 36.5262 26.3333 37.0112 26.8095C37.4963 27.2857 35.5562 27.7619 37.0112 27.7619C38.4663 27.7619 37.0112 25.8571 37.9813 26.3333C38.7574 26.7143 38.628 27.127 38.4663 27.2857C38.7897 27.127 39.4364 26.7143 39.4364 26.3333C39.4364 25.8571 37.9813 25.8571 37.4963 25.381C37.0112 24.9048 37.4963 24.9048 36.0412 24.9048C34.5861 24.9048 34.5861 24.4286 35.0711 23.9524C35.5562 23.4762 36.5262 23.4762 37.4963 23C38.4663 22.5238 37.4963 24.9048 38.9514 24.9048C39.4364 24.9048 38.4663 23.4762 38.9514 23.4762C39.9214 23.4762 39.4364 24.4286 39.9214 24.4286C40.4065 24.4286 40.4065 23.4762 39.9214 23C39.4364 22.5238 39.4364 22.0476 37.9813 22.0476C36.5262 22.0476 36.0412 22.5238 36.0412 22.0476C36.5262 20.619 37.4963 20.1429 39.4364 21.0952C41.3765 22.0476 41.3765 21.5714 41.8616 21.0952C42.2496 20.7143 41.6999 20.3016 41.3765 20.1429H40.8915V19.6667H39.9214L39.4364 19.1905C38.9514 19.3492 38.1753 19.381 38.9514 18.2381C39.7274 17.0952 40.2448 18.0794 40.4065 18.7143L41.3765 18.2381V19.1905L42.3466 18.7143V19.1905L43.3167 18.7143V19.6667L44.2867 18.7143C44.7717 18.2381 45.2568 18.7143 44.7717 17.2857C44.2867 15.8571 43.8017 15.8571 42.3466 15.381C40.8915 14.9048 41.3765 14.9048 40.8915 14.4286C40.4065 13.9524 39.4364 13.9524 38.9514 13.9524C38.4663 13.9524 37.4963 13 36.5262 13C33.616 13 33.616 15.8571 32.646 17.2857C31.6759 18.7143 29.7358 17.7613 25.8555 17.2851C21.9753 16.8089 23.9154 17.7613 16.1549 17.7613C8.3944 17.7613 5.48411 18.2375 4.99908 18.7137Z" fill="white"/>
<defs>
<filter id="filter0_d_8010_394307" x="0" y="0" width="52" height="52" filterUnits="userSpaceOnUse" color-interpolation-filters="sRGB">
<feFlood flood-opacity="0" result="BackgroundImageFix"/>
<feColorMatrix in="SourceAlpha" type="matrix" values="0 0 0 0 0 0 0 0 0 0 0 0 0 0 0 0 0 0 127 0" result="hardAlpha"/>
<feOffset dy="4"/>
<feGaussianBlur stdDeviation="2"/>
<feColorMatrix type="matrix" values="0 0 0 0 0 0 0 0 0 0 0 0 0 0 0 0 0 0 0.25 0"/>
<feBlend mode="normal" in2="BackgroundImageFix" result="effect1_dropShadow_8010_394307"/>
<feBlend mode="normal" in="SourceGraphic" in2="effect1_dropShadow_8010_394307" result="shape"/>
</filter>
</defs>
</svg>
