<svg xmlns="http://www.w3.org/2000/svg" width="52" height="52" fill="none" viewBox="0 0 52 52"><g filter="url(#filter0_d_7998_393962)"><path fill="#009BFF" d="M48 22C48 34.1503 38.1503 44 26 44C13.8497 44 4 34.1503 4 22C4 9.84974 13.8497 0 26 0C38.1503 0 48 9.84974 48 22Z"/></g><path stroke="#fff" stroke-dasharray="2 2" stroke-linecap="round" d="M19 23L16 35"/><path stroke="#fff" stroke-dasharray="2 2" stroke-linecap="round" d="M33 23L36 35"/><path stroke="#fff" stroke-linecap="round" stroke-width="1.5" d="M22 34.1667L24 32H26L24.6667 34L25.2381 36"/><path stroke="#fff" stroke-linecap="round" stroke-width="1.5" d="M26 32L27.3333 30.6667L28 28"/><path stroke="#fff" stroke-linecap="round" stroke-width="1.5" d="M24 29L24.7143 29.8L27.0952 29.96L29 31.4V33"/><circle cx="27.5" cy="28.5" r="1.5" fill="#fff"/><path stroke="#fff" stroke-width="2" d="M19.193 13.7132L19.7857 13.5862L19.9474 13.0021C20.3735 11.4621 22.2819 8.32812 26.4648 8.32812C30.599 8.32812 32.2105 11.4557 32.5032 13.0083L32.6244 13.651L33.2617 13.7976C35.4359 14.2977 37.186 15.0032 38.3664 15.8018C39.5726 16.6179 39.9999 17.3947 39.9999 18.015C39.9999 18.4778 39.7696 19.0198 39.137 19.618C38.5023 20.2183 37.5302 20.8049 36.2461 21.3185C33.6834 22.3436 30.0745 23 26.0373 23C22.0002 23 18.3912 22.3436 15.8285 21.3185C14.5444 20.8049 13.5723 20.2183 12.9377 19.618C12.3051 19.0198 12.0747 18.4778 12.0747 18.015C12.0747 17.3762 12.5295 16.5715 13.8113 15.7333C15.0624 14.9151 16.9112 14.202 19.193 13.7132Z"/><path stroke="#fff" d="M19.1973 13.3125C21.2494 15.7065 27.8328 17.7585 33.3049 13.3125"/><path stroke="#fff" stroke-linecap="round" d="M23.0449 13.312C23.0449 12.742 24.2419 10.918 26.4649 10.918"/><defs><filter id="filter0_d_7998_393962" width="52" height="52" x="0" y="0" color-interpolation-filters="sRGB" filterUnits="userSpaceOnUse"><feFlood flood-opacity="0" result="BackgroundImageFix"/><feColorMatrix in="SourceAlpha" result="hardAlpha" type="matrix" values="0 0 0 0 0 0 0 0 0 0 0 0 0 0 0 0 0 0 127 0"/><feOffset dy="4"/><feGaussianBlur stdDeviation="2"/><feColorMatrix type="matrix" values="0 0 0 0 0 0 0 0 0 0 0 0 0 0 0 0 0 0 0.25 0"/><feBlend in2="BackgroundImageFix" mode="normal" result="effect1_dropShadow_7998_393962"/><feBlend in="SourceGraphic" in2="effect1_dropShadow_7998_393962" mode="normal" result="shape"/></filter></defs></svg>