<svg width="52" height="52" viewBox="0 0 52 52" fill="none" xmlns="http://www.w3.org/2000/svg">
<g filter="url(#filter0_d_7880_393590)">
<path d="M48 22C48 34.1503 38.1503 44 26 44C13.8497 44 4 34.1503 4 22C4 9.84974 13.8497 0 26 0C38.1503 0 48 9.84974 48 22Z" fill="#009BFF"/>
</g>
<path d="M20.0001 29.4993C23.6 27.8991 22.5001 26.166 21.5001 25.4993C25.0001 21.9994 25.0001 26.4991 25.0001 27.4992V27.4993C25.0001 28.4993 18.5003 30.166 20.0001 29.4993Z" fill="white"/>
<path d="M34 29.0687L37.3091 29.1878L38.7091 27.0449L41 29.1878L39.8545 32.0449" stroke="white" stroke-width="2" stroke-linecap="round" stroke-linejoin="round"/>
<path d="M40 22.0449L39 27.0449" stroke="white" stroke-width="2.5" stroke-linecap="round"/>
<path d="M35.5 25.0449L36.3432 22.5667L39.5 22.5449L40.9701 22.0449L43.0596 25.1754L44.9999 23.4362" stroke="white" stroke-width="2" stroke-linecap="round" stroke-linejoin="round"/>
<circle cx="40" cy="20.0449" r="2" fill="white"/>
<path d="M38.8353 13.6849C38.6617 13.7287 38.4977 13.7109 38.3434 13.6317C38.1872 13.5461 38.0809 13.4183 38.0244 13.2484L37.0607 9.94654C36.9875 9.55368 37.1371 9.28564 37.5095 9.14242C37.6877 9.09043 37.858 9.1063 38.0205 9.19005C38.1875 9.26557 38.2971 9.3924 38.349 9.57053L39.3127 12.8724C39.3584 13.0524 39.3352 13.2214 39.2432 13.3794C39.1494 13.5311 39.0134 13.6329 38.8353 13.6849ZM39.999 14.6915C40.051 14.8697 40.0192 15.0446 39.9036 15.2164C39.7881 15.3882 39.6222 15.5057 39.4058 15.5688C39.1895 15.632 38.9865 15.6222 38.7966 15.5395C38.6068 15.4568 38.4859 15.3264 38.4339 15.1483C38.3801 14.9638 38.4109 14.7857 38.5265 14.6138C38.642 14.442 38.808 14.3246 39.0243 14.2614C39.2406 14.1983 39.4437 14.2081 39.6335 14.2908C39.8233 14.3734 39.9451 14.507 39.999 14.6915Z" fill="white"/>
<path d="M6 14.5555C7.60199 13.8516 11.8702 13.2532 16.1269 16.4912C21.4478 20.5387 21.4478 25.2901 29 21.7705" stroke="white" stroke-linecap="round"/>
<path d="M15.5 15.5C12.3 13.5 8 13.6675 6.5 14.0009C19.5 16.0014 15 22.5023 22 25.0023C29 27.5023 32.5 18.5023 27.5 20.0023C22.5 21.5023 19.5 18 15.5 15.5Z" fill="white"/>
<path d="M32.9999 15C31.5604 15.0541 28.748 16.0919 28.3494 17C27.9508 17.9081 28.1278 19.8108 28.3493 21" stroke="white" stroke-width="3" stroke-linecap="round"/>
<path d="M15 28.1875C15.3407 28.7605 16.2605 29.5969 17.2144 28.3594C18.1683 27.1219 16.1356 24.5209 15 23.375C18.1229 24.6927 24.0621 26.2625 22.8357 22" stroke="white" stroke-linecap="round" stroke-linejoin="round"/>
<path d="M15 31C15.9282 31 17.5858 30.6 16.7902 29" stroke="white" stroke-linecap="round"/>
<path d="M28.8876 21C27.9007 21.8296 26.2231 23.6133 27.4073 24.1111C28.8876 24.7333 32.0596 28 28.0417 28" stroke="white" stroke-linecap="round"/>
<path d="M31.3386 13.4336C22.9999 11.504 28 17.5 25.5 20.5001C28.5 20.9967 27.5647 20.9374 28.9999 20.0041C28.9999 15.5041 34.5794 14.1835 31.3386 13.4336Z" fill="white"/>
<path d="M24 24C24.5833 24.75 25.75 26.8923 24.35 28C22.95 29.1077 20.4667 29.25 20 29.3654C20.875 30.5769 22.94 33 24.2 33C25.775 33 26.3 32.1346 27 33" stroke="white" stroke-linecap="round" stroke-linejoin="round"/>
<path d="M24.5789 31.3133L24.1182 31.5074V31.5074L24.5789 31.3133ZM25.5525 30.6915C25.6757 30.9386 25.9759 31.0391 26.223 30.9159C26.4702 30.7928 26.5707 30.4926 26.4475 30.2454L25.5525 30.6915ZM22 32.0029C21.9917 32.0029 22.0394 32.0061 22.1766 32.0552C22.2986 32.0989 22.4466 32.1618 22.6188 32.238C22.9471 32.3833 23.3665 32.5796 23.7326 32.7022C23.9164 32.7638 24.1174 32.8178 24.3095 32.8327C24.489 32.8467 24.7581 32.8341 24.9798 32.6504C25.2231 32.4488 25.2749 32.1582 25.2596 31.9176C25.2446 31.681 25.1635 31.4129 25.0397 31.1192L24.1182 31.5074C24.2247 31.7603 24.257 31.9081 24.2616 31.9809C24.266 32.0496 24.2436 31.9618 24.3417 31.8804C24.4183 31.817 24.4713 31.8423 24.3868 31.8357C24.3147 31.8301 24.2037 31.8054 24.0503 31.754C23.742 31.6507 23.3868 31.4844 23.0235 31.3236C22.8498 31.2467 22.6728 31.1707 22.5135 31.1137C22.3693 31.0621 22.1793 31.0029 22 31.0029V32.0029ZM25.0397 31.1192C24.893 30.7708 24.9246 30.6195 24.9374 30.5853C24.9408 30.5764 24.9455 30.5522 25.0231 30.5351C25.1126 30.5154 25.2442 30.5246 25.3706 30.5728C25.4307 30.5958 25.478 30.6233 25.5108 30.6492C25.5443 30.6755 25.5529 30.6923 25.5525 30.6915L26.4475 30.2454C26.2925 29.9345 25.9955 29.741 25.7273 29.6386C25.4512 29.5332 25.1196 29.4899 24.8081 29.5585C24.4848 29.6297 24.1509 29.8343 24.001 30.2345C23.8606 30.6093 23.9243 31.0471 24.1182 31.5074L25.0397 31.1192Z" fill="white"/>
<path d="M15.5 23.4999C18 26.5 23 27.6991 25 24.499C27.5 20.499 23 23.999 15.5 23.4999Z" fill="white"/>
<defs>
<filter id="filter0_d_7880_393590" x="0" y="0" width="52" height="52" filterUnits="userSpaceOnUse" color-interpolation-filters="sRGB">
<feFlood flood-opacity="0" result="BackgroundImageFix"/>
<feColorMatrix in="SourceAlpha" type="matrix" values="0 0 0 0 0 0 0 0 0 0 0 0 0 0 0 0 0 0 127 0" result="hardAlpha"/>
<feOffset dy="4"/>
<feGaussianBlur stdDeviation="2"/>
<feColorMatrix type="matrix" values="0 0 0 0 0 0 0 0 0 0 0 0 0 0 0 0 0 0 0.25 0"/>
<feBlend mode="normal" in2="BackgroundImageFix" result="effect1_dropShadow_7880_393590"/>
<feBlend mode="normal" in="SourceGraphic" in2="effect1_dropShadow_7880_393590" result="shape"/>
</filter>
</defs>
</svg>
