<svg width="52" height="52" viewBox="0 0 52 52" fill="none" xmlns="http://www.w3.org/2000/svg">
<g filter="url(#filter0_d_8010_394308)">
<path d="M48 22C48 34.1503 38.1503 44 26 44C13.8497 44 4 34.1503 4 22C4 9.84974 13.8497 0 26 0C38.1503 0 48 9.84974 48 22Z" fill="#009BFF"/>
</g>
<path d="M25.1115 30.9376C29.5114 28.9817 28.1671 26.8635 26.9449 26.0486C31.2227 21.7709 31.2227 27.2706 31.2227 28.493V28.4931C31.2227 29.7153 23.2784 31.7524 25.1115 30.9376Z" fill="white"/>
<path d="M8 12.6731C9.958 11.8127 15.1747 11.0814 20.3774 15.039C26.8807 19.986 26.8807 25.7932 36.1113 21.4915" stroke="white" stroke-linecap="round"/>
<path d="M19.6114 13.8277C15.7003 11.3832 10.4447 11.588 8.61133 11.9954C24.5003 14.4406 19.0003 22.3861 27.5559 25.4417C36.1115 28.4972 40.3894 17.4972 34.2782 19.3305C28.167 21.1639 24.5003 16.8833 19.6114 13.8277Z" fill="white"/>
<path d="M41.0001 13.2168C39.2408 13.2829 35.8034 14.5513 35.3162 15.6613C34.829 16.7712 35.0453 19.0967 35.316 20.5502" stroke="white" stroke-width="3" stroke-linecap="round"/>
<path d="M19 29.3341C19.4164 30.0343 20.5406 31.0567 21.7065 29.5442C22.8724 28.0316 20.388 24.8525 19 23.4521C22.8169 25.0626 30.076 26.9813 28.577 21.7715" stroke="white" stroke-linecap="round" stroke-linejoin="round"/>
<path d="M19 32.7726C20.1345 32.7726 22.1604 32.2837 21.188 30.3281" stroke="white" stroke-linecap="round"/>
<path d="M35.974 20.5508C34.7679 21.5648 32.7174 23.7449 34.1648 24.3533C35.974 25.1138 39.851 29.1064 34.9402 29.1064" stroke="white" stroke-linecap="round"/>
<path d="M38.9696 11.3021C28.7778 8.94373 34.8891 16.2722 31.8335 19.939C35.5002 20.5459 34.357 20.4734 36.1112 19.3328C36.1112 13.8327 42.9306 12.2187 38.9696 11.3021Z" fill="white"/>
<path d="M30.0003 24.2168C30.7132 25.1335 32.1392 27.7519 30.428 29.1057C28.7169 30.4596 25.6817 30.6335 25.1113 30.7745C26.1808 32.2553 28.7047 35.2169 30.2447 35.2169C32.1697 35.2169 32.8114 34.1592 33.667 35.2169" stroke="white" stroke-linecap="round" stroke-linejoin="round"/>
<path d="M30.7077 33.1561L30.2469 33.3502L30.7077 33.1561ZM31.9971 32.3466C32.1203 32.5937 32.4205 32.6942 32.6676 32.571C32.9148 32.4479 33.0153 32.1477 32.8921 31.9005L31.9971 32.3466ZM27.5557 33.8879C27.5525 33.8879 27.5721 33.8881 27.6232 33.9005C27.6713 33.9122 27.7328 33.9311 27.8089 33.9583C27.9622 34.0132 28.1463 34.0916 28.3569 34.1848C28.7621 34.3641 29.2676 34.6006 29.7086 34.7484C29.9299 34.8225 30.1656 34.8853 30.3869 34.9025C30.5958 34.9187 30.8889 34.902 31.1268 34.7049C31.3862 34.4899 31.4463 34.1768 31.4288 33.9018C31.4116 33.6308 31.3178 33.3165 31.1685 32.962L30.2469 33.3502C30.3791 33.6639 30.424 33.8579 30.4308 33.9651C30.4373 34.0681 30.4067 34.0029 30.4887 33.9349C30.5491 33.8848 30.5782 33.9143 30.4643 33.9055C30.3629 33.8976 30.2171 33.8641 30.0263 33.8002C29.6431 33.6718 29.2018 33.4651 28.7617 33.2703C28.5496 33.1765 28.3364 33.085 28.1458 33.0168C27.9704 32.954 27.754 32.8879 27.5557 32.8879V33.8879ZM31.1685 32.962C30.984 32.5238 31.012 32.3071 31.0418 32.2274C31.0622 32.1731 31.1046 32.1234 31.2267 32.0965C31.3607 32.067 31.5439 32.082 31.7149 32.1473C31.894 32.2157 31.9766 32.3055 31.9971 32.3466L32.8921 31.9005C32.7196 31.5544 32.3845 31.3326 32.0717 31.2131C31.7508 31.0906 31.3678 31.0415 31.0117 31.1199C30.6438 31.2009 30.2723 31.431 30.1054 31.8766C29.9479 32.2968 30.0153 32.8001 30.2469 33.3502L31.1685 32.962Z" fill="white"/>
<path d="M19.6113 23.606C22.6669 27.2728 28.7781 28.7384 31.2225 24.8272C34.2781 19.9382 28.7781 24.216 19.6113 23.606Z" fill="white"/>
<defs>
<filter id="filter0_d_8010_394308" x="0" y="0" width="52" height="52" filterUnits="userSpaceOnUse" color-interpolation-filters="sRGB">
<feFlood flood-opacity="0" result="BackgroundImageFix"/>
<feColorMatrix in="SourceAlpha" type="matrix" values="0 0 0 0 0 0 0 0 0 0 0 0 0 0 0 0 0 0 127 0" result="hardAlpha"/>
<feOffset dy="4"/>
<feGaussianBlur stdDeviation="2"/>
<feColorMatrix type="matrix" values="0 0 0 0 0 0 0 0 0 0 0 0 0 0 0 0 0 0 0.25 0"/>
<feBlend mode="normal" in2="BackgroundImageFix" result="effect1_dropShadow_8010_394308"/>
<feBlend mode="normal" in="SourceGraphic" in2="effect1_dropShadow_8010_394308" result="shape"/>
</filter>
</defs>
</svg>
