<svg xmlns="http://www.w3.org/2000/svg" width="35" height="35" viewBox="0 0 35 35"><path fill="#2D2D2D" fill-rule="evenodd" d="M17.5 0C27.165 0 35 7.835 35 17.5S27.165 35 17.5 35 0 27.165 0 17.5 7.835 0 17.5 0zm1.282 4.858c-1.011 0-1.831.82-1.831 1.831 0 .772.477 1.432 1.152 1.702l-.303 2.943-.21-.003c-1.634 0-3.119.635-4.222 1.673l.034-.032-1.642-1.717c.27-.367.429-.82.429-1.31 0-1.222-.991-2.213-2.213-2.213s-2.213.991-2.213 2.213.99 2.213 2.213 2.213c.424 0 .821-.12 1.158-.327l1.676 1.771.015-.018-.156.199c-.724.958-1.174 2.135-1.235 3.414l-.007.297c0 .277.018.55.054.817l-.005-.033-.005-.04-2.19.299c-.25-.673-.9-1.152-1.66-1.152-.978 0-1.771.793-1.771 1.772s.793 1.772 1.771 1.772c.904 0 1.65-.677 1.759-1.551l2.25-.31.071.25c.34 1.097.977 2.063 1.818 2.803l.215.18-.023-.018-.899 1.25c-.233-.108-.493-.168-.767-.168-1.012 0-1.832.82-1.832 1.832 0 1.011.82 1.831 1.832 1.831 1.011 0 1.831-.82 1.831-1.831 0-.432-.15-.828-.399-1.141l.924-1.287-.061-.038c.943.587 2.057.926 3.25.926.4 0 .79-.038 1.168-.11l-.057.01.652 2.155c-.73.385-1.227 1.151-1.227 2.034 0 1.27 1.029 2.298 2.298 2.298 1.27 0 2.299-1.029 2.299-2.298 0-1.27-1.03-2.299-2.299-2.299-.091 0-.181.005-.27.016l-.639-2.113-.066.022c1.734-.548 3.136-1.842 3.831-3.505l-.013.031 2.552 1.11c-.02.11-.032.223-.032.339 0 .978.793 1.771 1.771 1.771.979 0 1.772-.793 1.772-1.771 0-.979-.793-1.772-1.772-1.772-.56 0-1.059.26-1.383.665l-2.632-1.144-.011.04c.144-.522.221-1.073.221-1.642 0-1.187-.335-2.295-.916-3.235l.01.016 1.755-1.015c.453.519 1.119.846 1.862.846 1.364 0 2.47-1.106 2.47-2.471s-1.106-2.471-2.47-2.471c-1.365 0-2.472 1.106-2.472 2.47 0 .32.06.624.17.903l-1.807 1.047.021.026-.171-.202c-.864-.975-2.033-1.675-3.358-1.95l-.286-.051.08.013.294-2.906c.94-.077 1.679-.865 1.679-1.825 0-1.011-.82-1.831-1.832-1.831zm1.642 21.444c.798 0 1.444.646 1.444 1.444 0 .797-.646 1.444-1.444 1.444-.797 0-1.444-.647-1.444-1.444 0-.798.647-1.444 1.444-1.444zm-8.38-2.075c.536 0 .97.434.97.97 0 .535-.434.97-.97.97-.535 0-.969-.435-.969-.97 0-.536.434-.97.97-.97zm5.546-11.896c2.852 0 5.163 2.311 5.163 5.163 0 2.851-2.311 5.163-5.163 5.163-2.851 0-5.163-2.312-5.163-5.163 0-2.852 2.312-5.163 5.163-5.163zm9.968 8.078c.518 0 .938.42.938.938 0 .517-.42.937-.938.937s-.937-.42-.937-.937c0-.518.42-.938.937-.938zM7.621 18.154c.554 0 1.003.45 1.003 1.003 0 .554-.449 1.003-1.003 1.003-.553 0-1.003-.45-1.003-1.003 0-.554.45-1.003 1.003-1.003zm18.843-8.128c.888 0 1.609.72 1.609 1.609 0 .888-.72 1.609-1.61 1.609-.888 0-1.608-.72-1.608-1.61 0-.888.72-1.608 1.609-1.608zM9.976 8.555c.768 0 1.39.622 1.39 1.39 0 .768-.622 1.39-1.39 1.39-.768 0-1.39-.622-1.39-1.39 0-.768.622-1.39 1.39-1.39zm8.806-2.835c.536 0 .97.434.97.97 0 .535-.434.969-.97.969-.535 0-.97-.434-.97-.97 0-.535.435-.97.97-.97z"/></svg>