<svg xmlns="http://www.w3.org/2000/svg" width="35" height="35" viewBox="0 0 35 35"><path fill="#2D2D2D" fill-rule="evenodd" d="M17.5 0C27.165 0 35 7.835 35 17.5S27.165 35 17.5 35 0 27.165 0 17.5 7.835 0 17.5 0zm3.857 15.073h-7.84L6.85 26.84h21.307l-6.801-11.767zm-3.237 1h2.66l5.644 9.766H8.566l5.533-9.766h2.779l-2.835 3.852h3.196l-.908 3.92.974.225 1.192-5.145H16.02l2.1-2.852zm6.009-6.074c-1.004-.193-1.92-.013-2.719.54-.796.55-1.32 1.416-1.578 2.569a.5.5 0 0 0 .976.217c.206-.921.597-1.567 1.171-1.965.573-.396 1.216-.522 1.96-.379a.5.5 0 0 0 .19-.982zm-10.556.54c-.798-.553-1.714-.733-2.718-.54a.5.5 0 1 0 .19.982c.744-.143 1.387-.017 1.96.38s.965 1.043 1.17 1.964a.5.5 0 0 0 .977-.217c-.257-1.153-.782-2.019-1.579-2.57zm3.927-3.28a.5.5 0 0 0-.5.5v5.33l.008.09a.5.5 0 0 0 .992-.09V7.76l-.008-.09a.5.5 0 0 0-.492-.41zm9.103 2.648a1.042 1.042 0 1 0 0 2.084 1.042 1.042 0 0 0 0-2.084zm-18.223 0a1.042 1.042 0 1 0 0 2.084 1.042 1.042 0 0 0 0-2.084zm9.112-5.79a1.042 1.042 0 1 0 0 2.084 1.042 1.042 0 0 0 0-2.084z"/></svg>