<svg xmlns="http://www.w3.org/2000/svg" width="35" height="35" viewBox="0 0 35 35"><path fill="#2D2D2D" fill-rule="evenodd" d="M17.5 0C27.165 0 35 7.835 35 17.5S27.165 35 17.5 35 0 27.165 0 17.5 7.835 0 17.5 0zm3.026 19.878H8.422a.648.648 0 0 0 0 1.296h12.104a2.378 2.378 0 1 1-1.944 3.749l-.077-.103c-.34-.434-.756-.669-1.079-.582-.283.076-.44.33-.36.553a3.675 3.675 0 1 0 3.46-4.913zm3.026-9.078a3.675 3.675 0 0 0-3.46 2.436c-.08.223.078.477.36.552.348.093.804-.186 1.157-.685l.092-.122a2.378 2.378 0 1 1 1.852 3.871H8.421a.648.648 0 0 0 0 1.296h15.13a3.674 3.674 0 0 0 0-7.348zm-8.07-3.026a3.675 3.675 0 0 0-3.46 2.436c-.08.223.078.476.36.552.348.093.805-.186 1.157-.685l.092-.122a2.378 2.378 0 1 1 1.852 3.871H8.422a.648.648 0 0 0 0 1.296h7.06a3.674 3.674 0 0 0 0-7.348z"/></svg>