<svg width="31" height="26" viewBox="0 0 31 26" fill="none" xmlns="http://www.w3.org/2000/svg">
<path d="M5.43164 7.57617H18.0994C20.3086 7.57617 22.0994 9.36703 22.0994 11.5762V15.1524H5.43164V7.57617Z" fill="black" stroke="black"/>
<path d="M13.3867 10.2285L24.554 21.5171C25.182 22.1518 24.7265 23.2287 23.8337 23.2204L23.112 23.2136C22.8478 23.2111 22.5953 23.1041 22.4097 22.9161L12.0015 12.3714L13.3867 10.2285Z" fill="black" stroke="black"/>
<path fill-rule="evenodd" clip-rule="evenodd" d="M11.1142 23.4862C13.4156 23.4862 15.2812 21.6206 15.2812 19.3193C15.2812 17.0179 13.4156 15.1523 11.1142 15.1523C8.81287 15.1523 6.94727 17.0179 6.94727 19.3193C6.94727 21.6206 8.81287 23.4862 11.1142 23.4862ZM11.1143 21.9712C12.5788 21.9712 13.766 20.784 13.766 19.3195C13.766 17.855 12.5788 16.6678 11.1143 16.6678C9.64983 16.6678 8.46263 17.855 8.46263 19.3195C8.46263 20.784 9.64983 21.9712 11.1143 21.9712Z" fill="black" stroke="black"/>
<circle cx="11.113" cy="19.32" r="1.13644" fill="black" stroke="black"/>
<path fill-rule="evenodd" clip-rule="evenodd" d="M4.67346 15.1523C3.8366 15.1523 3.1582 15.8307 3.1582 16.6676C3.1582 17.5044 3.8366 18.1828 4.67346 18.1828H8.71677C9.14235 17.287 10.0555 16.6676 11.1133 16.6676C12.1711 16.6676 13.0842 17.287 13.5098 18.1828H22.8565C23.6933 18.1828 24.3717 17.5044 24.3717 16.6676C24.3717 15.8307 23.6933 15.1523 22.8565 15.1523H4.67346Z" fill="black" stroke="black"/>
<path d="M14.5319 11.3989L1.44802 10.0213C0.749996 9.94781 0.342893 9.19688 0.662221 8.57185L4.11315 1.81718C4.43247 1.19214 5.27952 1.08195 5.74813 1.60448L14.5319 11.3989Z" fill="black" stroke="black"/>
<path fill-rule="evenodd" clip-rule="evenodd" d="M19.8274 5.46667C19.8641 5.09427 20.0505 4.48066 20.4957 3.97517C20.9122 3.50228 21.6329 3.03051 22.9631 3.03051C24.2087 3.03051 25.1455 3.54588 25.9982 4.3909C26.7648 5.15056 27.3765 6.0811 28.036 7.08426V7.08426C28.2451 7.40222 28.6724 7.48804 28.989 7.27697L30.4418 6.30848C30.7154 6.12603 30.7899 5.7559 30.6098 5.48069V5.48069C29.9579 4.48464 29.1453 3.24311 28.1314 2.23833C26.8817 0.999876 25.2194 0 22.9631 0C20.7914 0 19.2322 0.824611 18.2215 1.97219C17.2575 3.0667 16.866 4.36825 16.8006 5.29807L16.7969 5.35117V9.84914H19.8274V5.46667Z" fill="black" stroke="black"/>
</svg>
