<svg width="52" height="52" viewBox="0 0 52 52" fill="none" xmlns="http://www.w3.org/2000/svg">
<g filter="url(#filter0_d_7880_393591)">
<path d="M48 22C48 34.1503 38.1503 44 26 44C13.8497 44 4 34.1503 4 22C4 9.84974 13.8497 0 26 0C38.1503 0 48 9.84974 48 22Z" fill="#009BFF"/>
</g>
<path d="M20 26L21 23.0526L21.5 20L22 18L24 22.6316V26" stroke="white" stroke-width="2" stroke-linecap="round" stroke-linejoin="round"/>
<path d="M11 32L12.5 29V26L13 24L14.5 28.5L15 32" stroke="white" stroke-width="2" stroke-linecap="round" stroke-linejoin="round"/>
<path d="M22.0001 19.5L21 15" stroke="white" stroke-width="3" stroke-linecap="round"/>
<path d="M13.0001 25.5L11 21" stroke="white" stroke-width="3" stroke-linecap="round"/>
<path d="M27 16H24.4286H21L22.7143 17.6L26.1429 18" stroke="white" stroke-width="1.5" stroke-linecap="round" stroke-linejoin="round"/>
<path d="M18 22H15.4286L10 21L14 24H17.1429" stroke="white" stroke-width="1.5" stroke-linecap="round" stroke-linejoin="round"/>
<circle cx="20.5" cy="13.5" r="2.5" fill="white"/>
<circle cx="10.5" cy="19.5" r="2.5" fill="white"/>
<path d="M32 28.0238L35.3091 28.1429L36.7091 26L39 28.1429L37.8545 31" stroke="white" stroke-width="2" stroke-linecap="round" stroke-linejoin="round"/>
<path d="M38 21L37 26" stroke="white" stroke-width="2.5" stroke-linecap="round"/>
<path d="M33.5 24L34.3432 21.5217L37.5 21.5L38.9701 21L41.0596 24.1304L42.9999 22.3913" stroke="white" stroke-width="2" stroke-linecap="round" stroke-linejoin="round"/>
<circle cx="38" cy="19" r="2" fill="white"/>
<path d="M36.8643 12.3521C36.6669 12.4019 36.4805 12.3817 36.3051 12.2917C36.1276 12.1943 36.0067 12.0491 35.9425 11.8559L34.847 8.10225C34.7637 7.65563 34.9338 7.35092 35.3572 7.1881C35.5597 7.129 35.7533 7.14704 35.9381 7.24225C36.1279 7.3281 36.2524 7.47229 36.3115 7.6748L37.4071 11.4285C37.459 11.6331 37.4326 11.8252 37.3281 12.0049C37.2214 12.1773 37.0668 12.293 36.8643 12.3521ZM38.1872 13.4965C38.2464 13.699 38.2102 13.8979 38.0789 14.0932C37.9475 14.2886 37.7589 14.4221 37.513 14.4939C37.267 14.5656 37.0362 14.5545 36.8204 14.4605C36.6046 14.3665 36.4671 14.2183 36.408 14.0158C36.3468 13.806 36.3819 13.6035 36.5133 13.4082C36.6446 13.2129 36.8333 13.0794 37.0792 13.0076C37.3251 12.9358 37.5559 12.9469 37.7717 13.0409C37.9875 13.1349 38.126 13.2868 38.1872 13.4965Z" fill="white"/>
<defs>
<filter id="filter0_d_7880_393591" x="0" y="0" width="52" height="52" filterUnits="userSpaceOnUse" color-interpolation-filters="sRGB">
<feFlood flood-opacity="0" result="BackgroundImageFix"/>
<feColorMatrix in="SourceAlpha" type="matrix" values="0 0 0 0 0 0 0 0 0 0 0 0 0 0 0 0 0 0 127 0" result="hardAlpha"/>
<feOffset dy="4"/>
<feGaussianBlur stdDeviation="2"/>
<feColorMatrix type="matrix" values="0 0 0 0 0 0 0 0 0 0 0 0 0 0 0 0 0 0 0.25 0"/>
<feBlend mode="normal" in2="BackgroundImageFix" result="effect1_dropShadow_7880_393591"/>
<feBlend mode="normal" in="SourceGraphic" in2="effect1_dropShadow_7880_393591" result="shape"/>
</filter>
</defs>
</svg>
