<svg xmlns="http://www.w3.org/2000/svg" width="52" height="52" fill="none" viewBox="0 0 52 52"><g filter="url(#filter0_d_8010_394300)"><path fill="#009BFF" d="M48 22C48 34.1503 38.1503 44 26 44C13.8497 44 4 34.1503 4 22C4 9.84974 13.8497 0 26 0C38.1503 0 48 9.84974 48 22Z"/></g><path fill="#fff" d="M19.5905 11.9829L18.0056 9.98934C17.8175 9.75271 17.8807 9.40456 18.1401 9.24923L21.0841 7.48587C21.1523 7.44505 21.2292 7.42105 21.3084 7.41587L27.5425 7.00853C27.6281 7.00294 27.7138 7.01948 27.7912 7.05656L30.7313 8.46536C30.9911 8.58987 31.0922 8.90765 30.9521 9.15942L30.3044 10.3233C30.159 10.5846 29.8184 10.6607 29.5756 10.4862L27.6275 9.08601C27.3561 8.8909 26.9733 9.01201 26.8635 9.32776L25.5881 12.9945C25.4642 13.3507 25.0057 13.4468 24.7492 13.1703L22.1998 10.4216C21.9827 10.1876 21.605 10.2141 21.4227 10.4761L20.3924 11.9573C20.2011 12.2322 19.799 12.245 19.5905 11.9829Z"/><path stroke="#fff" stroke-width="2" d="M25.6218 7.5625C16.5816 7.5625 14.3216 14.7193 14.3216 18.2976C13.1914 18.2976 12.6266 18.2976 12.0616 22.8177C11.6096 26.4337 13.7566 27.3377 14.8866 27.3377C15.4516 30.2465 18.3897 36.064 25.6218 36.064C32.8538 36.064 35.7919 30.2465 36.3569 27.3377C37.1102 27.3377 38.7299 26.4337 39.1819 22.8177C39.6339 19.2016 37.8636 18.2976 36.9219 18.2976C36.9219 14.7193 34.6619 7.5625 25.6218 7.5625Z"/><path fill="#fff" d="M26.7521 27.9024C21.78 28.8064 20.9137 30.1624 21.102 30.7274C21.0694 31.1387 23.3133 28.8007 26.1869 29.5983C29.0604 30.3959 29.5769 29.0324 30.1419 27.9024C30.7069 26.7724 29.0119 27.3374 26.7521 27.9024Z"/><path fill="#fff" fill-rule="evenodd" d="M32.5522 12.8465C32.6626 12.7637 32.685 12.607 32.6022 12.4965C32.5193 12.386 32.3626 12.3637 32.2522 12.4465L31.0337 13.3604L30.3377 12.4903C30.2514 12.3825 30.0941 12.365 29.9863 12.4513C29.8784 12.5375 29.861 12.6949 29.9472 12.8027L30.6335 13.6605L29.0561 14.8436L28.077 13.6197C27.9907 13.5118 27.8334 13.4944 27.7256 13.5806C27.6178 13.6669 27.6003 13.8242 27.6865 13.932L28.6559 15.1437L27.2595 16.191L25.7989 14.7304C25.7012 14.6328 25.5429 14.6328 25.4453 14.7304C25.3477 14.828 25.3477 14.9863 25.4453 15.084L26.8554 16.4941L25.4721 17.5316C25.3616 17.6144 25.3392 17.7711 25.4221 17.8816C25.5049 17.992 25.6616 18.0144 25.7721 17.9316L27.2126 16.8512L27.7053 17.344C27.803 17.4416 27.9613 17.4416 28.0589 17.344C28.1565 17.2464 28.1565 17.0881 28.0589 16.9904L27.6166 16.5482L28.9684 15.5343L29.9466 16.757C30.0328 16.8649 30.1901 16.8823 30.298 16.7961C30.4058 16.7098 30.4233 16.5525 30.337 16.4447L29.3686 15.2342L30.946 14.0511L32.2072 15.6277C32.2935 15.7355 32.4508 15.753 32.5586 15.6668C32.6665 15.5805 32.6839 15.4232 32.5977 15.3154L31.3462 13.751L32.5522 12.8465Z" clip-rule="evenodd"/><path fill="#fff" fill-rule="evenodd" d="M19.9716 23.9436C21.6666 23.9436 25.0567 22.9908 25.0567 21.1186C25.0567 19.4241 23.033 17.7285 20.5366 17.7285C18.0403 17.7285 16.5815 19.2463 16.5815 21.1186C16.5815 22.9908 17.4752 23.9436 19.9716 23.9436ZM22.2314 21.6835C22.8555 21.6835 23.3614 21.1776 23.3614 20.5535C23.3614 19.9294 22.8555 19.4235 22.2314 19.4235C21.6073 19.4235 21.1014 19.9294 21.1014 20.5535C21.1014 21.1776 21.6073 21.6835 22.2314 21.6835Z" clip-rule="evenodd"/><path fill="#fff" fill-rule="evenodd" d="M31.8385 23.9436C30.1435 23.9436 26.7534 22.9908 26.7534 21.1186C26.7534 19.4241 28.7771 17.7285 31.2734 17.7285C33.7698 17.7285 35.2285 19.2463 35.2285 21.1186C35.2285 22.9908 34.3348 23.9436 31.8385 23.9436ZM29.5782 21.6835C28.9541 21.6835 28.4481 21.1776 28.4481 20.5535C28.4481 19.9294 28.9541 19.4235 29.5782 19.4235C30.2022 19.4235 30.7082 19.9294 30.7082 20.5535C30.7082 21.1776 30.2022 21.6835 29.5782 21.6835Z" clip-rule="evenodd"/><defs><filter id="filter0_d_8010_394300" width="52" height="52" x="0" y="0" color-interpolation-filters="sRGB" filterUnits="userSpaceOnUse"><feFlood flood-opacity="0" result="BackgroundImageFix"/><feColorMatrix in="SourceAlpha" result="hardAlpha" type="matrix" values="0 0 0 0 0 0 0 0 0 0 0 0 0 0 0 0 0 0 127 0"/><feOffset dy="4"/><feGaussianBlur stdDeviation="2"/><feColorMatrix type="matrix" values="0 0 0 0 0 0 0 0 0 0 0 0 0 0 0 0 0 0 0.25 0"/><feBlend in2="BackgroundImageFix" mode="normal" result="effect1_dropShadow_8010_394300"/><feBlend in="SourceGraphic" in2="effect1_dropShadow_8010_394300" mode="normal" result="shape"/></filter></defs></svg>